{"glyphs":{"0":{"ha":971,"x_min":64,"x_max":904,"o":"m 485 -14 q 306 14 382 -14 q 178 90 229 42 q 100 205 128 139 q 68 347 72 271 q 65 436 65 385 q 65 540 64 488 q 68 631 65 592 q 101 772 72 707 q 182 884 129 836 q 310 959 235 932 q 485 986 385 986 q 659 959 583 986 q 787 884 735 932 q 867 772 839 836 q 901 631 896 707 q 904 540 904 592 q 904 436 904 488 q 901 347 904 385 q 869 205 896 271 q 790 90 842 139 q 663 14 739 42 q 485 -14 586 -14 m 485 224 q 565 260 540 224 q 592 354 590 296 q 594 442 594 394 q 594 537 594 489 q 592 622 594 585 q 566 715 590 678 q 485 753 542 751 q 404 715 428 751 q 378 622 381 678 q 376 537 376 585 q 376 442 375 489 q 378 354 376 394 q 405 260 381 296 q 485 224 429 224 z "},"1":{"ha":732,"x_min":17,"x_max":649,"o":"m 386 0 q 360 10 371 0 q 350 36 350 21 l 350 647 l 176 514 q 149 508 163 506 q 125 525 136 511 l 24 657 q 19 685 17 669 q 35 708 21 700 l 363 963 q 376 970 369 968 q 393 972 383 972 l 611 972 q 638 962 626 972 q 649 936 649 951 l 649 36 q 638 10 649 21 q 611 0 626 0 l 386 0 z "},"2":{"ha":940,"x_min":53,"x_max":882,"o":"m 89 0 q 63 10 74 0 q 53 36 53 21 l 53 157 q 58 189 53 167 q 88 229 63 211 l 168 306 q 381 467 296 401 q 508 581 465 532 q 550 671 550 629 q 534 728 550 704 q 471 753 518 753 q 415 738 436 753 q 384 700 394 722 q 368 658 374 678 q 349 633 363 639 q 317 626 335 626 l 100 626 q 78 635 86 626 q 69 656 69 643 q 101 790 71 729 q 183 896 131 850 q 309 966 236 942 q 469 990 382 990 q 679 953 592 990 q 814 847 767 915 q 861 685 861 779 q 828 551 861 613 q 733 432 794 489 q 589 315 672 375 l 521 249 l 846 249 q 872 238 861 249 q 882 211 882 226 l 882 36 q 872 10 882 21 q 846 0 861 0 l 89 0 z "},"3":{"ha":950,"x_min":39,"x_max":899,"o":"m 467 -14 q 270 14 351 -14 q 138 84 189 42 q 64 175 88 126 q 39 265 40 224 q 47 287 39 278 q 68 296 56 296 l 299 296 q 326 290 317 296 q 344 271 336 283 q 371 242 354 254 q 411 226 388 231 q 468 221 435 221 q 558 248 528 221 q 589 319 589 275 q 558 384 589 364 q 471 404 528 404 l 307 404 q 281 415 292 404 q 271 440 271 426 l 271 536 q 278 569 271 556 q 296 588 286 582 l 506 736 l 131 736 q 105 747 115 736 q 94 772 94 758 l 94 936 q 105 962 94 951 q 131 972 115 972 l 806 972 q 831 962 821 972 q 842 936 842 951 l 842 789 q 835 758 842 771 q 818 739 828 746 l 631 586 l 636 583 q 769 537 710 569 q 864 446 829 504 q 899 299 899 388 q 842 134 899 204 q 690 25 786 64 q 467 -14 593 -14 z "},"4":{"ha":985,"x_min":38,"x_max":943,"o":"m 533 0 q 508 10 518 0 q 497 36 497 21 l 497 174 l 74 174 q 48 184 58 174 q 38 210 38 194 l 38 375 q 42 401 38 390 q 53 418 47 411 l 451 949 q 503 972 471 972 l 749 972 q 774 962 764 972 q 785 936 785 951 l 785 418 l 907 418 q 933 408 924 418 q 943 382 943 397 l 943 210 q 933 184 943 194 q 907 174 922 174 l 785 174 l 785 36 q 774 10 785 21 q 749 0 764 0 l 533 0 m 315 406 l 506 406 l 506 669 l 315 406 z "},"5":{"ha":928,"x_min":39,"x_max":885,"o":"m 461 -17 q 229 26 322 -17 q 89 137 136 68 q 39 285 42 206 q 48 306 39 297 q 69 315 57 315 l 301 315 q 333 307 322 315 q 349 290 344 299 q 378 251 363 267 q 414 227 393 235 q 463 219 435 219 q 519 233 493 219 q 562 272 546 246 q 578 335 578 297 q 563 391 578 367 q 523 431 549 415 q 463 446 497 446 q 417 440 435 446 q 389 425 400 433 q 369 410 378 417 q 349 404 360 404 l 119 404 q 98 413 107 404 q 89 435 89 422 l 142 928 q 159 961 144 950 q 192 972 174 972 l 781 972 q 806 962 796 972 q 817 936 817 951 l 817 772 q 806 747 817 758 q 781 736 796 736 l 376 736 l 363 597 q 437 633 397 621 q 547 644 476 644 q 673 622 613 644 q 781 556 733 599 q 857 456 829 514 q 885 326 885 397 q 836 154 885 232 q 693 30 788 76 q 461 -17 599 -17 z "},"6":{"ha":932,"x_min":38,"x_max":899,"o":"m 472 -14 q 248 29 346 -14 q 94 152 150 72 q 38 340 38 232 q 51 428 38 383 q 86 512 65 472 q 128 583 107 551 q 163 632 149 614 l 399 944 q 417 962 404 951 q 450 972 429 972 l 682 972 q 703 963 694 972 q 713 942 713 954 q 710 931 713 936 q 706 924 708 926 l 525 681 q 538 681 531 681 q 550 682 546 682 q 668 655 607 679 q 781 588 729 631 q 866 485 833 546 q 899 346 899 424 q 845 164 899 246 q 696 34 792 82 q 472 -14 600 -14 m 469 222 q 531 235 503 222 q 577 276 560 249 q 594 342 594 303 q 577 406 594 379 q 532 446 560 432 q 469 460 504 460 q 407 446 436 460 q 361 406 378 432 q 344 342 344 379 q 362 276 344 303 q 408 235 379 249 q 469 222 436 222 z "},"7":{"ha":832,"x_min":39,"x_max":796,"o":"m 192 0 q 170 9 179 0 q 161 31 161 18 q 164 43 161 38 l 475 725 l 75 725 q 49 735 60 725 q 39 761 39 746 l 39 936 q 49 962 39 951 q 75 972 60 972 l 760 972 q 786 962 776 972 q 796 936 796 951 l 796 783 q 791 745 796 761 q 779 715 786 729 l 468 32 q 451 13 463 25 q 414 0 439 0 l 192 0 z "},"8":{"ha":964,"x_min":57,"x_max":908,"o":"m 481 -14 q 288 12 368 -14 q 156 81 207 38 q 81 181 104 125 q 57 297 57 236 q 93 427 57 371 q 183 515 129 483 q 115 594 139 547 q 92 701 92 642 q 131 842 92 776 q 256 947 169 907 q 481 986 342 986 q 706 947 621 986 q 829 843 790 907 q 868 704 868 779 q 846 596 868 643 q 778 515 824 549 q 873 427 838 486 q 908 294 908 368 q 864 144 908 214 q 725 30 819 74 q 481 -14 631 -14 m 481 192 q 546 204 517 192 q 592 240 575 217 q 608 296 608 264 q 592 353 608 329 q 546 389 575 376 q 481 401 517 401 q 417 389 446 401 q 371 353 388 376 q 354 296 354 329 q 371 240 354 264 q 417 204 388 217 q 481 192 446 192 m 481 593 q 541 606 515 594 q 581 639 567 618 q 596 686 596 660 q 581 735 596 714 q 541 767 567 756 q 481 779 515 779 q 422 767 447 779 q 382 735 396 756 q 368 686 368 714 q 382 639 368 660 q 422 606 396 618 q 481 593 447 593 z "},"9":{"ha":919,"x_min":35,"x_max":882,"o":"m 231 0 q 209 9 218 0 q 200 31 200 18 q 203 42 200 38 q 207 49 206 46 l 396 304 q 369 303 382 301 q 255 331 314 307 q 146 395 196 354 q 65 496 96 436 q 35 632 35 556 q 61 764 35 700 q 140 878 88 828 q 272 957 193 928 q 453 986 350 986 q 637 960 557 986 q 771 888 717 935 q 853 779 825 842 q 882 643 882 717 q 857 520 882 578 q 794 410 832 463 q 718 303 757 357 l 515 28 q 498 10 510 21 q 463 0 486 0 l 231 0 m 457 515 q 517 529 492 515 q 558 569 543 543 q 574 632 574 596 q 558 696 574 669 q 517 736 543 722 q 457 750 490 750 q 396 736 422 750 q 354 696 369 722 q 339 632 339 669 q 354 569 339 596 q 396 529 369 543 q 457 515 422 515 z "},"A":{"ha":1021,"x_min":7,"x_max":1015,"o":"m 36 0 q 15 9 24 0 q 7 31 7 18 q 8 40 7 36 l 325 929 q 344 958 331 944 q 383 972 358 972 l 638 972 q 678 958 664 972 q 696 929 692 944 l 1014 40 q 1015 31 1015 36 q 1006 9 1015 18 q 985 0 997 0 l 771 0 q 736 11 747 0 q 721 32 725 22 l 678 149 l 343 149 l 300 32 q 285 11 296 22 q 250 0 275 0 l 36 0 m 407 383 l 614 383 l 510 696 l 407 383 z "},"Á":{"ha":1021,"x_min":7,"x_max":1015,"o":"m 36 0 q 15 9 24 0 q 7 31 7 18 q 8 40 7 36 l 325 929 q 344 958 331 944 q 383 972 358 972 l 638 972 q 678 958 664 972 q 696 929 692 944 l 1014 40 q 1015 31 1015 36 q 1006 9 1015 18 q 985 0 997 0 l 771 0 q 736 11 747 0 q 721 32 725 22 l 678 149 l 343 149 l 300 32 q 285 11 296 22 q 250 0 275 0 l 36 0 m 407 383 l 614 383 l 510 696 l 407 383 m 404 1042 q 382 1064 382 1042 q 389 1082 382 1075 l 519 1242 q 544 1263 533 1258 q 571 1268 554 1268 l 804 1268 q 831 1240 831 1268 q 824 1224 831 1231 l 629 1064 q 606 1048 618 1054 q 574 1042 594 1042 l 404 1042 z "},"Ă":{"ha":1021,"x_min":7,"x_max":1015,"o":"m 36 0 q 15 9 24 0 q 7 31 7 18 q 8 40 7 36 l 325 929 q 344 958 331 944 q 383 972 358 972 l 638 972 q 678 958 664 972 q 696 929 692 944 l 1014 40 q 1015 31 1015 36 q 1006 9 1015 18 q 985 0 997 0 l 771 0 q 736 11 747 0 q 721 32 725 22 l 678 149 l 343 149 l 300 32 q 285 11 296 22 q 250 0 275 0 l 36 0 m 407 383 l 614 383 l 510 696 l 407 383 m 511 1033 q 381 1061 432 1033 q 306 1135 329 1089 q 282 1240 282 1182 q 289 1259 282 1251 q 308 1267 296 1267 l 424 1267 q 443 1259 436 1267 q 450 1240 450 1251 q 463 1185 450 1208 q 511 1161 475 1161 q 560 1185 549 1161 q 572 1240 572 1208 q 579 1259 572 1251 q 599 1267 586 1267 l 715 1267 q 735 1259 728 1267 q 742 1240 742 1251 q 717 1135 742 1182 q 642 1061 693 1089 q 511 1033 592 1033 z "},"Â":{"ha":1021,"x_min":7,"x_max":1015,"o":"m 36 0 q 15 9 24 0 q 7 31 7 18 q 8 40 7 36 l 325 929 q 344 958 331 944 q 383 972 358 972 l 638 972 q 678 958 664 972 q 696 929 692 944 l 1014 40 q 1015 31 1015 36 q 1006 9 1015 18 q 985 0 997 0 l 771 0 q 736 11 747 0 q 721 32 725 22 l 678 149 l 343 149 l 300 32 q 285 11 296 22 q 250 0 275 0 l 36 0 m 407 383 l 614 383 l 510 696 l 407 383 m 250 1042 q 229 1063 229 1042 q 238 1082 229 1074 l 386 1242 q 411 1263 400 1257 q 436 1268 422 1268 l 586 1268 q 611 1263 600 1268 q 636 1242 622 1257 l 785 1082 q 794 1063 794 1074 q 772 1042 794 1042 l 688 1042 q 663 1043 675 1042 q 636 1051 650 1044 l 511 1114 l 386 1051 q 360 1043 374 1044 q 335 1042 347 1042 l 250 1042 z "},"Ä":{"ha":1021,"x_min":7,"x_max":1015,"o":"m 36 0 q 15 9 24 0 q 7 31 7 18 q 8 40 7 36 l 325 929 q 344 958 331 944 q 383 972 358 972 l 638 972 q 678 958 664 972 q 696 929 692 944 l 1014 40 q 1015 31 1015 36 q 1006 9 1015 18 q 985 0 997 0 l 771 0 q 736 11 747 0 q 721 32 725 22 l 678 149 l 343 149 l 300 32 q 285 11 296 22 q 250 0 275 0 l 36 0 m 407 383 l 614 383 l 510 696 l 407 383 m 611 1042 q 589 1050 597 1042 q 581 1074 581 1058 l 581 1224 q 589 1247 581 1238 q 611 1256 597 1256 l 761 1256 q 784 1247 775 1256 q 793 1224 793 1238 l 793 1074 q 784 1050 793 1058 q 761 1042 775 1042 l 611 1042 m 261 1042 q 238 1050 246 1042 q 229 1074 229 1058 l 229 1224 q 238 1247 229 1238 q 261 1256 246 1256 l 410 1256 q 433 1247 424 1256 q 442 1224 442 1238 l 442 1074 q 433 1050 442 1058 q 410 1042 424 1042 l 261 1042 z "},"À":{"ha":1021,"x_min":7,"x_max":1015,"o":"m 36 0 q 15 9 24 0 q 7 31 7 18 q 8 40 7 36 l 325 929 q 344 958 331 944 q 383 972 358 972 l 638 972 q 678 958 664 972 q 696 929 692 944 l 1014 40 q 1015 31 1015 36 q 1006 9 1015 18 q 985 0 997 0 l 771 0 q 736 11 747 0 q 721 32 725 22 l 678 149 l 343 149 l 300 32 q 285 11 296 22 q 250 0 275 0 l 36 0 m 407 383 l 614 383 l 510 696 l 407 383 m 451 1042 q 419 1048 431 1042 q 396 1064 407 1054 l 201 1224 q 194 1240 194 1231 q 221 1268 194 1268 l 454 1268 q 481 1263 471 1268 q 506 1242 490 1258 l 636 1082 q 643 1064 643 1075 q 621 1042 643 1042 l 451 1042 z "},"Ā":{"ha":1021,"x_min":7,"x_max":1015,"o":"m 36 0 q 15 9 24 0 q 7 31 7 18 q 8 40 7 36 l 325 929 q 344 958 331 944 q 383 972 358 972 l 638 972 q 678 958 664 972 q 696 929 692 944 l 1014 40 q 1015 31 1015 36 q 1006 9 1015 18 q 985 0 997 0 l 771 0 q 736 11 747 0 q 721 32 725 22 l 678 149 l 343 149 l 300 32 q 285 11 296 22 q 250 0 275 0 l 36 0 m 407 383 l 614 383 l 510 696 l 407 383 m 272 1042 q 249 1050 257 1042 q 240 1074 240 1058 l 240 1196 q 249 1219 240 1211 q 272 1228 257 1228 l 749 1228 q 772 1219 764 1228 q 781 1196 781 1211 l 781 1074 q 772 1050 781 1058 q 749 1042 764 1042 l 272 1042 z "},"Ą":{"ha":1021,"x_min":7,"x_max":1015,"o":"m 943 -306 q 815 -275 865 -306 q 740 -192 764 -244 q 715 -76 715 -140 q 724 -23 715 -46 q 749 14 733 0 q 726 26 733 17 q 717 44 719 36 l 678 149 l 343 149 l 300 32 q 285 11 296 22 q 250 0 275 0 l 36 0 q 15 9 24 0 q 7 31 7 18 q 8 40 7 36 l 325 929 q 344 958 331 944 q 383 972 358 972 l 638 972 q 678 958 664 972 q 696 929 692 944 l 1014 40 q 1015 31 1015 36 q 1006 9 1015 18 q 985 0 997 0 l 943 0 q 890 -26 906 -1 q 874 -76 874 -50 q 891 -128 874 -104 q 949 -153 908 -153 l 964 -153 q 990 -163 979 -153 q 1000 -189 1000 -174 l 1000 -269 q 990 -295 1000 -285 q 964 -306 979 -306 l 943 -306 m 407 383 l 614 383 l 510 696 l 407 383 z "},"Å":{"ha":1021,"x_min":7,"x_max":1015,"o":"m 36 0 q 15 9 24 0 q 7 31 7 18 q 8 40 7 36 l 325 929 q 344 958 331 944 q 383 972 358 972 l 638 972 q 678 958 664 972 q 696 929 692 944 l 1014 40 q 1015 31 1015 36 q 1006 9 1015 18 q 985 0 997 0 l 771 0 q 736 11 747 0 q 721 32 725 22 l 678 149 l 343 149 l 300 32 q 285 11 296 22 q 250 0 275 0 l 36 0 m 407 383 l 614 383 l 510 696 l 407 383 m 511 1028 q 417 1064 457 1028 q 378 1154 378 1100 q 417 1246 378 1210 q 511 1282 456 1282 q 606 1246 567 1282 q 644 1154 644 1210 q 606 1064 644 1100 q 511 1028 567 1028 m 511 1113 q 541 1124 529 1113 q 553 1154 553 1136 q 541 1184 553 1172 q 511 1196 529 1196 q 481 1184 493 1196 q 469 1154 469 1172 q 481 1124 469 1136 q 511 1113 493 1113 z "},"Ã":{"ha":1021,"x_min":7,"x_max":1015,"o":"m 36 0 q 15 9 24 0 q 7 31 7 18 q 8 40 7 36 l 325 929 q 344 958 331 944 q 383 972 358 972 l 638 972 q 678 958 664 972 q 696 929 692 944 l 1014 40 q 1015 31 1015 36 q 1006 9 1015 18 q 985 0 997 0 l 771 0 q 736 11 747 0 q 721 32 725 22 l 678 149 l 343 149 l 300 32 q 285 11 296 22 q 250 0 275 0 l 36 0 m 407 383 l 614 383 l 510 696 l 407 383 m 600 1035 q 534 1047 560 1035 q 488 1072 508 1060 q 442 1085 467 1085 q 412 1074 421 1085 q 396 1053 403 1064 q 374 1042 389 1042 l 274 1042 q 256 1049 264 1042 q 249 1067 249 1057 q 257 1122 249 1089 q 285 1188 265 1156 q 338 1242 304 1221 q 421 1264 371 1264 q 487 1251 461 1264 q 533 1226 513 1239 q 579 1214 554 1214 q 608 1225 600 1214 q 624 1247 617 1236 q 647 1257 632 1257 l 747 1257 q 766 1249 760 1257 q 772 1232 772 1242 q 764 1176 772 1208 q 736 1110 756 1143 q 683 1056 717 1078 q 600 1035 650 1035 z "},"Æ":{"ha":1374,"x_min":6,"x_max":1318,"o":"m 36 0 q 15 9 24 0 q 6 31 6 18 q 8 42 6 36 q 51 163 29 101 q 96 290 72 225 q 147 424 119 354 q 205 573 174 494 q 274 740 236 651 q 356 931 311 829 q 374 959 360 946 q 413 972 388 972 l 1269 972 q 1296 962 1285 972 q 1307 936 1307 951 l 1307 772 q 1296 747 1307 758 q 1269 736 1285 736 l 875 736 l 875 599 l 1239 599 q 1265 588 1254 599 q 1276 563 1276 578 l 1276 413 q 1265 387 1276 397 q 1239 376 1254 376 l 875 376 l 875 236 l 1281 236 q 1307 225 1296 236 q 1318 199 1318 214 l 1318 36 q 1307 10 1318 21 q 1281 0 1296 0 l 624 0 q 598 10 608 0 q 588 36 588 21 l 588 149 l 351 149 q 331 106 339 124 q 317 75 322 88 q 308 52 311 63 q 300 32 304 42 q 285 10 296 21 q 250 0 275 0 l 36 0 m 417 383 l 588 383 l 588 735 l 551 735 l 417 383 z "},"Ǽ":{"ha":1374,"x_min":6,"x_max":1318,"o":"m 36 0 q 15 9 24 0 q 6 31 6 18 q 8 42 6 36 q 51 163 29 101 q 96 290 72 225 q 147 424 119 354 q 205 573 174 494 q 274 740 236 651 q 356 931 311 829 q 374 959 360 946 q 413 972 388 972 l 1269 972 q 1296 962 1285 972 q 1307 936 1307 951 l 1307 772 q 1296 747 1307 758 q 1269 736 1285 736 l 875 736 l 875 599 l 1239 599 q 1265 588 1254 599 q 1276 563 1276 578 l 1276 413 q 1265 387 1276 397 q 1239 376 1254 376 l 875 376 l 875 236 l 1281 236 q 1307 225 1296 236 q 1318 199 1318 214 l 1318 36 q 1307 10 1318 21 q 1281 0 1296 0 l 624 0 q 598 10 608 0 q 588 36 588 21 l 588 149 l 351 149 q 331 106 339 124 q 317 75 322 88 q 308 52 311 63 q 300 32 304 42 q 285 10 296 21 q 250 0 275 0 l 36 0 m 417 383 l 588 383 l 588 735 l 551 735 l 417 383 m 579 1042 q 557 1064 557 1042 q 564 1082 557 1075 l 694 1242 q 719 1263 708 1258 q 746 1268 729 1268 l 979 1268 q 1006 1240 1006 1268 q 999 1224 1006 1231 l 804 1064 q 781 1048 793 1054 q 749 1042 769 1042 l 579 1042 z "},"B":{"ha":999,"x_min":86,"x_max":951,"o":"m 122 0 q 97 10 108 0 q 86 36 86 21 l 86 936 q 97 962 86 951 q 122 972 108 972 l 565 972 q 772 939 692 972 q 892 843 853 906 q 931 689 931 781 q 912 605 931 642 q 867 544 893 568 q 817 508 840 519 q 911 428 871 485 q 951 300 951 372 q 908 136 951 203 q 781 35 864 69 q 579 0 699 0 l 122 0 m 385 210 l 547 210 q 617 238 594 210 q 639 301 639 267 q 615 365 639 338 q 547 392 592 392 l 385 392 l 385 210 m 385 596 l 533 596 q 599 621 578 596 q 619 679 619 646 q 599 738 619 713 q 533 763 578 763 l 385 763 l 385 596 z "},"C":{"ha":997,"x_min":57,"x_max":956,"o":"m 506 -14 q 275 27 374 -14 q 120 151 176 68 q 58 363 64 235 q 57 485 57 419 q 58 610 57 550 q 122 819 64 735 q 278 944 179 903 q 506 986 378 986 q 677 965 597 986 q 819 899 757 943 q 918 792 882 856 q 956 642 954 728 q 947 620 956 629 q 925 611 938 611 l 690 611 q 660 619 669 611 q 643 649 650 628 q 590 729 625 708 q 506 750 556 750 q 408 717 444 750 q 369 603 372 685 q 369 369 365 489 q 408 255 372 288 q 506 222 444 222 q 591 244 556 222 q 643 324 626 267 q 659 353 649 346 q 690 361 669 361 l 925 361 q 947 353 938 361 q 956 332 956 344 q 918 181 954 246 q 819 73 882 117 q 677 8 757 29 q 506 -14 597 -14 z "},"Ć":{"ha":997,"x_min":57,"x_max":956,"o":"m 506 -14 q 275 27 374 -14 q 120 151 176 68 q 58 363 64 235 q 57 485 57 419 q 58 610 57 550 q 122 819 64 735 q 278 944 179 903 q 506 986 378 986 q 677 965 597 986 q 819 899 757 943 q 918 792 882 856 q 956 642 954 728 q 947 620 956 629 q 925 611 938 611 l 690 611 q 660 619 669 611 q 643 649 650 628 q 590 729 625 708 q 506 750 556 750 q 408 717 444 750 q 369 603 372 685 q 369 369 365 489 q 408 255 372 288 q 506 222 444 222 q 591 244 556 222 q 643 324 626 267 q 659 353 649 346 q 690 361 669 361 l 925 361 q 947 353 938 361 q 956 332 956 344 q 918 181 954 246 q 819 73 882 117 q 677 8 757 29 q 506 -14 597 -14 m 392 1042 q 369 1064 369 1042 q 376 1082 369 1075 l 507 1242 q 531 1263 521 1258 q 558 1268 542 1268 l 792 1268 q 818 1240 818 1268 q 811 1224 818 1231 l 617 1064 q 594 1048 606 1054 q 561 1042 582 1042 l 392 1042 z "},"Č":{"ha":997,"x_min":57,"x_max":956,"o":"m 506 -14 q 275 27 374 -14 q 120 151 176 68 q 58 363 64 235 q 57 485 57 419 q 58 610 57 550 q 122 819 64 735 q 278 944 179 903 q 506 986 378 986 q 677 965 597 986 q 819 899 757 943 q 918 792 882 856 q 956 642 954 728 q 947 620 956 629 q 925 611 938 611 l 690 611 q 660 619 669 611 q 643 649 650 628 q 590 729 625 708 q 506 750 556 750 q 408 717 444 750 q 369 603 372 685 q 369 369 365 489 q 408 255 372 288 q 506 222 444 222 q 591 244 556 222 q 643 324 626 267 q 659 353 649 346 q 690 361 669 361 l 925 361 q 947 353 938 361 q 956 332 956 344 q 918 181 954 246 q 819 73 882 117 q 677 8 757 29 q 506 -14 597 -14 m 424 1042 q 399 1047 410 1042 q 374 1067 388 1053 l 225 1226 q 217 1246 217 1235 q 238 1268 217 1268 l 322 1268 q 348 1266 335 1268 q 374 1258 361 1264 l 499 1194 l 624 1258 q 650 1266 638 1264 q 675 1268 663 1268 l 760 1268 q 782 1246 782 1268 q 772 1226 782 1235 l 624 1067 q 599 1047 610 1053 q 574 1042 588 1042 l 424 1042 z "},"Ç":{"ha":997,"x_min":57,"x_max":956,"o":"m 499 -306 q 432 -293 463 -306 q 389 -264 401 -281 q 390 -235 376 -247 l 418 -211 q 439 -203 431 -200 q 460 -212 447 -206 q 499 -219 474 -219 q 530 -208 518 -219 q 542 -182 542 -197 q 531 -156 542 -167 q 499 -144 519 -144 q 470 -149 485 -144 q 444 -153 456 -153 q 422 -146 432 -154 l 394 -118 q 385 -99 385 -108 q 393 -72 385 -90 l 421 -8 q 233 48 313 4 q 109 170 154 92 q 58 363 64 249 q 57 485 57 419 q 58 610 57 550 q 122 819 64 735 q 278 944 179 903 q 506 986 378 986 q 677 965 597 986 q 819 899 757 943 q 918 792 882 856 q 956 642 954 728 q 947 620 956 629 q 925 611 938 611 l 690 611 q 660 619 669 611 q 643 649 650 628 q 590 729 625 708 q 506 750 556 750 q 408 717 444 750 q 369 603 372 685 q 369 369 365 489 q 408 255 372 288 q 506 222 444 222 q 591 244 556 222 q 643 324 626 267 q 659 353 649 346 q 690 361 669 361 l 925 361 q 947 353 938 361 q 956 332 956 344 q 918 181 954 246 q 819 73 882 117 q 677 8 757 29 q 506 -14 597 -14 l 479 -65 q 502 -60 488 -62 q 524 -58 517 -58 q 605 -92 575 -58 q 635 -181 635 -126 q 598 -271 635 -236 q 499 -306 561 -306 z "},"Ĉ":{"ha":997,"x_min":57,"x_max":956,"o":"m 506 -14 q 275 27 374 -14 q 120 151 176 68 q 58 363 64 235 q 57 485 57 419 q 58 610 57 550 q 122 819 64 735 q 278 944 179 903 q 506 986 378 986 q 677 965 597 986 q 819 899 757 943 q 918 792 882 856 q 956 642 954 728 q 947 620 956 629 q 925 611 938 611 l 690 611 q 660 619 669 611 q 643 649 650 628 q 590 729 625 708 q 506 750 556 750 q 408 717 444 750 q 369 603 372 685 q 369 369 365 489 q 408 255 372 288 q 506 222 444 222 q 591 244 556 222 q 643 324 626 267 q 659 353 649 346 q 690 361 669 361 l 925 361 q 947 353 938 361 q 956 332 956 344 q 918 181 954 246 q 819 73 882 117 q 677 8 757 29 q 506 -14 597 -14 m 238 1042 q 217 1063 217 1042 q 225 1082 217 1074 l 374 1242 q 399 1263 388 1257 q 424 1268 410 1268 l 574 1268 q 599 1263 588 1268 q 624 1242 610 1257 l 772 1082 q 782 1063 782 1074 q 760 1042 782 1042 l 675 1042 q 650 1043 663 1042 q 624 1051 638 1044 l 499 1114 l 374 1051 q 348 1043 361 1044 q 322 1042 335 1042 l 238 1042 z "},"Ċ":{"ha":997,"x_min":57,"x_max":956,"o":"m 506 -14 q 275 27 374 -14 q 120 151 176 68 q 58 363 64 235 q 57 485 57 419 q 58 610 57 550 q 122 819 64 735 q 278 944 179 903 q 506 986 378 986 q 677 965 597 986 q 819 899 757 943 q 918 792 882 856 q 956 642 954 728 q 947 620 956 629 q 925 611 938 611 l 690 611 q 660 619 669 611 q 643 649 650 628 q 590 729 625 708 q 506 750 556 750 q 408 717 444 750 q 369 603 372 685 q 369 369 365 489 q 408 255 372 288 q 506 222 444 222 q 591 244 556 222 q 643 324 626 267 q 659 353 649 346 q 690 361 669 361 l 925 361 q 947 353 938 361 q 956 332 956 344 q 918 181 954 246 q 819 73 882 117 q 677 8 757 29 q 506 -14 597 -14 m 417 1042 q 393 1050 401 1042 q 385 1074 385 1058 l 385 1239 q 393 1262 385 1253 q 417 1271 401 1271 l 582 1271 q 605 1262 596 1271 q 614 1239 614 1253 l 614 1074 q 605 1050 614 1058 q 582 1042 596 1042 l 417 1042 z "},"D":{"ha":1011,"x_min":86,"x_max":956,"o":"m 122 0 q 97 10 108 0 q 86 36 86 21 l 86 936 q 97 962 86 951 q 122 972 108 972 l 503 972 q 736 928 638 972 q 892 800 835 885 q 953 592 949 715 q 956 486 956 532 q 953 382 956 440 q 894 167 947 251 q 743 41 840 82 q 510 0 646 0 l 122 0 m 385 236 l 503 236 q 581 251 549 236 q 631 299 613 267 q 650 383 649 332 q 652 456 651 424 q 652 519 653 488 q 650 590 651 551 q 606 701 647 667 q 496 736 565 736 l 385 736 l 385 236 z "},"Ð":{"ha":1042,"x_min":19,"x_max":982,"o":"m 151 0 q 126 10 136 0 q 115 36 115 21 l 115 393 l 56 393 q 30 403 40 393 q 19 429 19 414 l 19 547 q 30 573 19 563 q 56 583 40 583 l 115 583 l 115 936 q 126 962 115 951 q 151 972 136 972 l 532 972 q 766 928 665 972 q 924 800 867 885 q 982 592 982 715 q 982 487 982 538 q 982 382 982 436 q 926 167 982 251 q 770 41 871 82 q 535 0 669 0 l 151 0 m 414 236 l 532 236 q 609 251 578 236 q 656 299 640 267 q 672 383 672 332 q 672 453 672 419 q 672 520 672 486 q 672 590 672 554 q 636 701 672 667 q 531 736 600 736 l 414 736 l 414 583 l 517 583 q 542 573 531 583 q 553 547 553 563 l 553 429 q 542 403 553 414 q 517 393 531 393 l 414 393 l 414 236 z "},"Ď":{"ha":1011,"x_min":86,"x_max":956,"o":"m 122 0 q 97 10 108 0 q 86 36 86 21 l 86 936 q 97 962 86 951 q 122 972 108 972 l 503 972 q 736 928 638 972 q 892 800 835 885 q 953 592 949 715 q 956 486 956 532 q 953 382 956 440 q 894 167 947 251 q 743 41 840 82 q 510 0 646 0 l 122 0 m 385 236 l 503 236 q 581 251 549 236 q 631 299 613 267 q 650 383 649 332 q 652 456 651 424 q 652 519 653 488 q 650 590 651 551 q 606 701 647 667 q 496 736 565 736 l 385 736 l 385 236 m 424 1042 q 399 1047 410 1042 q 374 1067 388 1053 l 225 1226 q 217 1246 217 1235 q 238 1268 217 1268 l 322 1268 q 348 1266 335 1268 q 374 1258 361 1264 l 499 1194 l 624 1258 q 650 1266 638 1264 q 675 1268 663 1268 l 760 1268 q 782 1246 782 1268 q 772 1226 782 1235 l 624 1067 q 599 1047 610 1053 q 574 1042 588 1042 l 424 1042 z "},"Đ":{"ha":1040,"x_min":19,"x_max":983,"o":"m 151 0 q 126 10 136 0 q 115 36 115 21 l 115 394 l 56 394 q 30 405 40 394 q 19 431 19 415 l 19 549 q 30 574 19 564 q 56 585 40 585 l 115 585 l 115 936 q 126 962 115 951 q 151 972 136 972 l 532 972 q 765 928 665 972 q 921 800 864 885 q 981 592 978 715 q 983 486 983 532 q 981 382 983 440 q 922 167 976 251 q 768 41 867 82 q 535 0 669 0 l 151 0 m 414 236 l 532 236 q 610 251 578 236 q 659 299 642 267 q 678 383 676 332 q 681 456 681 424 q 681 519 682 488 q 678 590 681 551 q 638 701 675 667 q 531 736 600 736 l 414 736 l 414 585 l 517 585 q 542 574 531 585 q 553 549 553 564 l 553 431 q 542 405 553 415 q 517 394 531 394 l 414 394 l 414 236 z "},"E":{"ha":907,"x_min":86,"x_max":851,"o":"m 122 0 q 97 10 108 0 q 86 36 86 21 l 86 936 q 97 962 86 951 q 122 972 108 972 l 803 972 q 829 962 818 972 q 840 936 840 951 l 840 772 q 829 747 840 758 q 803 736 818 736 l 374 736 l 374 599 l 772 599 q 799 588 788 599 q 810 563 810 578 l 810 413 q 799 387 810 397 q 772 376 788 376 l 374 376 l 374 236 l 814 236 q 840 225 829 236 q 851 199 851 214 l 851 36 q 840 10 851 21 q 814 0 829 0 l 122 0 z "},"É":{"ha":907,"x_min":86,"x_max":851,"o":"m 122 0 q 97 10 108 0 q 86 36 86 21 l 86 936 q 97 962 86 951 q 122 972 108 972 l 803 972 q 829 962 818 972 q 840 936 840 951 l 840 772 q 829 747 840 758 q 803 736 818 736 l 374 736 l 374 599 l 772 599 q 799 588 788 599 q 810 563 810 578 l 810 413 q 799 387 810 397 q 772 376 788 376 l 374 376 l 374 236 l 814 236 q 840 225 829 236 q 851 199 851 214 l 851 36 q 840 10 851 21 q 814 0 829 0 l 122 0 m 346 1042 q 324 1064 324 1042 q 331 1082 324 1075 l 461 1242 q 485 1263 475 1258 q 513 1268 496 1268 l 746 1268 q 772 1240 772 1268 q 765 1224 772 1231 l 571 1064 q 548 1048 560 1054 q 515 1042 536 1042 l 346 1042 z "},"Ĕ":{"ha":907,"x_min":86,"x_max":851,"o":"m 122 0 q 97 10 108 0 q 86 36 86 21 l 86 936 q 97 962 86 951 q 122 972 108 972 l 803 972 q 829 962 818 972 q 840 936 840 951 l 840 772 q 829 747 840 758 q 803 736 818 736 l 374 736 l 374 599 l 772 599 q 799 588 788 599 q 810 563 810 578 l 810 413 q 799 387 810 397 q 772 376 788 376 l 374 376 l 374 236 l 814 236 q 840 225 829 236 q 851 199 851 214 l 851 36 q 840 10 851 21 q 814 0 829 0 l 122 0 m 454 1033 q 324 1061 375 1033 q 249 1135 272 1089 q 225 1240 225 1182 q 232 1259 225 1251 q 251 1267 239 1267 l 367 1267 q 386 1259 379 1267 q 393 1240 393 1251 q 406 1185 393 1208 q 454 1161 418 1161 q 503 1185 492 1161 q 515 1240 515 1208 q 522 1259 515 1251 q 542 1267 529 1267 l 658 1267 q 678 1259 671 1267 q 685 1240 685 1251 q 660 1135 685 1182 q 585 1061 636 1089 q 454 1033 535 1033 z "},"Ě":{"ha":907,"x_min":86,"x_max":851,"o":"m 122 0 q 97 10 108 0 q 86 36 86 21 l 86 936 q 97 962 86 951 q 122 972 108 972 l 803 972 q 829 962 818 972 q 840 936 840 951 l 840 772 q 829 747 840 758 q 803 736 818 736 l 374 736 l 374 599 l 772 599 q 799 588 788 599 q 810 563 810 578 l 810 413 q 799 387 810 397 q 772 376 788 376 l 374 376 l 374 236 l 814 236 q 840 225 829 236 q 851 199 851 214 l 851 36 q 840 10 851 21 q 814 0 829 0 l 122 0 m 379 1042 q 354 1047 365 1042 q 329 1067 343 1053 l 181 1226 q 172 1246 172 1235 q 193 1268 172 1268 l 278 1268 q 303 1266 290 1268 q 329 1258 317 1264 l 454 1194 l 579 1258 q 606 1266 593 1264 q 631 1268 618 1268 l 715 1268 q 738 1246 738 1268 q 728 1226 738 1235 l 579 1067 q 554 1047 565 1053 q 529 1042 543 1042 l 379 1042 z "},"Ê":{"ha":907,"x_min":86,"x_max":851,"o":"m 122 0 q 97 10 108 0 q 86 36 86 21 l 86 936 q 97 962 86 951 q 122 972 108 972 l 803 972 q 829 962 818 972 q 840 936 840 951 l 840 772 q 829 747 840 758 q 803 736 818 736 l 374 736 l 374 599 l 772 599 q 799 588 788 599 q 810 563 810 578 l 810 413 q 799 387 810 397 q 772 376 788 376 l 374 376 l 374 236 l 814 236 q 840 225 829 236 q 851 199 851 214 l 851 36 q 840 10 851 21 q 814 0 829 0 l 122 0 m 193 1042 q 172 1063 172 1042 q 181 1082 172 1074 l 329 1242 q 354 1263 343 1257 q 379 1268 365 1268 l 529 1268 q 554 1263 543 1268 q 579 1242 565 1257 l 728 1082 q 738 1063 738 1074 q 715 1042 738 1042 l 631 1042 q 606 1043 618 1042 q 579 1051 593 1044 l 454 1114 l 329 1051 q 303 1043 317 1044 q 278 1042 290 1042 l 193 1042 z "},"Ë":{"ha":907,"x_min":86,"x_max":851,"o":"m 122 0 q 97 10 108 0 q 86 36 86 21 l 86 936 q 97 962 86 951 q 122 972 108 972 l 803 972 q 829 962 818 972 q 840 936 840 951 l 840 772 q 829 747 840 758 q 803 736 818 736 l 374 736 l 374 599 l 772 599 q 799 588 788 599 q 810 563 810 578 l 810 413 q 799 387 810 397 q 772 376 788 376 l 374 376 l 374 236 l 814 236 q 840 225 829 236 q 851 199 851 214 l 851 36 q 840 10 851 21 q 814 0 829 0 l 122 0 m 553 1042 q 531 1050 539 1042 q 522 1074 522 1058 l 522 1224 q 531 1247 522 1238 q 553 1256 539 1256 l 703 1256 q 726 1247 717 1256 q 735 1224 735 1238 l 735 1074 q 726 1050 735 1058 q 703 1042 717 1042 l 553 1042 m 203 1042 q 179 1050 188 1042 q 171 1074 171 1058 l 171 1224 q 179 1247 171 1238 q 203 1256 188 1256 l 351 1256 q 374 1247 365 1256 q 383 1224 383 1238 l 383 1074 q 374 1050 383 1058 q 351 1042 365 1042 l 203 1042 z "},"Ė":{"ha":907,"x_min":86,"x_max":851,"o":"m 122 0 q 97 10 108 0 q 86 36 86 21 l 86 936 q 97 962 86 951 q 122 972 108 972 l 803 972 q 829 962 818 972 q 840 936 840 951 l 840 772 q 829 747 840 758 q 803 736 818 736 l 374 736 l 374 599 l 772 599 q 799 588 788 599 q 810 563 810 578 l 810 413 q 799 387 810 397 q 772 376 788 376 l 374 376 l 374 236 l 814 236 q 840 225 829 236 q 851 199 851 214 l 851 36 q 840 10 851 21 q 814 0 829 0 l 122 0 m 371 1042 q 347 1050 356 1042 q 339 1074 339 1058 l 339 1239 q 347 1262 339 1253 q 371 1271 356 1271 l 536 1271 q 559 1262 550 1271 q 568 1239 568 1253 l 568 1074 q 559 1050 568 1058 q 536 1042 550 1042 l 371 1042 z "},"È":{"ha":907,"x_min":86,"x_max":851,"o":"m 122 0 q 97 10 108 0 q 86 36 86 21 l 86 936 q 97 962 86 951 q 122 972 108 972 l 803 972 q 829 962 818 972 q 840 936 840 951 l 840 772 q 829 747 840 758 q 803 736 818 736 l 374 736 l 374 599 l 772 599 q 799 588 788 599 q 810 563 810 578 l 810 413 q 799 387 810 397 q 772 376 788 376 l 374 376 l 374 236 l 814 236 q 840 225 829 236 q 851 199 851 214 l 851 36 q 840 10 851 21 q 814 0 829 0 l 122 0 m 394 1042 q 362 1048 374 1042 q 339 1064 350 1054 l 144 1224 q 138 1240 138 1231 q 164 1268 138 1268 l 397 1268 q 424 1263 414 1268 q 449 1242 433 1258 l 579 1082 q 586 1064 586 1075 q 564 1042 586 1042 l 394 1042 z "},"Ē":{"ha":907,"x_min":86,"x_max":851,"o":"m 122 0 q 97 10 108 0 q 86 36 86 21 l 86 936 q 97 962 86 951 q 122 972 108 972 l 803 972 q 829 962 818 972 q 840 936 840 951 l 840 772 q 829 747 840 758 q 803 736 818 736 l 374 736 l 374 599 l 772 599 q 799 588 788 599 q 810 563 810 578 l 810 413 q 799 387 810 397 q 772 376 788 376 l 374 376 l 374 236 l 814 236 q 840 225 829 236 q 851 199 851 214 l 851 36 q 840 10 851 21 q 814 0 829 0 l 122 0 m 215 1042 q 192 1050 200 1042 q 183 1074 183 1058 l 183 1196 q 192 1219 183 1211 q 215 1228 200 1228 l 692 1228 q 715 1219 707 1228 q 724 1196 724 1211 l 724 1074 q 715 1050 724 1058 q 692 1042 707 1042 l 215 1042 z "},"Ę":{"ha":907,"x_min":86,"x_max":851,"o":"m 794 -306 q 665 -275 715 -306 q 590 -192 614 -244 q 565 -76 565 -140 q 569 -36 565 -54 q 576 0 572 -18 l 122 0 q 97 10 108 0 q 86 36 86 21 l 86 936 q 97 962 86 951 q 122 972 108 972 l 803 972 q 829 962 818 972 q 840 936 840 951 l 840 772 q 829 747 840 758 q 803 736 818 736 l 374 736 l 374 599 l 772 599 q 799 588 788 599 q 810 563 810 578 l 810 413 q 799 387 810 397 q 772 376 788 376 l 374 376 l 374 236 l 814 236 q 840 225 829 236 q 851 199 851 214 l 851 36 q 840 10 851 21 q 814 0 829 0 l 797 0 q 740 -24 757 0 q 724 -76 724 -49 q 741 -128 724 -104 q 800 -153 758 -153 l 815 -153 q 840 -163 829 -153 q 851 -189 851 -174 l 851 -269 q 840 -295 851 -285 q 815 -306 829 -306 l 794 -306 z "},"F":{"ha":878,"x_min":86,"x_max":829,"o":"m 122 0 q 97 10 108 0 q 86 36 86 21 l 86 936 q 97 962 86 951 q 122 972 108 972 l 792 972 q 818 962 807 972 q 829 936 829 951 l 829 760 q 818 735 829 746 q 792 724 807 724 l 379 724 l 379 571 l 764 571 q 790 560 779 571 q 801 535 801 550 l 801 360 q 790 334 801 344 q 764 324 779 324 l 379 324 l 379 36 q 369 10 379 21 q 343 0 358 0 l 122 0 z "},"G":{"ha":1022,"x_min":58,"x_max":968,"o":"m 510 -14 q 274 28 372 -14 q 119 156 175 71 q 60 365 64 240 q 58 491 58 424 q 60 618 58 558 q 120 821 64 739 q 276 944 176 903 q 510 986 376 986 q 700 961 617 986 q 842 893 783 936 q 933 797 901 850 q 965 686 964 743 q 956 665 965 674 q 935 657 947 657 l 679 657 q 657 661 665 657 q 642 674 649 665 q 620 706 635 688 q 579 737 606 724 q 510 750 553 750 q 408 717 444 750 q 369 611 372 683 q 369 372 365 494 q 410 258 372 293 q 514 222 449 222 q 591 236 557 222 q 644 280 625 250 q 664 357 664 310 l 664 371 l 565 371 q 540 382 550 371 q 529 407 529 393 l 529 536 q 540 562 529 551 q 565 572 550 572 l 931 572 q 957 562 946 572 q 968 536 968 551 l 968 367 q 910 160 968 244 q 749 31 851 75 q 510 -14 646 -14 z "},"Ğ":{"ha":1022,"x_min":58,"x_max":968,"o":"m 510 -14 q 274 28 372 -14 q 119 156 175 71 q 60 365 64 240 q 58 491 58 424 q 60 618 58 558 q 120 821 64 739 q 276 944 176 903 q 510 986 376 986 q 700 961 617 986 q 842 893 783 936 q 933 797 901 850 q 965 686 964 743 q 956 665 965 674 q 935 657 947 657 l 679 657 q 657 661 665 657 q 642 674 649 665 q 620 706 635 688 q 579 737 606 724 q 510 750 553 750 q 408 717 444 750 q 369 611 372 683 q 369 372 365 494 q 410 258 372 293 q 514 222 449 222 q 591 236 557 222 q 644 280 625 250 q 664 357 664 310 l 664 371 l 565 371 q 540 382 550 371 q 529 407 529 393 l 529 536 q 540 562 529 551 q 565 572 550 572 l 931 572 q 957 562 946 572 q 968 536 968 551 l 968 367 q 910 160 968 244 q 749 31 851 75 q 510 -14 646 -14 m 514 1033 q 383 1061 435 1033 q 308 1135 332 1089 q 285 1240 285 1182 q 292 1259 285 1251 q 311 1267 299 1267 l 426 1267 q 446 1259 439 1267 q 453 1240 453 1251 q 465 1185 453 1208 q 514 1161 478 1161 q 563 1185 551 1161 q 575 1240 575 1208 q 582 1259 575 1251 q 601 1267 589 1267 l 718 1267 q 738 1259 731 1267 q 744 1240 744 1251 q 720 1135 744 1182 q 645 1061 696 1089 q 514 1033 594 1033 z "},"Ĝ":{"ha":1022,"x_min":58,"x_max":968,"o":"m 510 -14 q 274 28 372 -14 q 119 156 175 71 q 60 365 64 240 q 58 491 58 424 q 60 618 58 558 q 120 821 64 739 q 276 944 176 903 q 510 986 376 986 q 700 961 617 986 q 842 893 783 936 q 933 797 901 850 q 965 686 964 743 q 956 665 965 674 q 935 657 947 657 l 679 657 q 657 661 665 657 q 642 674 649 665 q 620 706 635 688 q 579 737 606 724 q 510 750 553 750 q 408 717 444 750 q 369 611 372 683 q 369 372 365 494 q 410 258 372 293 q 514 222 449 222 q 591 236 557 222 q 644 280 625 250 q 664 357 664 310 l 664 371 l 565 371 q 540 382 550 371 q 529 407 529 393 l 529 536 q 540 562 529 551 q 565 572 550 572 l 931 572 q 957 562 946 572 q 968 536 968 551 l 968 367 q 910 160 968 244 q 749 31 851 75 q 510 -14 646 -14 m 253 1042 q 232 1063 232 1042 q 240 1082 232 1074 l 389 1242 q 414 1263 403 1257 q 439 1268 425 1268 l 589 1268 q 614 1263 603 1268 q 639 1242 625 1257 l 788 1082 q 797 1063 797 1074 q 775 1042 797 1042 l 690 1042 q 665 1043 678 1042 q 639 1051 653 1044 l 514 1114 l 389 1051 q 363 1043 376 1044 q 338 1042 350 1042 l 253 1042 z "},"Ģ":{"ha":1022,"x_min":58,"x_max":968,"o":"m 510 -14 q 274 28 372 -14 q 119 156 175 71 q 60 365 64 240 q 58 491 58 424 q 60 618 58 558 q 120 821 64 739 q 276 944 176 903 q 510 986 376 986 q 700 961 617 986 q 842 893 783 936 q 933 797 901 850 q 965 686 964 743 q 956 665 965 674 q 935 657 947 657 l 679 657 q 657 661 665 657 q 642 674 649 665 q 620 706 635 688 q 579 737 606 724 q 510 750 553 750 q 408 717 444 750 q 369 611 372 683 q 369 372 365 494 q 410 258 372 293 q 514 222 449 222 q 591 236 557 222 q 644 280 625 250 q 664 357 664 310 l 664 371 l 565 371 q 540 382 550 371 q 529 407 529 393 l 529 536 q 540 562 529 551 q 565 572 550 572 l 931 572 q 957 562 946 572 q 968 536 968 551 l 968 367 q 910 160 968 244 q 749 31 851 75 q 510 -14 646 -14 m 376 -336 q 357 -328 365 -336 q 349 -307 349 -319 l 376 -121 q 392 -85 379 -101 q 432 -69 406 -69 l 614 -69 q 635 -78 626 -69 q 643 -99 643 -86 q 640 -111 643 -106 l 568 -296 q 550 -323 563 -310 q 513 -336 538 -336 l 376 -336 z "},"Ġ":{"ha":1022,"x_min":58,"x_max":968,"o":"m 510 -14 q 274 28 372 -14 q 119 156 175 71 q 60 365 64 240 q 58 491 58 424 q 60 618 58 558 q 120 821 64 739 q 276 944 176 903 q 510 986 376 986 q 700 961 617 986 q 842 893 783 936 q 933 797 901 850 q 965 686 964 743 q 956 665 965 674 q 935 657 947 657 l 679 657 q 657 661 665 657 q 642 674 649 665 q 620 706 635 688 q 579 737 606 724 q 510 750 553 750 q 408 717 444 750 q 369 611 372 683 q 369 372 365 494 q 410 258 372 293 q 514 222 449 222 q 591 236 557 222 q 644 280 625 250 q 664 357 664 310 l 664 371 l 565 371 q 540 382 550 371 q 529 407 529 393 l 529 536 q 540 562 529 551 q 565 572 550 572 l 931 572 q 957 562 946 572 q 968 536 968 551 l 968 367 q 910 160 968 244 q 749 31 851 75 q 510 -14 646 -14 m 431 1042 q 407 1050 415 1042 q 399 1074 399 1058 l 399 1239 q 407 1262 399 1253 q 431 1271 415 1271 l 596 1271 q 619 1262 610 1271 q 628 1239 628 1253 l 628 1074 q 619 1050 628 1058 q 596 1042 610 1042 l 431 1042 z "},"H":{"ha":1054,"x_min":86,"x_max":967,"o":"m 122 0 q 97 10 108 0 q 86 36 86 19 l 86 936 q 97 962 86 951 q 122 972 108 972 l 349 972 q 374 962 364 972 q 385 936 385 951 l 385 622 l 668 622 l 668 936 q 679 962 668 951 q 704 972 690 972 l 931 972 q 956 962 946 972 q 967 936 967 951 l 967 36 q 956 10 967 21 q 931 0 946 0 l 704 0 q 679 10 690 0 q 668 36 668 21 l 668 358 l 385 358 l 385 36 q 374 10 385 21 q 349 0 364 0 l 122 0 z "},"Ħ":{"ha":1054,"x_min":75,"x_max":979,"o":"m 111 722 q 85 733 96 722 q 75 758 75 743 l 75 838 q 85 864 75 853 q 111 875 96 875 l 943 875 q 969 864 958 875 q 979 838 979 853 l 979 758 q 969 733 979 743 q 943 722 958 722 l 111 722 m 122 0 q 97 10 108 0 q 86 36 86 19 l 86 936 q 97 962 86 951 q 122 972 108 972 l 349 972 q 374 962 364 972 q 385 936 385 951 l 385 622 l 668 622 l 668 936 q 679 962 668 951 q 704 972 690 972 l 931 972 q 956 962 946 972 q 967 936 967 951 l 967 36 q 956 10 967 21 q 931 0 946 0 l 704 0 q 679 10 690 0 q 668 36 668 21 l 668 358 l 385 358 l 385 36 q 374 10 385 21 q 349 0 364 0 l 122 0 z "},"Ĥ":{"ha":1054,"x_min":86,"x_max":967,"o":"m 122 0 q 97 10 108 0 q 86 36 86 19 l 86 936 q 97 962 86 951 q 122 972 108 972 l 349 972 q 374 962 364 972 q 385 936 385 951 l 385 622 l 668 622 l 668 936 q 679 962 668 951 q 704 972 690 972 l 931 972 q 956 962 946 972 q 967 936 967 951 l 967 36 q 956 10 967 21 q 931 0 946 0 l 704 0 q 679 10 690 0 q 668 36 668 21 l 668 358 l 385 358 l 385 36 q 374 10 385 21 q 349 0 364 0 l 122 0 m 265 1042 q 244 1063 244 1042 q 253 1082 244 1074 l 401 1242 q 426 1263 415 1257 q 451 1268 438 1268 l 601 1268 q 626 1263 615 1268 q 651 1242 638 1257 l 800 1082 q 810 1063 810 1074 q 788 1042 810 1042 l 703 1042 q 678 1043 690 1042 q 651 1051 665 1044 l 526 1114 l 401 1051 q 376 1043 389 1044 q 350 1042 363 1042 l 265 1042 z "},"I":{"ha":481,"x_min":86,"x_max":394,"o":"m 122 0 q 97 10 108 0 q 86 36 86 21 l 86 936 q 97 962 86 951 q 122 972 108 972 l 358 972 q 384 962 374 972 q 394 936 394 951 l 394 36 q 384 10 394 21 q 358 0 374 0 l 122 0 z "},"Ĳ":{"ha":1064,"x_min":86,"x_max":986,"o":"m 542 -14 q 516 -3 526 -14 q 506 22 506 7 l 506 208 q 516 234 506 224 q 542 244 526 244 q 644 282 611 244 q 678 403 678 319 l 678 936 q 688 962 678 951 q 714 972 699 972 l 950 972 q 976 962 965 972 q 986 936 986 951 l 986 357 q 933 136 986 218 q 779 20 879 54 q 542 -14 679 -14 m 122 0 q 97 10 108 0 q 86 36 86 21 l 86 936 q 97 962 86 951 q 122 972 108 972 l 358 972 q 384 962 374 972 q 394 936 394 951 l 394 36 q 384 10 394 21 q 358 0 374 0 l 122 0 z "},"Í":{"ha":481,"x_min":86,"x_max":558,"o":"m 122 0 q 97 10 108 0 q 86 36 86 21 l 86 936 q 97 962 86 951 q 122 972 108 972 l 358 972 q 384 962 374 972 q 394 936 394 951 l 394 36 q 384 10 394 21 q 358 0 374 0 l 122 0 m 133 1042 q 111 1064 111 1042 q 118 1082 111 1075 l 249 1242 q 273 1263 263 1258 q 300 1268 283 1268 l 533 1268 q 560 1240 560 1268 q 553 1224 560 1231 l 358 1064 q 335 1048 347 1054 q 303 1042 324 1042 l 133 1042 z "},"Ĭ":{"ha":481,"x_min":11,"x_max":471,"o":"m 122 0 q 97 10 108 0 q 86 36 86 21 l 86 936 q 97 962 86 951 q 122 972 108 972 l 358 972 q 384 962 374 972 q 394 936 394 951 l 394 36 q 384 10 394 21 q 358 0 374 0 l 122 0 m 240 1033 q 110 1061 161 1033 q 35 1135 58 1089 q 11 1240 11 1182 q 18 1259 11 1251 q 38 1267 25 1267 l 153 1267 q 172 1259 165 1267 q 179 1240 179 1251 q 192 1185 179 1208 q 240 1161 204 1161 q 290 1185 278 1161 q 301 1240 301 1208 q 308 1259 301 1251 q 328 1267 315 1267 l 444 1267 q 464 1259 457 1267 q 471 1240 471 1251 q 447 1135 471 1182 q 372 1061 422 1089 q 240 1033 321 1033 z "},"Î":{"ha":481,"x_min":-42,"x_max":524,"o":"m 122 0 q 97 10 108 0 q 86 36 86 21 l 86 936 q 97 962 86 951 q 122 972 108 972 l 358 972 q 384 962 374 972 q 394 936 394 951 l 394 36 q 384 10 394 21 q 358 0 374 0 l 122 0 m -21 1042 q -42 1063 -42 1042 q -33 1082 -42 1074 l 115 1242 q 140 1263 129 1257 q 165 1268 151 1268 l 315 1268 q 340 1263 329 1268 q 365 1242 351 1257 l 514 1082 q 524 1063 524 1074 q 501 1042 524 1042 l 417 1042 q 392 1043 404 1042 q 365 1051 379 1044 l 240 1114 l 115 1051 q 90 1043 103 1044 q 64 1042 76 1042 l -21 1042 z "},"Ï":{"ha":481,"x_min":-43,"x_max":522,"o":"m 122 0 q 97 10 108 0 q 86 36 86 21 l 86 936 q 97 962 86 951 q 122 972 108 972 l 358 972 q 384 962 374 972 q 394 936 394 951 l 394 36 q 384 10 394 21 q 358 0 374 0 l 122 0 m 340 1042 q 318 1050 326 1042 q 310 1074 310 1058 l 310 1224 q 318 1247 310 1238 q 340 1256 326 1256 l 490 1256 q 513 1247 504 1256 q 522 1224 522 1238 l 522 1074 q 513 1050 522 1058 q 490 1042 504 1042 l 340 1042 m -10 1042 q -33 1050 -25 1042 q -42 1074 -42 1058 l -42 1224 q -33 1247 -42 1238 q -10 1256 -25 1256 l 139 1256 q 162 1247 153 1256 q 171 1224 171 1238 l 171 1074 q 162 1050 171 1058 q 139 1042 153 1042 l -10 1042 z "},"İ":{"ha":481,"x_min":86,"x_max":394,"o":"m 122 0 q 97 10 108 0 q 86 36 86 21 l 86 936 q 97 962 86 951 q 122 972 108 972 l 358 972 q 384 962 374 972 q 394 936 394 951 l 394 36 q 384 10 394 21 q 358 0 374 0 l 122 0 m 158 1042 q 135 1050 143 1042 q 126 1074 126 1058 l 126 1239 q 135 1262 126 1253 q 158 1271 143 1271 l 324 1271 q 347 1262 338 1271 q 356 1239 356 1253 l 356 1074 q 347 1050 356 1058 q 324 1042 338 1042 l 158 1042 z "},"Ì":{"ha":481,"x_min":-76,"x_max":394,"o":"m 122 0 q 97 10 108 0 q 86 36 86 21 l 86 936 q 97 962 86 951 q 122 972 108 972 l 358 972 q 384 962 374 972 q 394 936 394 951 l 394 36 q 384 10 394 21 q 358 0 374 0 l 122 0 m 181 1042 q 148 1048 160 1042 q 125 1064 136 1054 l -69 1224 q -76 1240 -76 1231 q -50 1268 -76 1268 l 183 1268 q 210 1263 200 1268 q 235 1242 219 1258 l 365 1082 q 372 1064 372 1075 q 350 1042 372 1042 l 181 1042 z "},"Ī":{"ha":481,"x_min":-31,"x_max":510,"o":"m 122 0 q 97 10 108 0 q 86 36 86 21 l 86 936 q 97 962 86 951 q 122 972 108 972 l 358 972 q 384 962 374 972 q 394 936 394 951 l 394 36 q 384 10 394 21 q 358 0 374 0 l 122 0 m 1 1042 q -22 1050 -14 1042 q -31 1074 -31 1058 l -31 1196 q -22 1219 -31 1211 q 1 1228 -14 1228 l 478 1228 q 501 1219 493 1228 q 510 1196 510 1211 l 510 1074 q 501 1050 510 1058 q 478 1042 493 1042 l 1 1042 z "},"Į":{"ha":485,"x_min":92,"x_max":399,"o":"m 342 -308 q 213 -278 264 -308 q 138 -194 163 -247 q 114 -78 114 -142 q 123 -24 114 -47 q 147 14 132 -1 l 122 17 q 101 27 110 17 q 92 50 92 38 l 92 936 q 102 962 92 951 q 128 972 113 972 l 363 972 q 388 962 378 972 q 399 936 399 951 l 399 36 q 388 10 399 21 q 363 0 378 0 l 347 0 q 288 -25 306 0 q 271 -78 271 -50 q 288 -131 271 -106 q 347 -156 306 -156 l 363 -156 q 388 -166 378 -156 q 399 -192 399 -176 l 399 -272 q 388 -297 399 -286 q 363 -308 378 -308 l 342 -308 z "},"Ĩ":{"ha":481,"x_min":-22,"x_max":501,"o":"m 122 0 q 97 10 108 0 q 86 36 86 21 l 86 936 q 97 962 86 951 q 122 972 108 972 l 358 972 q 384 962 374 972 q 394 936 394 951 l 394 36 q 384 10 394 21 q 358 0 374 0 l 122 0 m 329 1035 q 263 1047 289 1035 q 217 1072 238 1060 q 171 1085 196 1085 q 141 1074 150 1085 q 125 1053 132 1064 q 103 1042 118 1042 l 3 1042 q -15 1049 -7 1042 q -22 1067 -22 1057 q -14 1122 -22 1089 q 14 1188 -6 1156 q 67 1242 33 1221 q 150 1264 100 1264 q 216 1251 190 1264 q 263 1226 242 1239 q 308 1214 283 1214 q 338 1225 329 1214 q 353 1247 346 1236 q 376 1257 361 1257 l 476 1257 q 495 1249 489 1257 q 501 1232 501 1242 q 493 1176 501 1208 q 465 1110 485 1143 q 413 1056 446 1078 q 329 1035 379 1035 z "},"J":{"ha":953,"x_min":24,"x_max":875,"o":"m 444 -14 q 286 8 361 -14 q 152 71 211 29 q 59 174 93 113 q 24 315 25 235 q 32 337 24 328 q 53 346 40 346 l 289 346 q 322 336 311 346 q 340 304 332 326 q 365 258 350 276 q 401 231 379 239 q 453 222 424 222 q 537 257 507 222 q 567 367 567 292 l 567 728 l 135 728 q 109 738 119 728 q 99 764 99 749 l 99 936 q 109 962 99 951 q 135 972 119 972 l 839 972 q 865 962 854 972 q 875 936 875 951 l 875 357 q 819 151 875 233 q 665 27 763 68 q 444 -14 567 -14 z "},"Ĵ":{"ha":953,"x_min":24,"x_max":875,"o":"m 444 -14 q 286 8 361 -14 q 152 71 211 29 q 59 174 93 113 q 24 315 25 235 q 32 337 24 328 q 53 346 40 346 l 289 346 q 322 336 311 346 q 340 304 332 326 q 365 258 350 276 q 401 231 379 239 q 453 222 424 222 q 537 257 507 222 q 567 367 567 292 l 567 728 l 135 728 q 109 738 119 728 q 99 764 99 749 l 99 936 q 109 962 99 951 q 135 972 119 972 l 839 972 q 865 962 854 972 q 875 936 875 951 l 875 357 q 819 151 875 233 q 665 27 763 68 q 444 -14 567 -14 m 236 1042 q 215 1063 215 1042 q 224 1082 215 1074 l 372 1242 q 397 1263 386 1257 q 422 1268 408 1268 l 572 1268 q 597 1263 586 1268 q 622 1242 608 1257 l 771 1082 q 781 1063 781 1074 q 758 1042 781 1042 l 674 1042 q 649 1043 661 1042 q 622 1051 636 1044 l 497 1114 l 372 1051 q 347 1043 360 1044 q 321 1042 333 1042 l 236 1042 z "},"K":{"ha":957,"x_min":86,"x_max":950,"o":"m 122 0 q 97 10 108 0 q 86 36 86 21 l 86 936 q 97 962 86 951 q 122 972 108 972 l 343 972 q 369 962 358 972 q 379 936 379 951 l 379 644 l 586 943 q 606 963 593 953 q 640 972 618 972 l 894 972 q 916 963 907 972 q 925 942 925 954 q 919 926 925 933 l 628 507 l 944 46 q 950 31 950 40 q 941 9 950 18 q 919 0 932 0 l 658 0 q 617 13 631 0 q 601 31 604 25 l 379 353 l 379 36 q 369 10 379 21 q 343 0 358 0 l 122 0 z "},"Ķ":{"ha":957,"x_min":86,"x_max":950,"o":"m 122 0 q 97 10 108 0 q 86 36 86 21 l 86 936 q 97 962 86 951 q 122 972 108 972 l 343 972 q 369 962 358 972 q 379 936 379 951 l 379 644 l 586 943 q 606 963 593 953 q 640 972 618 972 l 894 972 q 916 963 907 972 q 925 942 925 954 q 919 926 925 933 l 628 507 l 944 46 q 950 31 950 40 q 941 9 950 18 q 919 0 932 0 l 658 0 q 617 13 631 0 q 601 31 604 25 l 379 353 l 379 36 q 369 10 379 21 q 343 0 358 0 l 122 0 m 344 -336 q 325 -328 333 -336 q 317 -307 317 -319 l 344 -121 q 360 -85 347 -101 q 400 -69 374 -69 l 582 -69 q 603 -78 594 -69 q 611 -99 611 -86 q 608 -111 611 -106 l 536 -296 q 518 -323 531 -310 q 481 -336 506 -336 l 344 -336 z "},"L":{"ha":849,"x_min":86,"x_max":829,"o":"m 122 0 q 97 10 108 0 q 86 36 86 21 l 86 936 q 97 962 86 951 q 122 972 108 972 l 353 972 q 379 962 368 972 q 390 936 390 951 l 390 247 l 792 247 q 818 237 807 247 q 829 211 829 226 l 829 36 q 818 10 829 21 q 792 0 807 0 l 122 0 z "},"Ĺ":{"ha":849,"x_min":86,"x_max":829,"o":"m 122 0 q 97 10 108 0 q 86 36 86 21 l 86 936 q 97 962 86 951 q 122 972 108 972 l 353 972 q 379 962 368 972 q 390 936 390 951 l 390 247 l 792 247 q 818 237 807 247 q 829 211 829 226 l 829 36 q 818 10 829 21 q 792 0 807 0 l 122 0 m 119 1042 q 97 1064 97 1042 q 104 1082 97 1075 l 235 1242 q 259 1263 249 1258 q 286 1268 269 1268 l 519 1268 q 546 1240 546 1268 q 539 1224 546 1231 l 344 1064 q 322 1048 333 1054 q 289 1042 310 1042 l 119 1042 z "},"Ľ":{"ha":849,"x_min":86,"x_max":829,"o":"m 122 0 q 97 10 108 0 q 86 36 86 21 l 86 936 q 97 962 86 951 q 122 972 108 972 l 353 972 q 379 962 368 972 q 390 936 390 951 l 390 247 l 792 247 q 818 237 807 247 q 829 211 829 226 l 829 36 q 818 10 829 21 q 792 0 807 0 l 122 0 m 531 646 q 510 654 518 646 q 503 675 501 663 l 531 861 q 547 897 533 881 q 585 913 560 913 l 756 913 q 775 904 767 913 q 783 883 783 896 q 782 871 783 876 l 710 686 q 692 659 704 672 q 654 646 679 646 l 531 646 z "},"Ļ":{"ha":849,"x_min":86,"x_max":829,"o":"m 122 0 q 97 10 108 0 q 86 36 86 21 l 86 936 q 97 962 86 951 q 122 972 108 972 l 353 972 q 379 962 368 972 q 390 936 390 951 l 390 247 l 792 247 q 818 237 807 247 q 829 211 829 226 l 829 36 q 818 10 829 21 q 792 0 807 0 l 122 0 m 294 -336 q 275 -328 283 -336 q 267 -307 267 -319 l 294 -121 q 310 -85 297 -101 q 350 -69 324 -69 l 532 -69 q 553 -78 544 -69 q 561 -99 561 -86 q 558 -111 561 -106 l 486 -296 q 468 -323 481 -310 q 431 -336 456 -336 l 294 -336 z "},"Ŀ":{"ha":856,"x_min":86,"x_max":829,"o":"m 122 0 q 97 10 108 0 q 86 36 86 21 l 86 936 q 97 962 86 951 q 122 972 108 972 l 353 972 q 379 962 368 972 q 390 936 390 951 l 390 247 l 792 247 q 818 237 807 247 q 829 211 829 226 l 829 36 q 818 10 829 21 q 792 0 807 0 l 122 0 m 582 432 q 559 441 568 432 q 550 464 550 450 l 550 625 q 559 648 550 639 q 582 657 568 657 l 743 657 q 766 648 757 657 q 775 625 775 639 l 775 464 q 766 441 775 450 q 743 432 757 432 l 582 432 z "},"Ł":{"ha":860,"x_min":18,"x_max":840,"o":"m 133 0 q 108 10 119 0 q 97 36 97 21 l 97 331 l 63 317 q 46 313 53 313 q 26 320 35 313 q 18 340 18 328 l 18 468 q 25 496 18 486 q 49 511 32 506 l 97 531 l 97 936 q 108 962 97 951 q 133 972 119 972 l 364 972 q 390 962 379 972 q 401 936 401 951 l 401 650 l 603 729 q 618 733 614 733 q 639 725 631 733 q 647 704 647 717 l 647 578 q 640 550 647 560 q 617 533 633 540 l 401 450 l 401 247 l 803 247 q 829 237 818 247 q 840 211 840 226 l 840 36 q 829 10 840 21 q 803 0 818 0 l 133 0 z "},"M":{"ha":1169,"x_min":86,"x_max":1082,"o":"m 124 0 q 97 10 108 0 q 86 36 86 21 l 86 936 q 97 962 86 951 q 124 972 108 972 l 308 972 q 346 958 333 972 q 363 939 358 944 l 585 553 l 807 939 q 824 958 811 944 q 861 972 836 972 l 1046 972 q 1072 962 1061 972 q 1082 936 1082 951 l 1082 36 q 1072 10 1082 21 q 1046 0 1061 0 l 838 0 q 812 10 822 0 q 801 36 801 21 l 801 486 l 676 267 q 658 244 669 256 q 626 233 647 233 l 542 233 q 511 244 522 233 q 493 267 500 256 l 368 486 l 368 36 q 358 10 368 21 q 332 0 347 0 l 124 0 z "},"N":{"ha":1014,"x_min":86,"x_max":926,"o":"m 122 0 q 97 10 108 0 q 86 36 86 21 l 86 936 q 97 962 86 951 q 122 972 108 972 l 307 972 q 343 961 332 972 q 358 943 354 950 l 644 483 l 644 936 q 656 962 644 951 q 682 972 667 972 l 890 972 q 916 962 906 972 q 926 936 926 951 l 926 36 q 916 10 926 21 q 890 0 906 0 l 707 0 q 670 12 682 0 q 654 29 658 24 l 368 464 l 368 36 q 358 10 368 21 q 332 0 347 0 l 122 0 z "},"Ń":{"ha":1014,"x_min":86,"x_max":926,"o":"m 122 0 q 97 10 108 0 q 86 36 86 21 l 86 936 q 97 962 86 951 q 122 972 108 972 l 307 972 q 343 961 332 972 q 358 943 354 950 l 644 483 l 644 936 q 656 962 644 951 q 682 972 667 972 l 890 972 q 916 962 906 972 q 926 936 926 951 l 926 36 q 916 10 926 21 q 890 0 906 0 l 707 0 q 670 12 682 0 q 654 29 658 24 l 368 464 l 368 36 q 358 10 368 21 q 332 0 347 0 l 122 0 m 399 1042 q 376 1064 376 1042 q 383 1082 376 1075 l 514 1242 q 538 1263 528 1258 q 565 1268 549 1268 l 799 1268 q 825 1240 825 1268 q 818 1224 825 1231 l 624 1064 q 601 1048 613 1054 q 568 1042 589 1042 l 399 1042 z "},"Ň":{"ha":1014,"x_min":86,"x_max":926,"o":"m 122 0 q 97 10 108 0 q 86 36 86 21 l 86 936 q 97 962 86 951 q 122 972 108 972 l 307 972 q 343 961 332 972 q 358 943 354 950 l 644 483 l 644 936 q 656 962 644 951 q 682 972 667 972 l 890 972 q 916 962 906 972 q 926 936 926 951 l 926 36 q 916 10 926 21 q 890 0 906 0 l 707 0 q 670 12 682 0 q 654 29 658 24 l 368 464 l 368 36 q 358 10 368 21 q 332 0 347 0 l 122 0 m 432 1042 q 407 1047 418 1042 q 382 1067 396 1053 l 233 1226 q 225 1246 225 1235 q 246 1268 225 1268 l 331 1268 q 356 1266 343 1268 q 382 1258 369 1264 l 507 1194 l 632 1258 q 658 1266 646 1264 q 683 1268 671 1268 l 768 1268 q 790 1246 790 1268 q 781 1226 790 1235 l 632 1067 q 607 1047 618 1053 q 582 1042 596 1042 l 432 1042 z "},"Ņ":{"ha":1014,"x_min":86,"x_max":926,"o":"m 122 0 q 97 10 108 0 q 86 36 86 21 l 86 936 q 97 962 86 951 q 122 972 108 972 l 307 972 q 343 961 332 972 q 358 943 354 950 l 644 483 l 644 936 q 656 962 644 951 q 682 972 667 972 l 890 972 q 916 962 906 972 q 926 936 926 951 l 926 36 q 916 10 926 21 q 890 0 906 0 l 707 0 q 670 12 682 0 q 654 29 658 24 l 368 464 l 368 36 q 358 10 368 21 q 332 0 347 0 l 122 0 m 372 -336 q 353 -328 361 -336 q 344 -307 344 -319 l 372 -121 q 388 -85 375 -101 q 428 -69 401 -69 l 610 -69 q 631 -78 622 -69 q 639 -99 639 -86 q 636 -111 639 -106 l 564 -296 q 546 -323 558 -310 q 508 -336 533 -336 l 372 -336 z "},"Ñ":{"ha":1014,"x_min":86,"x_max":926,"o":"m 122 0 q 97 10 108 0 q 86 36 86 21 l 86 936 q 97 962 86 951 q 122 972 108 972 l 307 972 q 343 961 332 972 q 358 943 354 950 l 644 483 l 644 936 q 656 962 644 951 q 682 972 667 972 l 890 972 q 916 962 906 972 q 926 936 926 951 l 926 36 q 916 10 926 21 q 890 0 906 0 l 707 0 q 670 12 682 0 q 654 29 658 24 l 368 464 l 368 36 q 358 10 368 21 q 332 0 347 0 l 122 0 m 596 1035 q 530 1047 556 1035 q 483 1072 504 1060 q 438 1085 463 1085 q 408 1074 417 1085 q 392 1053 399 1064 q 369 1042 385 1042 l 269 1042 q 252 1049 260 1042 q 244 1067 244 1057 q 253 1122 244 1089 q 281 1188 261 1156 q 333 1242 300 1221 q 417 1264 367 1264 q 483 1251 457 1264 q 529 1226 508 1239 q 575 1214 550 1214 q 604 1225 596 1214 q 620 1247 613 1236 q 643 1257 628 1257 l 743 1257 q 762 1249 756 1257 q 768 1232 768 1242 q 760 1176 768 1208 q 732 1110 751 1143 q 679 1056 713 1078 q 596 1035 646 1035 z "},"Ŋ":{"ha":1014,"x_min":86,"x_max":926,"o":"m 500 -312 q 474 -302 485 -312 q 464 -276 464 -292 l 464 -104 q 474 -78 464 -89 q 500 -68 485 -68 l 547 -68 q 603 -56 582 -68 q 634 -22 624 -43 q 644 26 644 -1 l 644 44 l 368 464 l 368 36 q 358 10 368 21 q 332 0 347 0 l 122 0 q 97 10 108 0 q 86 36 86 21 l 86 936 q 97 962 86 951 q 122 972 108 972 l 307 972 q 343 961 332 972 q 358 943 354 950 l 644 483 l 644 936 q 656 962 644 951 q 682 972 667 972 l 890 972 q 916 962 906 972 q 926 936 926 951 l 926 14 q 874 -167 926 -93 q 731 -276 822 -240 q 519 -312 639 -312 l 500 -312 z "},"O":{"ha":1010,"x_min":58,"x_max":953,"o":"m 506 -14 q 274 28 372 -14 q 120 153 176 69 q 60 363 64 238 q 58 483 58 421 q 60 606 58 544 q 120 814 64 729 q 275 942 176 899 q 506 986 374 986 q 735 942 636 986 q 890 814 833 899 q 950 606 947 729 q 953 483 953 544 q 950 363 953 421 q 890 153 946 238 q 735 28 833 69 q 506 -14 638 -14 m 506 222 q 601 258 564 222 q 640 371 639 293 q 643 487 643 431 q 640 601 643 543 q 622 686 639 653 q 574 735 604 719 q 506 750 544 750 q 436 735 467 750 q 388 686 406 719 q 369 601 371 653 q 368 487 368 543 q 369 371 368 431 q 409 258 372 293 q 506 222 446 222 z "},"Ó":{"ha":1010,"x_min":58,"x_max":953,"o":"m 506 -14 q 274 28 372 -14 q 120 153 176 69 q 60 363 64 238 q 58 483 58 421 q 60 606 58 544 q 120 814 64 729 q 275 942 176 899 q 506 986 374 986 q 735 942 636 986 q 890 814 833 899 q 950 606 947 729 q 953 483 953 544 q 950 363 953 421 q 890 153 946 238 q 735 28 833 69 q 506 -14 638 -14 m 506 222 q 601 258 564 222 q 640 371 639 293 q 643 487 643 431 q 640 601 643 543 q 622 686 639 653 q 574 735 604 719 q 506 750 544 750 q 436 735 467 750 q 388 686 406 719 q 369 601 371 653 q 368 487 368 543 q 369 371 368 431 q 409 258 372 293 q 506 222 446 222 m 397 1042 q 375 1064 375 1042 q 382 1082 375 1075 l 513 1242 q 537 1263 526 1258 q 564 1268 547 1268 l 797 1268 q 824 1240 824 1268 q 817 1224 824 1231 l 622 1064 q 599 1048 611 1054 q 567 1042 588 1042 l 397 1042 z "},"Ŏ":{"ha":1010,"x_min":58,"x_max":953,"o":"m 506 -14 q 274 28 372 -14 q 120 153 176 69 q 60 363 64 238 q 58 483 58 421 q 60 606 58 544 q 120 814 64 729 q 275 942 176 899 q 506 986 374 986 q 735 942 636 986 q 890 814 833 899 q 950 606 947 729 q 953 483 953 544 q 950 363 953 421 q 890 153 946 238 q 735 28 833 69 q 506 -14 638 -14 m 506 222 q 601 258 564 222 q 640 371 639 293 q 643 487 643 431 q 640 601 643 543 q 622 686 639 653 q 574 735 604 719 q 506 750 544 750 q 436 735 467 750 q 388 686 406 719 q 369 601 371 653 q 368 487 368 543 q 369 371 368 431 q 409 258 372 293 q 506 222 446 222 m 504 1033 q 374 1061 425 1033 q 299 1135 322 1089 q 275 1240 275 1182 q 282 1259 275 1251 q 301 1267 289 1267 l 417 1267 q 436 1259 429 1267 q 443 1240 443 1251 q 456 1185 443 1208 q 504 1161 468 1161 q 553 1185 542 1161 q 565 1240 565 1208 q 572 1259 565 1251 q 592 1267 579 1267 l 708 1267 q 728 1259 721 1267 q 735 1240 735 1251 q 710 1135 735 1182 q 635 1061 686 1089 q 504 1033 585 1033 z "},"Ô":{"ha":1010,"x_min":58,"x_max":953,"o":"m 506 -14 q 274 28 372 -14 q 120 153 176 69 q 60 363 64 238 q 58 483 58 421 q 60 606 58 544 q 120 814 64 729 q 275 942 176 899 q 506 986 374 986 q 735 942 636 986 q 890 814 833 899 q 950 606 947 729 q 953 483 953 544 q 950 363 953 421 q 890 153 946 238 q 735 28 833 69 q 506 -14 638 -14 m 506 222 q 601 258 564 222 q 640 371 639 293 q 643 487 643 431 q 640 601 643 543 q 622 686 639 653 q 574 735 604 719 q 506 750 544 750 q 436 735 467 750 q 388 686 406 719 q 369 601 371 653 q 368 487 368 543 q 369 371 368 431 q 409 258 372 293 q 506 222 446 222 m 243 1042 q 222 1063 222 1042 q 231 1082 222 1074 l 379 1242 q 404 1263 393 1257 q 429 1268 415 1268 l 579 1268 q 604 1263 593 1268 q 629 1242 615 1257 l 778 1082 q 788 1063 788 1074 q 765 1042 788 1042 l 681 1042 q 656 1043 668 1042 q 629 1051 643 1044 l 504 1114 l 379 1051 q 353 1043 367 1044 q 328 1042 340 1042 l 243 1042 z "},"Ö":{"ha":1010,"x_min":58,"x_max":953,"o":"m 506 -14 q 274 28 372 -14 q 120 153 176 69 q 60 363 64 238 q 58 483 58 421 q 60 606 58 544 q 120 814 64 729 q 275 942 176 899 q 506 986 374 986 q 735 942 636 986 q 890 814 833 899 q 950 606 947 729 q 953 483 953 544 q 950 363 953 421 q 890 153 946 238 q 735 28 833 69 q 506 -14 638 -14 m 506 222 q 601 258 564 222 q 640 371 639 293 q 643 487 643 431 q 640 601 643 543 q 622 686 639 653 q 574 735 604 719 q 506 750 544 750 q 436 735 467 750 q 388 686 406 719 q 369 601 371 653 q 368 487 368 543 q 369 371 368 431 q 409 258 372 293 q 506 222 446 222 m 604 1042 q 582 1050 590 1042 q 574 1074 574 1058 l 574 1224 q 582 1247 574 1238 q 604 1256 590 1256 l 754 1256 q 777 1247 768 1256 q 786 1224 786 1238 l 786 1074 q 777 1050 786 1058 q 754 1042 768 1042 l 604 1042 m 254 1042 q 231 1050 239 1042 q 222 1074 222 1058 l 222 1224 q 231 1247 222 1238 q 254 1256 239 1256 l 403 1256 q 426 1247 417 1256 q 435 1224 435 1238 l 435 1074 q 426 1050 435 1058 q 403 1042 417 1042 l 254 1042 z "},"Ò":{"ha":1010,"x_min":58,"x_max":953,"o":"m 506 -14 q 274 28 372 -14 q 120 153 176 69 q 60 363 64 238 q 58 483 58 421 q 60 606 58 544 q 120 814 64 729 q 275 942 176 899 q 506 986 374 986 q 735 942 636 986 q 890 814 833 899 q 950 606 947 729 q 953 483 953 544 q 950 363 953 421 q 890 153 946 238 q 735 28 833 69 q 506 -14 638 -14 m 506 222 q 601 258 564 222 q 640 371 639 293 q 643 487 643 431 q 640 601 643 543 q 622 686 639 653 q 574 735 604 719 q 506 750 544 750 q 436 735 467 750 q 388 686 406 719 q 369 601 371 653 q 368 487 368 543 q 369 371 368 431 q 409 258 372 293 q 506 222 446 222 m 444 1042 q 412 1048 424 1042 q 389 1064 400 1054 l 194 1224 q 188 1240 188 1231 q 214 1268 188 1268 l 447 1268 q 474 1263 464 1268 q 499 1242 483 1258 l 629 1082 q 636 1064 636 1075 q 614 1042 636 1042 l 444 1042 z "},"Ő":{"ha":1010,"x_min":58,"x_max":953,"o":"m 506 -14 q 274 28 372 -14 q 120 153 176 69 q 60 363 64 238 q 58 483 58 421 q 60 606 58 544 q 120 814 64 729 q 275 942 176 899 q 506 986 374 986 q 735 942 636 986 q 890 814 833 899 q 950 606 947 729 q 953 483 953 544 q 950 363 953 421 q 890 153 946 238 q 735 28 833 69 q 506 -14 638 -14 m 506 222 q 601 258 564 222 q 640 371 639 293 q 643 487 643 431 q 640 601 643 543 q 622 686 639 653 q 574 735 604 719 q 506 750 544 750 q 436 735 467 750 q 388 686 406 719 q 369 601 371 653 q 368 487 368 543 q 369 371 368 431 q 409 258 372 293 q 506 222 446 222 m 603 1042 q 581 1064 581 1042 q 583 1075 581 1069 q 588 1085 586 1081 l 657 1242 q 708 1268 669 1268 l 896 1268 q 924 1242 924 1268 q 915 1224 924 1232 l 768 1061 q 722 1042 751 1042 l 603 1042 m 288 1042 q 265 1064 265 1042 q 268 1075 265 1069 q 272 1085 271 1081 l 342 1242 q 393 1268 354 1268 l 581 1268 q 608 1242 608 1268 q 600 1224 608 1232 l 454 1061 q 407 1042 438 1042 l 288 1042 z "},"Ō":{"ha":1010,"x_min":58,"x_max":953,"o":"m 506 -14 q 274 28 372 -14 q 120 153 176 69 q 60 363 64 238 q 58 483 58 421 q 60 606 58 544 q 120 814 64 729 q 275 942 176 899 q 506 986 374 986 q 735 942 636 986 q 890 814 833 899 q 950 606 947 729 q 953 483 953 544 q 950 363 953 421 q 890 153 946 238 q 735 28 833 69 q 506 -14 638 -14 m 506 222 q 601 258 564 222 q 640 371 639 293 q 643 487 643 431 q 640 601 643 543 q 622 686 639 653 q 574 735 604 719 q 506 750 544 750 q 436 735 467 750 q 388 686 406 719 q 369 601 371 653 q 368 487 368 543 q 369 371 368 431 q 409 258 372 293 q 506 222 446 222 m 267 1042 q 243 1050 251 1042 q 235 1074 235 1058 l 235 1196 q 243 1219 235 1211 q 267 1228 251 1228 l 743 1228 q 767 1219 758 1228 q 775 1196 775 1211 l 775 1074 q 767 1050 775 1058 q 743 1042 758 1042 l 267 1042 z "},"Ø":{"ha":1010,"x_min":58,"x_max":953,"o":"m 506 -14 q 274 28 372 -14 q 120 153 176 69 q 60 363 64 238 q 58 483 58 421 q 60 606 58 544 q 120 814 64 729 q 275 942 176 899 q 506 986 374 986 q 735 942 636 986 q 890 814 833 899 q 950 606 947 729 q 953 483 953 544 q 950 363 953 421 q 890 153 946 238 q 735 28 833 69 q 506 -14 638 -14 m 506 222 q 601 258 564 222 q 640 371 639 293 q 643 487 643 431 q 640 601 643 543 q 622 686 639 653 q 574 735 604 719 q 506 750 544 750 q 436 735 467 750 q 388 686 406 719 q 369 601 371 653 q 368 487 368 543 q 369 371 368 431 q 409 258 372 293 q 506 222 446 222 m 113 -90 q 88 -74 96 -90 q 94 -37 81 -58 l 813 1043 q 823 1055 815 1047 q 844 1063 831 1063 l 900 1063 q 924 1046 918 1063 q 919 1013 931 1029 l 199 -69 q 188 -82 196 -74 q 165 -90 181 -90 l 113 -90 z "},"Ǿ":{"ha":1010,"x_min":58,"x_max":953,"o":"m 506 -14 q 274 28 372 -14 q 120 153 176 69 q 60 363 64 238 q 58 483 58 421 q 60 606 58 544 q 120 814 64 729 q 275 942 176 899 q 506 986 374 986 q 735 942 636 986 q 890 814 833 899 q 950 606 947 729 q 953 483 953 544 q 950 363 953 421 q 890 153 946 238 q 735 28 833 69 q 506 -14 638 -14 m 506 222 q 601 258 564 222 q 640 371 639 293 q 643 487 643 431 q 640 601 643 543 q 622 686 639 653 q 574 735 604 719 q 506 750 544 750 q 436 735 467 750 q 388 686 406 719 q 369 601 371 653 q 368 487 368 543 q 369 371 368 431 q 409 258 372 293 q 506 222 446 222 m 113 -90 q 88 -74 96 -90 q 94 -37 81 -58 l 813 1043 q 823 1055 815 1047 q 844 1063 831 1063 l 900 1063 q 924 1046 918 1063 q 919 1013 931 1029 l 199 -69 q 188 -82 196 -74 q 165 -90 181 -90 l 113 -90 m 397 1042 q 375 1064 375 1042 q 382 1082 375 1075 l 513 1242 q 537 1263 526 1258 q 564 1268 547 1268 l 797 1268 q 824 1240 824 1268 q 817 1224 824 1231 l 622 1064 q 599 1048 611 1054 q 567 1042 588 1042 l 397 1042 z "},"Õ":{"ha":1010,"x_min":58,"x_max":953,"o":"m 506 -14 q 274 28 372 -14 q 120 153 176 69 q 60 363 64 238 q 58 483 58 421 q 60 606 58 544 q 120 814 64 729 q 275 942 176 899 q 506 986 374 986 q 735 942 636 986 q 890 814 833 899 q 950 606 947 729 q 953 483 953 544 q 950 363 953 421 q 890 153 946 238 q 735 28 833 69 q 506 -14 638 -14 m 506 222 q 601 258 564 222 q 640 371 639 293 q 643 487 643 431 q 640 601 643 543 q 622 686 639 653 q 574 735 604 719 q 506 750 544 750 q 436 735 467 750 q 388 686 406 719 q 369 601 371 653 q 368 487 368 543 q 369 371 368 431 q 409 258 372 293 q 506 222 446 222 m 594 1035 q 528 1047 554 1035 q 482 1072 503 1060 q 436 1085 461 1085 q 406 1074 415 1085 q 390 1053 397 1064 q 368 1042 383 1042 l 268 1042 q 251 1049 258 1042 q 243 1067 243 1057 q 251 1122 243 1089 q 279 1188 260 1156 q 332 1242 299 1221 q 415 1264 365 1264 q 481 1251 456 1264 q 528 1226 507 1239 q 574 1214 549 1214 q 603 1225 594 1214 q 619 1247 611 1236 q 642 1257 626 1257 l 742 1257 q 760 1249 754 1257 q 767 1232 767 1242 q 758 1176 767 1208 q 731 1110 750 1143 q 678 1056 711 1078 q 594 1035 644 1035 z "},"Œ":{"ha":1365,"x_min":57,"x_max":1308,"o":"m 500 0 q 269 41 367 0 q 117 167 171 82 q 58 382 63 251 q 57 486 57 440 q 58 592 57 532 q 119 800 63 715 q 275 928 175 885 q 507 972 375 972 l 1261 972 q 1287 962 1276 972 q 1297 936 1297 951 l 1297 772 q 1287 747 1297 758 q 1261 736 1276 736 l 864 736 l 864 599 l 1231 599 q 1256 588 1246 599 q 1267 563 1267 578 l 1267 413 q 1256 387 1267 397 q 1231 376 1246 376 l 864 376 l 864 236 l 1272 236 q 1298 225 1288 236 q 1308 199 1308 214 l 1308 36 q 1298 10 1308 21 q 1272 0 1288 0 l 500 0 m 507 236 l 578 236 l 578 736 l 514 736 q 404 701 444 736 q 361 590 364 667 q 359 519 360 551 q 359 456 358 488 q 361 383 360 424 q 381 299 364 332 q 430 251 399 267 q 507 236 461 236 z "},"P":{"ha":960,"x_min":86,"x_max":928,"o":"m 122 0 q 97 10 108 0 q 86 36 86 21 l 86 936 q 97 962 86 951 q 122 972 108 972 l 528 972 q 738 936 649 972 q 878 826 828 900 q 928 642 928 753 q 878 459 928 531 q 738 354 828 388 q 528 321 649 321 l 396 321 l 396 36 q 385 10 396 21 q 360 0 375 0 l 122 0 m 390 544 l 521 544 q 590 569 561 544 q 618 644 618 593 q 596 716 618 685 q 521 747 574 747 l 390 747 l 390 544 z "},"Þ":{"ha":961,"x_min":86,"x_max":928,"o":"m 122 0 q 97 10 108 0 q 86 36 86 21 l 86 936 q 97 962 86 951 q 122 972 108 972 l 360 972 q 385 962 375 972 q 396 936 396 951 l 396 824 l 522 824 q 737 788 646 824 q 878 678 828 751 q 928 493 928 604 q 878 310 928 382 q 737 206 828 239 q 522 172 646 172 l 396 172 l 396 36 q 385 10 396 21 q 360 0 375 0 l 122 0 m 390 396 l 521 396 q 590 420 561 396 q 618 496 618 444 q 596 566 618 535 q 521 597 574 597 l 390 597 l 390 396 z "},"Q":{"ha":1010,"x_min":57,"x_max":961,"o":"m 704 -90 q 668 -78 681 -90 q 649 -58 656 -67 l 606 -3 q 504 -14 560 -14 q 274 28 372 -14 q 119 153 175 69 q 58 363 64 238 q 57 483 57 421 q 58 606 57 544 q 119 814 64 729 q 274 942 175 899 q 504 986 372 986 q 733 942 635 986 q 889 814 832 899 q 950 606 946 729 q 953 483 953 544 q 950 363 953 421 q 849 104 942 199 l 956 -47 q 958 -53 957 -49 q 960 -60 960 -57 q 952 -81 961 -72 q 932 -90 943 -90 l 704 -90 m 504 222 q 601 258 564 222 q 640 371 638 293 q 643 487 643 431 q 640 601 643 543 q 620 686 638 653 q 573 735 603 719 q 504 750 543 750 q 435 735 465 750 q 388 686 406 719 q 368 601 369 653 q 367 487 367 543 q 368 371 367 431 q 408 258 371 293 q 504 222 444 222 z "},"R":{"ha":982,"x_min":86,"x_max":946,"o":"m 122 0 q 97 10 108 0 q 86 36 86 21 l 86 936 q 97 962 86 951 q 122 972 108 972 l 518 972 q 815 886 707 972 q 922 646 922 800 q 878 481 922 549 q 761 374 833 413 l 942 46 q 946 31 946 38 q 938 9 946 18 q 917 0 929 0 l 682 0 q 642 13 656 0 q 624 38 628 26 l 485 324 l 385 324 l 385 36 q 374 10 385 21 q 349 0 364 0 l 122 0 m 385 553 l 517 553 q 589 580 565 553 q 613 647 613 607 q 590 718 613 689 q 517 747 567 747 l 385 747 l 385 553 z "},"Ŕ":{"ha":982,"x_min":86,"x_max":946,"o":"m 122 0 q 97 10 108 0 q 86 36 86 21 l 86 936 q 97 962 86 951 q 122 972 108 972 l 518 972 q 815 886 707 972 q 922 646 922 800 q 878 481 922 549 q 761 374 833 413 l 942 46 q 946 31 946 38 q 938 9 946 18 q 917 0 929 0 l 682 0 q 642 13 656 0 q 624 38 628 26 l 485 324 l 385 324 l 385 36 q 374 10 385 21 q 349 0 364 0 l 122 0 m 385 553 l 517 553 q 589 580 565 553 q 613 647 613 607 q 590 718 613 689 q 517 747 567 747 l 385 747 l 385 553 m 356 1042 q 333 1064 333 1042 q 340 1082 333 1075 l 471 1242 q 495 1263 485 1258 q 522 1268 506 1268 l 756 1268 q 782 1240 782 1268 q 775 1224 782 1231 l 581 1064 q 558 1048 569 1054 q 525 1042 546 1042 l 356 1042 z "},"Ř":{"ha":982,"x_min":86,"x_max":946,"o":"m 122 0 q 97 10 108 0 q 86 36 86 21 l 86 936 q 97 962 86 951 q 122 972 108 972 l 518 972 q 815 886 707 972 q 922 646 922 800 q 878 481 922 549 q 761 374 833 413 l 942 46 q 946 31 946 38 q 938 9 946 18 q 917 0 929 0 l 682 0 q 642 13 656 0 q 624 38 628 26 l 485 324 l 385 324 l 385 36 q 374 10 385 21 q 349 0 364 0 l 122 0 m 385 553 l 517 553 q 589 580 565 553 q 613 647 613 607 q 590 718 613 689 q 517 747 567 747 l 385 747 l 385 553 m 388 1042 q 363 1047 374 1042 q 338 1067 351 1053 l 189 1226 q 181 1246 181 1235 q 201 1268 181 1268 l 286 1268 q 312 1266 299 1268 q 338 1258 325 1264 l 463 1194 l 588 1258 q 614 1266 601 1264 q 639 1268 626 1268 l 724 1268 q 746 1246 746 1268 q 736 1226 746 1235 l 588 1067 q 563 1047 574 1053 q 538 1042 551 1042 l 388 1042 z "},"Ŗ":{"ha":982,"x_min":86,"x_max":946,"o":"m 122 0 q 97 10 108 0 q 86 36 86 21 l 86 936 q 97 962 86 951 q 122 972 108 972 l 518 972 q 815 886 707 972 q 922 646 922 800 q 878 481 922 549 q 761 374 833 413 l 942 46 q 946 31 946 38 q 938 9 946 18 q 917 0 929 0 l 682 0 q 642 13 656 0 q 624 38 628 26 l 485 324 l 385 324 l 385 36 q 374 10 385 21 q 349 0 364 0 l 122 0 m 385 553 l 517 553 q 589 580 565 553 q 613 647 613 607 q 590 718 613 689 q 517 747 567 747 l 385 747 l 385 553 m 361 -336 q 342 -328 350 -336 q 333 -307 333 -319 l 361 -121 q 377 -85 364 -101 q 417 -69 390 -69 l 599 -69 q 619 -78 611 -69 q 628 -99 628 -86 q 625 -111 628 -106 l 553 -296 q 535 -323 547 -310 q 497 -336 522 -336 l 361 -336 z "},"S":{"ha":944,"x_min":33,"x_max":911,"o":"m 471 -14 q 228 27 325 -14 q 84 134 132 68 q 33 274 36 200 q 42 294 33 286 q 63 303 50 303 l 283 303 q 314 297 303 303 q 338 279 325 290 q 367 251 350 264 q 410 230 383 238 q 471 222 436 222 q 569 240 535 222 q 604 288 604 257 q 585 326 604 311 q 522 354 567 342 q 401 381 478 367 q 217 434 294 399 q 98 530 139 469 q 57 679 57 590 q 108 839 57 769 q 249 947 158 908 q 461 986 340 986 q 638 960 561 986 q 768 891 715 933 q 849 800 821 849 q 878 707 876 751 q 869 685 878 694 q 849 676 860 676 l 617 676 q 589 682 600 676 q 567 700 578 688 q 532 735 560 719 q 461 750 504 750 q 389 734 414 750 q 364 688 364 718 q 379 651 364 667 q 433 624 394 636 q 542 599 472 613 q 755 543 674 579 q 874 449 836 507 q 911 303 911 390 q 854 133 911 204 q 698 24 797 63 q 471 -14 599 -14 z "},"Ś":{"ha":944,"x_min":33,"x_max":911,"o":"m 471 -14 q 228 27 325 -14 q 84 134 132 68 q 33 274 36 200 q 42 294 33 286 q 63 303 50 303 l 283 303 q 314 297 303 303 q 338 279 325 290 q 367 251 350 264 q 410 230 383 238 q 471 222 436 222 q 569 240 535 222 q 604 288 604 257 q 585 326 604 311 q 522 354 567 342 q 401 381 478 367 q 217 434 294 399 q 98 530 139 469 q 57 679 57 590 q 108 839 57 769 q 249 947 158 908 q 461 986 340 986 q 638 960 561 986 q 768 891 715 933 q 849 800 821 849 q 878 707 876 751 q 869 685 878 694 q 849 676 860 676 l 617 676 q 589 682 600 676 q 567 700 578 688 q 532 735 560 719 q 461 750 504 750 q 389 734 414 750 q 364 688 364 718 q 379 651 364 667 q 433 624 394 636 q 542 599 472 613 q 755 543 674 579 q 874 449 836 507 q 911 303 911 390 q 854 133 911 204 q 698 24 797 63 q 471 -14 599 -14 m 365 1042 q 343 1064 343 1042 q 350 1082 343 1075 l 481 1242 q 505 1263 494 1258 q 532 1268 515 1268 l 765 1268 q 792 1240 792 1268 q 785 1224 792 1231 l 590 1064 q 567 1048 579 1054 q 535 1042 556 1042 l 365 1042 z "},"Š":{"ha":944,"x_min":33,"x_max":911,"o":"m 471 -14 q 228 27 325 -14 q 84 134 132 68 q 33 274 36 200 q 42 294 33 286 q 63 303 50 303 l 283 303 q 314 297 303 303 q 338 279 325 290 q 367 251 350 264 q 410 230 383 238 q 471 222 436 222 q 569 240 535 222 q 604 288 604 257 q 585 326 604 311 q 522 354 567 342 q 401 381 478 367 q 217 434 294 399 q 98 530 139 469 q 57 679 57 590 q 108 839 57 769 q 249 947 158 908 q 461 986 340 986 q 638 960 561 986 q 768 891 715 933 q 849 800 821 849 q 878 707 876 751 q 869 685 878 694 q 849 676 860 676 l 617 676 q 589 682 600 676 q 567 700 578 688 q 532 735 560 719 q 461 750 504 750 q 389 734 414 750 q 364 688 364 718 q 379 651 364 667 q 433 624 394 636 q 542 599 472 613 q 755 543 674 579 q 874 449 836 507 q 911 303 911 390 q 854 133 911 204 q 698 24 797 63 q 471 -14 599 -14 m 397 1042 q 372 1047 383 1042 q 347 1067 361 1053 l 199 1226 q 190 1246 190 1235 q 211 1268 190 1268 l 296 1268 q 322 1266 308 1268 q 347 1258 335 1264 l 472 1194 l 597 1258 q 624 1266 611 1264 q 649 1268 636 1268 l 733 1268 q 756 1246 756 1268 q 746 1226 756 1235 l 597 1067 q 572 1047 583 1053 q 547 1042 561 1042 l 397 1042 z "},"Ş":{"ha":944,"x_min":33,"x_max":911,"o":"m 468 -306 q 401 -293 431 -306 q 358 -264 371 -281 q 360 -235 344 -247 l 388 -211 q 408 -203 400 -200 q 430 -212 417 -206 q 468 -219 443 -219 q 499 -208 488 -219 q 511 -182 511 -197 q 500 -156 511 -167 q 468 -144 489 -144 q 439 -149 453 -144 q 413 -153 425 -153 q 392 -146 401 -154 l 364 -118 q 354 -99 354 -108 q 363 -72 354 -90 l 390 -10 q 193 44 272 1 q 74 147 114 86 q 33 274 35 207 q 42 294 33 286 q 63 303 50 303 l 283 303 q 314 297 303 303 q 338 279 325 290 q 367 251 350 264 q 410 230 383 238 q 471 222 436 222 q 569 240 535 222 q 604 288 604 257 q 585 326 604 311 q 522 354 567 342 q 401 381 478 367 q 217 434 294 399 q 98 530 139 469 q 57 679 57 590 q 108 839 57 769 q 249 947 158 908 q 461 986 340 986 q 638 960 561 986 q 768 891 715 933 q 849 800 821 849 q 878 707 876 751 q 869 685 878 694 q 849 676 860 676 l 617 676 q 589 682 600 676 q 567 700 578 688 q 532 735 560 719 q 461 750 504 750 q 389 734 414 750 q 364 688 364 718 q 379 651 364 667 q 433 624 394 636 q 542 599 472 613 q 755 543 674 579 q 874 449 836 507 q 911 303 911 390 q 854 135 911 206 q 699 26 797 64 q 475 -14 601 -12 l 449 -65 q 472 -60 457 -62 q 493 -58 486 -58 q 574 -92 544 -58 q 604 -181 604 -126 q 567 -271 604 -236 q 468 -306 531 -306 z "},"Ŝ":{"ha":944,"x_min":33,"x_max":911,"o":"m 471 -14 q 228 27 325 -14 q 84 134 132 68 q 33 274 36 200 q 42 294 33 286 q 63 303 50 303 l 283 303 q 314 297 303 303 q 338 279 325 290 q 367 251 350 264 q 410 230 383 238 q 471 222 436 222 q 569 240 535 222 q 604 288 604 257 q 585 326 604 311 q 522 354 567 342 q 401 381 478 367 q 217 434 294 399 q 98 530 139 469 q 57 679 57 590 q 108 839 57 769 q 249 947 158 908 q 461 986 340 986 q 638 960 561 986 q 768 891 715 933 q 849 800 821 849 q 878 707 876 751 q 869 685 878 694 q 849 676 860 676 l 617 676 q 589 682 600 676 q 567 700 578 688 q 532 735 560 719 q 461 750 504 750 q 389 734 414 750 q 364 688 364 718 q 379 651 364 667 q 433 624 394 636 q 542 599 472 613 q 755 543 674 579 q 874 449 836 507 q 911 303 911 390 q 854 133 911 204 q 698 24 797 63 q 471 -14 599 -14 m 211 1042 q 190 1063 190 1042 q 199 1082 190 1074 l 347 1242 q 372 1263 361 1257 q 397 1268 383 1268 l 547 1268 q 572 1263 561 1268 q 597 1242 583 1257 l 746 1082 q 756 1063 756 1074 q 733 1042 756 1042 l 649 1042 q 624 1043 636 1042 q 597 1051 611 1044 l 472 1114 l 347 1051 q 322 1043 335 1044 q 296 1042 308 1042 l 211 1042 z "},"Ș":{"ha":944,"x_min":33,"x_max":911,"o":"m 471 -14 q 228 27 325 -14 q 84 134 132 68 q 33 274 36 200 q 42 294 33 286 q 63 303 50 303 l 283 303 q 314 297 303 303 q 338 279 325 290 q 367 251 350 264 q 410 230 383 238 q 471 222 436 222 q 569 240 535 222 q 604 288 604 257 q 585 326 604 311 q 522 354 567 342 q 401 381 478 367 q 217 434 294 399 q 98 530 139 469 q 57 679 57 590 q 108 839 57 769 q 249 947 158 908 q 461 986 340 986 q 638 960 561 986 q 768 891 715 933 q 849 800 821 849 q 878 707 876 751 q 869 685 878 694 q 849 676 860 676 l 617 676 q 589 682 600 676 q 567 700 578 688 q 532 735 560 719 q 461 750 504 750 q 389 734 414 750 q 364 688 364 718 q 379 651 364 667 q 433 624 394 636 q 542 599 472 613 q 755 543 674 579 q 874 449 836 507 q 911 303 911 390 q 854 133 911 204 q 698 24 797 63 q 471 -14 599 -14 m 335 -336 q 315 -328 324 -336 q 307 -307 307 -319 l 335 -121 q 351 -85 338 -101 q 390 -69 364 -69 l 572 -69 q 593 -78 585 -69 q 601 -99 601 -86 q 599 -111 601 -106 l 526 -296 q 508 -323 521 -310 q 471 -336 496 -336 l 335 -336 z "},"ẞ":{"ha":963,"x_min":72,"x_max":947,"o":"m 108 0 q 83 10 94 0 q 72 36 72 21 l 72 631 q 125 826 72 746 q 273 946 178 906 q 496 986 368 986 q 664 965 589 986 q 794 908 739 943 q 878 831 849 872 q 907 747 907 789 q 900 709 907 726 q 868 665 893 692 l 642 418 l 610 546 q 800 510 726 546 q 910 417 874 475 q 947 286 947 358 q 901 135 947 199 q 772 35 854 71 q 582 0 690 0 l 443 0 q 412 10 424 0 q 400 36 400 19 l 400 168 q 412 194 400 185 q 443 204 424 204 l 515 204 q 621 230 589 204 q 653 300 653 256 q 620 367 653 342 q 515 392 588 392 l 457 392 q 419 428 419 392 l 419 535 q 424 563 419 553 q 443 589 428 572 l 558 714 q 567 726 564 721 q 569 736 569 731 q 558 758 569 749 q 526 774 546 768 q 479 781 506 781 q 383 747 415 781 q 350 638 350 713 l 350 36 q 340 10 350 21 q 314 0 329 0 l 108 0 z "},"T":{"ha":906,"x_min":26,"x_max":879,"o":"m 338 0 q 312 10 322 0 q 301 36 301 21 l 301 714 l 63 714 q 37 724 47 714 q 26 750 26 735 l 26 936 q 37 962 26 951 q 63 972 47 972 l 843 972 q 869 962 858 972 q 879 936 879 951 l 879 750 q 869 724 879 735 q 843 714 858 714 l 604 714 l 604 36 q 594 10 604 21 q 568 0 583 0 l 338 0 z "},"Ŧ":{"ha":917,"x_min":32,"x_max":885,"o":"m 343 0 q 317 10 328 0 q 307 36 307 21 l 307 382 l 175 382 q 149 393 160 382 q 139 418 139 404 l 139 503 q 149 528 139 518 q 175 539 160 539 l 307 539 l 307 714 l 68 714 q 42 724 53 714 q 32 750 32 735 l 32 936 q 42 962 32 951 q 68 972 53 972 l 849 972 q 874 962 864 972 q 885 936 885 951 l 885 750 q 874 724 885 735 q 849 714 864 714 l 610 714 l 610 539 l 742 539 q 768 528 757 539 q 779 503 779 518 l 779 418 q 768 393 779 404 q 742 382 757 382 l 610 382 l 610 36 q 599 10 610 21 q 574 0 589 0 l 343 0 z "},"Ť":{"ha":906,"x_min":26,"x_max":879,"o":"m 338 0 q 312 10 322 0 q 301 36 301 21 l 301 714 l 63 714 q 37 724 47 714 q 26 750 26 735 l 26 936 q 37 962 26 951 q 63 972 47 972 l 843 972 q 869 962 858 972 q 879 936 879 951 l 879 750 q 869 724 879 735 q 843 714 858 714 l 604 714 l 604 36 q 594 10 604 21 q 568 0 583 0 l 338 0 m 378 1042 q 353 1047 364 1042 q 328 1067 342 1053 l 179 1226 q 171 1246 171 1235 q 192 1268 171 1268 l 276 1268 q 302 1266 289 1268 q 328 1258 315 1264 l 453 1194 l 578 1258 q 604 1266 592 1264 q 629 1268 617 1268 l 714 1268 q 736 1246 736 1268 q 726 1226 736 1235 l 578 1067 q 553 1047 564 1053 q 528 1042 542 1042 l 378 1042 z "},"Ț":{"ha":906,"x_min":26,"x_max":879,"o":"m 338 0 q 312 10 322 0 q 301 36 301 21 l 301 714 l 63 714 q 37 724 47 714 q 26 750 26 735 l 26 936 q 37 962 26 951 q 63 972 47 972 l 843 972 q 869 962 858 972 q 879 936 879 951 l 879 750 q 869 724 879 735 q 843 714 858 714 l 604 714 l 604 36 q 594 10 604 21 q 568 0 583 0 l 338 0 m 314 -336 q 294 -328 303 -336 q 286 -307 286 -319 l 314 -121 q 330 -85 317 -101 q 369 -69 343 -69 l 551 -69 q 572 -78 564 -69 q 581 -99 581 -86 q 578 -111 581 -106 l 506 -296 q 488 -323 500 -310 q 450 -336 475 -336 l 314 -336 z "},"U":{"ha":1022,"x_min":78,"x_max":943,"o":"m 513 -14 q 285 26 383 -14 q 133 152 188 67 q 78 368 78 238 l 78 936 q 89 962 78 951 q 114 972 100 972 l 340 972 q 366 962 356 972 q 376 936 376 951 l 376 372 q 411 265 376 301 q 511 229 446 229 q 610 265 576 229 q 644 372 644 301 l 644 936 q 656 962 644 951 q 682 972 667 972 l 907 972 q 933 962 922 972 q 943 936 943 951 l 943 368 q 889 152 943 238 q 738 26 835 67 q 513 -14 640 -14 z "},"Ú":{"ha":1022,"x_min":78,"x_max":943,"o":"m 513 -14 q 285 26 383 -14 q 133 152 188 67 q 78 368 78 238 l 78 936 q 89 962 78 951 q 114 972 100 972 l 340 972 q 366 962 356 972 q 376 936 376 951 l 376 372 q 411 265 376 301 q 511 229 446 229 q 610 265 576 229 q 644 372 644 301 l 644 936 q 656 962 644 951 q 682 972 667 972 l 907 972 q 933 962 922 972 q 943 936 943 951 l 943 368 q 889 152 943 238 q 738 26 835 67 q 513 -14 640 -14 m 403 1042 q 381 1064 381 1042 q 388 1082 381 1075 l 518 1242 q 542 1263 532 1258 q 569 1268 553 1268 l 803 1268 q 829 1240 829 1268 q 822 1224 829 1231 l 628 1064 q 605 1048 617 1054 q 572 1042 593 1042 l 403 1042 z "},"Ŭ":{"ha":1022,"x_min":78,"x_max":943,"o":"m 513 -14 q 285 26 383 -14 q 133 152 188 67 q 78 368 78 238 l 78 936 q 89 962 78 951 q 114 972 100 972 l 340 972 q 366 962 356 972 q 376 936 376 951 l 376 372 q 411 265 376 301 q 511 229 446 229 q 610 265 576 229 q 644 372 644 301 l 644 936 q 656 962 644 951 q 682 972 667 972 l 907 972 q 933 962 922 972 q 943 936 943 951 l 943 368 q 889 152 943 238 q 738 26 835 67 q 513 -14 640 -14 m 511 1033 q 381 1061 432 1033 q 306 1135 329 1089 q 282 1240 282 1182 q 289 1259 282 1251 q 308 1267 296 1267 l 424 1267 q 443 1259 436 1267 q 450 1240 450 1251 q 463 1185 450 1208 q 511 1161 475 1161 q 560 1185 549 1161 q 572 1240 572 1208 q 579 1259 572 1251 q 599 1267 586 1267 l 715 1267 q 735 1259 728 1267 q 742 1240 742 1251 q 717 1135 742 1182 q 642 1061 693 1089 q 511 1033 592 1033 z "},"Û":{"ha":1022,"x_min":78,"x_max":943,"o":"m 513 -14 q 285 26 383 -14 q 133 152 188 67 q 78 368 78 238 l 78 936 q 89 962 78 951 q 114 972 100 972 l 340 972 q 366 962 356 972 q 376 936 376 951 l 376 372 q 411 265 376 301 q 511 229 446 229 q 610 265 576 229 q 644 372 644 301 l 644 936 q 656 962 644 951 q 682 972 667 972 l 907 972 q 933 962 922 972 q 943 936 943 951 l 943 368 q 889 152 943 238 q 738 26 835 67 q 513 -14 640 -14 m 250 1042 q 229 1063 229 1042 q 238 1082 229 1074 l 386 1242 q 411 1263 400 1257 q 436 1268 422 1268 l 586 1268 q 611 1263 600 1268 q 636 1242 622 1257 l 785 1082 q 794 1063 794 1074 q 772 1042 794 1042 l 688 1042 q 663 1043 675 1042 q 636 1051 650 1044 l 511 1114 l 386 1051 q 360 1043 374 1044 q 335 1042 347 1042 l 250 1042 z "},"Ü":{"ha":1022,"x_min":78,"x_max":943,"o":"m 513 -14 q 285 26 383 -14 q 133 152 188 67 q 78 368 78 238 l 78 936 q 89 962 78 951 q 114 972 100 972 l 340 972 q 366 962 356 972 q 376 936 376 951 l 376 372 q 411 265 376 301 q 511 229 446 229 q 610 265 576 229 q 644 372 644 301 l 644 936 q 656 962 644 951 q 682 972 667 972 l 907 972 q 933 962 922 972 q 943 936 943 951 l 943 368 q 889 152 943 238 q 738 26 835 67 q 513 -14 640 -14 m 611 1042 q 589 1050 597 1042 q 581 1074 581 1058 l 581 1224 q 589 1247 581 1238 q 611 1256 597 1256 l 761 1256 q 784 1247 775 1256 q 793 1224 793 1238 l 793 1074 q 784 1050 793 1058 q 761 1042 775 1042 l 611 1042 m 261 1042 q 238 1050 246 1042 q 229 1074 229 1058 l 229 1224 q 238 1247 229 1238 q 261 1256 246 1256 l 410 1256 q 433 1247 424 1256 q 442 1224 442 1238 l 442 1074 q 433 1050 442 1058 q 410 1042 424 1042 l 261 1042 z "},"Ù":{"ha":1022,"x_min":78,"x_max":943,"o":"m 513 -14 q 285 26 383 -14 q 133 152 188 67 q 78 368 78 238 l 78 936 q 89 962 78 951 q 114 972 100 972 l 340 972 q 366 962 356 972 q 376 936 376 951 l 376 372 q 411 265 376 301 q 511 229 446 229 q 610 265 576 229 q 644 372 644 301 l 644 936 q 656 962 644 951 q 682 972 667 972 l 907 972 q 933 962 922 972 q 943 936 943 951 l 943 368 q 889 152 943 238 q 738 26 835 67 q 513 -14 640 -14 m 451 1042 q 419 1048 431 1042 q 396 1064 407 1054 l 201 1224 q 194 1240 194 1231 q 221 1268 194 1268 l 454 1268 q 481 1263 471 1268 q 506 1242 490 1258 l 636 1082 q 643 1064 643 1075 q 621 1042 643 1042 l 451 1042 z "},"Ű":{"ha":1022,"x_min":78,"x_max":943,"o":"m 513 -14 q 285 26 383 -14 q 133 152 188 67 q 78 368 78 238 l 78 936 q 89 962 78 951 q 114 972 100 972 l 340 972 q 366 962 356 972 q 376 936 376 951 l 376 372 q 411 265 376 301 q 511 229 446 229 q 610 265 576 229 q 644 372 644 301 l 644 936 q 656 962 644 951 q 682 972 667 972 l 907 972 q 933 962 922 972 q 943 936 943 951 l 943 368 q 889 152 943 238 q 738 26 835 67 q 513 -14 640 -14 m 608 1042 q 586 1064 586 1042 q 589 1075 586 1069 q 593 1085 592 1081 l 663 1242 q 714 1268 675 1268 l 901 1268 q 929 1242 929 1268 q 921 1224 929 1232 l 774 1061 q 728 1042 757 1042 l 608 1042 m 293 1042 q 271 1064 271 1042 q 274 1075 271 1069 q 278 1085 276 1081 l 347 1242 q 399 1268 360 1268 l 586 1268 q 614 1242 614 1268 q 606 1224 614 1232 l 460 1061 q 413 1042 443 1042 l 293 1042 z "},"Ū":{"ha":1022,"x_min":78,"x_max":943,"o":"m 513 -14 q 285 26 383 -14 q 133 152 188 67 q 78 368 78 238 l 78 936 q 89 962 78 951 q 114 972 100 972 l 340 972 q 366 962 356 972 q 376 936 376 951 l 376 372 q 411 265 376 301 q 511 229 446 229 q 610 265 576 229 q 644 372 644 301 l 644 936 q 656 962 644 951 q 682 972 667 972 l 907 972 q 933 962 922 972 q 943 936 943 951 l 943 368 q 889 152 943 238 q 738 26 835 67 q 513 -14 640 -14 m 272 1042 q 249 1050 257 1042 q 240 1074 240 1058 l 240 1196 q 249 1219 240 1211 q 272 1228 257 1228 l 749 1228 q 772 1219 764 1228 q 781 1196 781 1211 l 781 1074 q 772 1050 781 1058 q 749 1042 764 1042 l 272 1042 z "},"Ų":{"ha":1022,"x_min":78,"x_max":943,"o":"m 622 -306 q 494 -275 544 -306 q 419 -192 443 -244 q 394 -76 394 -140 q 397 -39 394 -57 q 403 -6 399 -21 q 166 109 254 18 q 78 368 78 200 l 78 936 q 89 962 78 951 q 114 972 100 972 l 340 972 q 366 962 356 972 q 376 936 376 951 l 376 372 q 411 265 376 301 q 511 229 446 229 q 610 265 576 229 q 644 372 644 301 l 644 936 q 656 962 644 951 q 682 972 667 972 l 907 972 q 933 962 922 972 q 943 936 943 951 l 943 368 q 902 177 943 254 q 787 56 861 100 q 613 -7 713 11 q 565 -33 578 -14 q 551 -76 551 -51 q 569 -128 551 -104 q 628 -153 586 -153 l 643 -153 q 669 -163 658 -153 q 679 -189 679 -174 l 679 -269 q 669 -295 679 -285 q 643 -306 658 -306 l 622 -306 z "},"Ů":{"ha":1022,"x_min":78,"x_max":943,"o":"m 513 -14 q 285 26 383 -14 q 133 152 188 67 q 78 368 78 238 l 78 936 q 89 962 78 951 q 114 972 100 972 l 340 972 q 366 962 356 972 q 376 936 376 951 l 376 372 q 411 265 376 301 q 511 229 446 229 q 610 265 576 229 q 644 372 644 301 l 644 936 q 656 962 644 951 q 682 972 667 972 l 907 972 q 933 962 922 972 q 943 936 943 951 l 943 368 q 889 152 943 238 q 738 26 835 67 q 513 -14 640 -14 m 511 1028 q 417 1064 457 1028 q 378 1154 378 1100 q 417 1246 378 1210 q 511 1282 456 1282 q 606 1246 567 1282 q 644 1154 644 1210 q 606 1064 644 1100 q 511 1028 567 1028 m 511 1113 q 541 1124 529 1113 q 553 1154 553 1136 q 541 1184 553 1172 q 511 1196 529 1196 q 481 1184 493 1196 q 469 1154 469 1172 q 481 1124 469 1136 q 511 1113 493 1113 z "},"Ũ":{"ha":1022,"x_min":78,"x_max":943,"o":"m 513 -14 q 285 26 383 -14 q 133 152 188 67 q 78 368 78 238 l 78 936 q 89 962 78 951 q 114 972 100 972 l 340 972 q 366 962 356 972 q 376 936 376 951 l 376 372 q 411 265 376 301 q 511 229 446 229 q 610 265 576 229 q 644 372 644 301 l 644 936 q 656 962 644 951 q 682 972 667 972 l 907 972 q 933 962 922 972 q 943 936 943 951 l 943 368 q 889 152 943 238 q 738 26 835 67 q 513 -14 640 -14 m 600 1035 q 534 1047 560 1035 q 488 1072 508 1060 q 442 1085 467 1085 q 412 1074 421 1085 q 396 1053 403 1064 q 374 1042 389 1042 l 274 1042 q 256 1049 264 1042 q 249 1067 249 1057 q 257 1122 249 1089 q 285 1188 265 1156 q 338 1242 304 1221 q 421 1264 371 1264 q 487 1251 461 1264 q 533 1226 513 1239 q 579 1214 554 1214 q 608 1225 600 1214 q 624 1247 617 1236 q 647 1257 632 1257 l 747 1257 q 766 1249 760 1257 q 772 1232 772 1242 q 764 1176 772 1208 q 736 1110 756 1143 q 683 1056 717 1078 q 600 1035 650 1035 z "},"V":{"ha":986,"x_min":26,"x_max":958,"o":"m 361 0 q 320 14 335 0 q 301 43 306 28 l 28 932 q 26 942 26 938 q 35 963 26 954 q 57 972 44 972 l 272 972 q 311 958 297 972 q 329 931 325 944 l 493 351 l 657 931 q 675 958 661 944 q 714 972 689 972 l 929 972 q 950 963 942 972 q 958 942 958 954 q 957 932 958 938 l 685 43 q 666 14 681 28 q 625 0 651 0 l 361 0 z "},"W":{"ha":1171,"x_min":40,"x_max":1132,"o":"m 239 0 q 198 15 213 0 q 179 49 183 31 l 40 936 q 40 939 40 938 q 40 942 40 940 q 49 963 40 954 q 69 972 57 972 l 285 972 q 332 938 328 972 l 400 471 l 479 718 q 492 743 482 729 q 525 757 501 757 l 646 757 q 679 743 669 757 q 693 718 689 729 l 771 472 l 840 938 q 886 972 844 972 l 1101 972 q 1123 963 1114 972 q 1132 942 1132 954 q 1132 939 1132 940 q 1131 936 1132 938 l 992 49 q 974 15 990 31 q 932 0 958 0 l 767 0 q 729 13 742 0 q 713 36 717 26 l 586 378 l 458 36 q 442 13 456 26 q 404 0 429 0 l 239 0 z "},"Ẃ":{"ha":1171,"x_min":40,"x_max":1132,"o":"m 239 0 q 198 15 213 0 q 179 49 183 31 l 40 936 q 40 939 40 938 q 40 942 40 940 q 49 963 40 954 q 69 972 57 972 l 285 972 q 332 938 328 972 l 400 471 l 479 718 q 492 743 482 729 q 525 757 501 757 l 646 757 q 679 743 669 757 q 693 718 689 729 l 771 472 l 840 938 q 886 972 844 972 l 1101 972 q 1123 963 1114 972 q 1132 942 1132 954 q 1132 939 1132 940 q 1131 936 1132 938 l 992 49 q 974 15 990 31 q 932 0 958 0 l 767 0 q 729 13 742 0 q 713 36 717 26 l 586 378 l 458 36 q 442 13 456 26 q 404 0 429 0 l 239 0 m 478 1042 q 456 1064 456 1042 q 463 1082 456 1075 l 593 1242 q 617 1263 607 1258 q 644 1268 628 1268 l 878 1268 q 904 1240 904 1268 q 897 1224 904 1231 l 703 1064 q 680 1048 692 1054 q 647 1042 668 1042 l 478 1042 z "},"Ŵ":{"ha":1171,"x_min":40,"x_max":1132,"o":"m 239 0 q 198 15 213 0 q 179 49 183 31 l 40 936 q 40 939 40 938 q 40 942 40 940 q 49 963 40 954 q 69 972 57 972 l 285 972 q 332 938 328 972 l 400 471 l 479 718 q 492 743 482 729 q 525 757 501 757 l 646 757 q 679 743 669 757 q 693 718 689 729 l 771 472 l 840 938 q 886 972 844 972 l 1101 972 q 1123 963 1114 972 q 1132 942 1132 954 q 1132 939 1132 940 q 1131 936 1132 938 l 992 49 q 974 15 990 31 q 932 0 958 0 l 767 0 q 729 13 742 0 q 713 36 717 26 l 586 378 l 458 36 q 442 13 456 26 q 404 0 429 0 l 239 0 m 325 1042 q 304 1063 304 1042 q 313 1082 304 1074 l 461 1242 q 486 1263 475 1257 q 511 1268 497 1268 l 661 1268 q 686 1263 675 1268 q 711 1242 697 1257 l 860 1082 q 869 1063 869 1074 q 847 1042 869 1042 l 763 1042 q 738 1043 750 1042 q 711 1051 725 1044 l 586 1114 l 461 1051 q 435 1043 449 1044 q 410 1042 422 1042 l 325 1042 z "},"Ẅ":{"ha":1171,"x_min":40,"x_max":1132,"o":"m 239 0 q 198 15 213 0 q 179 49 183 31 l 40 936 q 40 939 40 938 q 40 942 40 940 q 49 963 40 954 q 69 972 57 972 l 285 972 q 332 938 328 972 l 400 471 l 479 718 q 492 743 482 729 q 525 757 501 757 l 646 757 q 679 743 669 757 q 693 718 689 729 l 771 472 l 840 938 q 886 972 844 972 l 1101 972 q 1123 963 1114 972 q 1132 942 1132 954 q 1132 939 1132 940 q 1131 936 1132 938 l 992 49 q 974 15 990 31 q 932 0 958 0 l 767 0 q 729 13 742 0 q 713 36 717 26 l 586 378 l 458 36 q 442 13 456 26 q 404 0 429 0 l 239 0 m 685 1042 q 663 1050 671 1042 q 654 1074 654 1058 l 654 1224 q 663 1247 654 1238 q 685 1256 671 1256 l 835 1256 q 858 1247 849 1256 q 867 1224 867 1238 l 867 1074 q 858 1050 867 1058 q 835 1042 849 1042 l 685 1042 m 335 1042 q 311 1050 319 1042 q 303 1074 303 1058 l 303 1224 q 311 1247 303 1238 q 335 1256 319 1256 l 483 1256 q 506 1247 497 1256 q 515 1224 515 1238 l 515 1074 q 506 1050 515 1058 q 483 1042 497 1042 l 335 1042 z "},"Ẁ":{"ha":1171,"x_min":40,"x_max":1132,"o":"m 239 0 q 198 15 213 0 q 179 49 183 31 l 40 936 q 40 939 40 938 q 40 942 40 940 q 49 963 40 954 q 69 972 57 972 l 285 972 q 332 938 328 972 l 400 471 l 479 718 q 492 743 482 729 q 525 757 501 757 l 646 757 q 679 743 669 757 q 693 718 689 729 l 771 472 l 840 938 q 886 972 844 972 l 1101 972 q 1123 963 1114 972 q 1132 942 1132 954 q 1132 939 1132 940 q 1131 936 1132 938 l 992 49 q 974 15 990 31 q 932 0 958 0 l 767 0 q 729 13 742 0 q 713 36 717 26 l 586 378 l 458 36 q 442 13 456 26 q 404 0 429 0 l 239 0 m 525 1042 q 492 1048 504 1042 q 469 1064 481 1054 l 275 1224 q 268 1240 268 1231 q 294 1268 268 1268 l 528 1268 q 554 1263 544 1268 q 579 1242 564 1258 l 710 1082 q 717 1064 717 1075 q 694 1042 717 1042 l 525 1042 z "},"X":{"ha":993,"x_min":8,"x_max":985,"o":"m 38 0 q 17 9 25 0 q 8 31 8 18 q 9 37 8 33 q 13 46 10 40 l 310 497 l 39 926 q 33 942 33 935 q 42 963 33 954 q 64 972 51 972 l 315 972 q 351 960 339 972 q 368 940 364 947 l 500 729 l 638 940 q 654 960 642 947 q 690 972 667 972 l 929 972 q 951 963 942 972 q 960 942 960 954 q 956 926 960 933 l 679 500 l 981 46 q 984 37 983 40 q 985 31 985 33 q 976 9 985 18 q 956 0 967 0 l 694 0 q 659 12 672 0 q 643 31 646 24 l 490 257 l 342 31 q 326 12 339 24 q 290 0 314 0 l 38 0 z "},"Y":{"ha":965,"x_min":13,"x_max":953,"o":"m 369 0 q 344 10 354 0 q 333 36 333 21 l 333 322 l 17 929 q 14 935 15 932 q 13 942 13 939 q 22 963 13 954 q 43 972 31 972 l 260 972 q 297 960 285 972 q 314 940 310 947 l 483 621 l 653 940 q 669 960 656 947 q 706 972 682 972 l 924 972 q 944 963 935 972 q 953 942 953 954 q 952 935 953 939 q 950 929 951 932 l 632 322 l 632 36 q 622 10 632 21 q 596 0 611 0 l 369 0 z "},"Ý":{"ha":965,"x_min":13,"x_max":953,"o":"m 369 0 q 344 10 354 0 q 333 36 333 21 l 333 322 l 17 929 q 14 935 15 932 q 13 942 13 939 q 22 963 13 954 q 43 972 31 972 l 260 972 q 297 960 285 972 q 314 940 310 947 l 483 621 l 653 940 q 669 960 656 947 q 706 972 682 972 l 924 972 q 944 963 935 972 q 953 942 953 954 q 952 935 953 939 q 950 929 951 932 l 632 322 l 632 36 q 622 10 632 21 q 596 0 611 0 l 369 0 m 375 1042 q 353 1064 353 1042 q 360 1082 353 1075 l 490 1242 q 515 1263 504 1258 q 542 1268 525 1268 l 775 1268 q 801 1240 801 1268 q 794 1224 801 1231 l 600 1064 q 577 1048 589 1054 q 544 1042 565 1042 l 375 1042 z "},"Ŷ":{"ha":965,"x_min":13,"x_max":953,"o":"m 369 0 q 344 10 354 0 q 333 36 333 21 l 333 322 l 17 929 q 14 935 15 932 q 13 942 13 939 q 22 963 13 954 q 43 972 31 972 l 260 972 q 297 960 285 972 q 314 940 310 947 l 483 621 l 653 940 q 669 960 656 947 q 706 972 682 972 l 924 972 q 944 963 935 972 q 953 942 953 954 q 952 935 953 939 q 950 929 951 932 l 632 322 l 632 36 q 622 10 632 21 q 596 0 611 0 l 369 0 m 222 1042 q 201 1063 201 1042 q 210 1082 201 1074 l 358 1242 q 383 1263 372 1257 q 408 1268 394 1268 l 558 1268 q 583 1263 572 1268 q 608 1242 594 1257 l 757 1082 q 767 1063 767 1074 q 744 1042 767 1042 l 660 1042 q 635 1043 647 1042 q 608 1051 622 1044 l 483 1114 l 358 1051 q 333 1043 346 1044 q 307 1042 319 1042 l 222 1042 z "},"Ÿ":{"ha":965,"x_min":13,"x_max":953,"o":"m 369 0 q 344 10 354 0 q 333 36 333 21 l 333 322 l 17 929 q 14 935 15 932 q 13 942 13 939 q 22 963 13 954 q 43 972 31 972 l 260 972 q 297 960 285 972 q 314 940 310 947 l 483 621 l 653 940 q 669 960 656 947 q 706 972 682 972 l 924 972 q 944 963 935 972 q 953 942 953 954 q 952 935 953 939 q 950 929 951 932 l 632 322 l 632 36 q 622 10 632 21 q 596 0 611 0 l 369 0 m 582 1042 q 560 1050 568 1042 q 551 1074 551 1058 l 551 1224 q 560 1247 551 1238 q 582 1256 568 1256 l 732 1256 q 755 1247 746 1256 q 764 1224 764 1238 l 764 1074 q 755 1050 764 1058 q 732 1042 746 1042 l 582 1042 m 232 1042 q 208 1050 217 1042 q 200 1074 200 1058 l 200 1224 q 208 1247 200 1238 q 232 1256 217 1256 l 381 1256 q 403 1247 394 1256 q 413 1224 413 1238 l 413 1074 q 403 1050 413 1058 q 381 1042 394 1042 l 232 1042 z "},"Ỳ":{"ha":965,"x_min":13,"x_max":953,"o":"m 369 0 q 344 10 354 0 q 333 36 333 21 l 333 322 l 17 929 q 14 935 15 932 q 13 942 13 939 q 22 963 13 954 q 43 972 31 972 l 260 972 q 297 960 285 972 q 314 940 310 947 l 483 621 l 653 940 q 669 960 656 947 q 706 972 682 972 l 924 972 q 944 963 935 972 q 953 942 953 954 q 952 935 953 939 q 950 929 951 932 l 632 322 l 632 36 q 622 10 632 21 q 596 0 611 0 l 369 0 m 424 1042 q 391 1048 403 1042 q 368 1064 379 1054 l 174 1224 q 167 1240 167 1231 q 193 1268 167 1268 l 426 1268 q 453 1263 443 1268 q 478 1242 463 1258 l 608 1082 q 615 1064 615 1075 q 593 1042 615 1042 l 424 1042 z "},"Z":{"ha":933,"x_min":50,"x_max":885,"o":"m 86 0 q 61 10 72 0 q 50 36 50 21 l 50 204 q 58 236 50 224 q 71 254 67 249 l 490 728 l 100 728 q 74 738 85 728 q 64 764 64 749 l 64 936 q 74 962 64 951 q 100 972 85 972 l 831 972 q 857 962 846 972 q 868 936 868 951 l 868 771 q 863 744 868 756 q 850 724 857 732 l 449 247 l 849 247 q 874 237 864 247 q 885 211 885 226 l 885 36 q 874 10 885 21 q 849 0 864 0 l 86 0 z "},"Ź":{"ha":933,"x_min":50,"x_max":885,"o":"m 86 0 q 61 10 72 0 q 50 36 50 21 l 50 204 q 58 236 50 224 q 71 254 67 249 l 490 728 l 100 728 q 74 738 85 728 q 64 764 64 749 l 64 936 q 74 962 64 951 q 100 972 85 972 l 831 972 q 857 962 846 972 q 868 936 868 951 l 868 771 q 863 744 868 756 q 850 724 857 732 l 449 247 l 849 247 q 874 237 864 247 q 885 211 885 226 l 885 36 q 874 10 885 21 q 849 0 864 0 l 86 0 m 346 1042 q 324 1064 324 1042 q 331 1082 324 1075 l 461 1242 q 485 1263 475 1258 q 513 1268 496 1268 l 746 1268 q 772 1240 772 1268 q 765 1224 772 1231 l 571 1064 q 548 1048 560 1054 q 515 1042 536 1042 l 346 1042 z "},"Ž":{"ha":933,"x_min":50,"x_max":885,"o":"m 86 0 q 61 10 72 0 q 50 36 50 21 l 50 204 q 58 236 50 224 q 71 254 67 249 l 490 728 l 100 728 q 74 738 85 728 q 64 764 64 749 l 64 936 q 74 962 64 951 q 100 972 85 972 l 831 972 q 857 962 846 972 q 868 936 868 951 l 868 771 q 863 744 868 756 q 850 724 857 732 l 449 247 l 849 247 q 874 237 864 247 q 885 211 885 226 l 885 36 q 874 10 885 21 q 849 0 864 0 l 86 0 m 378 1042 q 353 1047 364 1042 q 328 1067 342 1053 l 179 1226 q 171 1246 171 1235 q 192 1268 171 1268 l 276 1268 q 302 1266 289 1268 q 328 1258 315 1264 l 453 1194 l 578 1258 q 604 1266 592 1264 q 629 1268 617 1268 l 714 1268 q 736 1246 736 1268 q 726 1226 736 1235 l 578 1067 q 553 1047 564 1053 q 528 1042 542 1042 l 378 1042 z "},"Ż":{"ha":933,"x_min":50,"x_max":885,"o":"m 86 0 q 61 10 72 0 q 50 36 50 21 l 50 204 q 58 236 50 224 q 71 254 67 249 l 490 728 l 100 728 q 74 738 85 728 q 64 764 64 749 l 64 936 q 74 962 64 951 q 100 972 85 972 l 831 972 q 857 962 846 972 q 868 936 868 951 l 868 771 q 863 744 868 756 q 850 724 857 732 l 449 247 l 849 247 q 874 237 864 247 q 885 211 885 226 l 885 36 q 874 10 885 21 q 849 0 864 0 l 86 0 m 371 1042 q 347 1050 356 1042 q 339 1074 339 1058 l 339 1239 q 347 1262 339 1253 q 371 1271 356 1271 l 536 1271 q 559 1262 550 1271 q 568 1239 568 1253 l 568 1074 q 559 1050 568 1058 q 536 1042 550 1042 l 371 1042 z "},"a":{"ha":842,"x_min":31,"x_max":776,"o":"m 296 -14 q 159 15 219 -14 q 65 94 99 44 q 31 204 31 143 q 112 362 31 304 q 329 442 193 419 l 490 467 l 490 476 q 476 541 490 519 q 421 563 463 563 q 374 551 392 563 q 340 519 356 540 q 304 504 326 504 l 108 504 q 85 513 94 504 q 78 535 76 521 q 99 594 79 560 q 159 660 118 628 q 265 715 200 693 q 422 736 331 736 q 582 715 515 736 q 692 657 649 694 q 756 566 735 619 q 776 447 776 513 l 776 36 q 766 10 776 21 q 740 0 756 0 l 539 0 q 513 10 524 0 q 501 36 501 21 l 501 81 q 453 32 483 53 q 384 -1 424 11 q 296 -14 344 -14 m 376 168 q 438 183 411 168 q 478 228 464 197 q 493 304 493 258 l 493 314 l 393 294 q 321 267 342 285 q 300 225 300 249 q 310 196 300 208 q 337 176 319 183 q 376 168 354 168 z "},"á":{"ha":842,"x_min":31,"x_max":776,"o":"m 296 -14 q 159 15 219 -14 q 65 94 99 44 q 31 204 31 143 q 112 362 31 304 q 329 442 193 419 l 490 467 l 490 476 q 476 541 490 519 q 421 563 463 563 q 374 551 392 563 q 340 519 356 540 q 304 504 326 504 l 108 504 q 85 513 94 504 q 78 535 76 521 q 99 594 79 560 q 159 660 118 628 q 265 715 200 693 q 422 736 331 736 q 582 715 515 736 q 692 657 649 694 q 756 566 735 619 q 776 447 776 513 l 776 36 q 766 10 776 21 q 740 0 756 0 l 539 0 q 513 10 524 0 q 501 36 501 21 l 501 81 q 453 32 483 53 q 384 -1 424 11 q 296 -14 344 -14 m 376 168 q 438 183 411 168 q 478 228 464 197 q 493 304 493 258 l 493 314 l 393 294 q 321 267 342 285 q 300 225 300 249 q 310 196 300 208 q 337 176 319 183 q 376 168 354 168 m 319 826 q 297 849 297 826 q 304 867 297 860 l 435 1026 q 459 1048 449 1043 q 486 1053 469 1053 l 707 1053 q 733 1025 733 1053 q 726 1008 733 1015 l 532 849 q 509 833 521 839 q 476 826 497 826 l 319 826 z "},"ă":{"ha":842,"x_min":31,"x_max":776,"o":"m 296 -14 q 159 15 219 -14 q 65 94 99 44 q 31 204 31 143 q 112 362 31 304 q 329 442 193 419 l 490 467 l 490 476 q 476 541 490 519 q 421 563 463 563 q 374 551 392 563 q 340 519 356 540 q 304 504 326 504 l 108 504 q 85 513 94 504 q 78 535 76 521 q 99 594 79 560 q 159 660 118 628 q 265 715 200 693 q 422 736 331 736 q 582 715 515 736 q 692 657 649 694 q 756 566 735 619 q 776 447 776 513 l 776 36 q 766 10 776 21 q 740 0 756 0 l 539 0 q 513 10 524 0 q 501 36 501 21 l 501 81 q 453 32 483 53 q 384 -1 424 11 q 296 -14 344 -14 m 376 168 q 438 183 411 168 q 478 228 464 197 q 493 304 493 258 l 493 314 l 393 294 q 321 267 342 285 q 300 225 300 249 q 310 196 300 208 q 337 176 319 183 q 376 168 354 168 m 419 819 q 297 847 346 819 q 222 922 247 875 q 197 1026 197 968 q 204 1045 197 1038 q 224 1053 211 1053 l 333 1053 q 353 1045 346 1053 q 360 1026 360 1038 q 373 970 360 994 q 419 946 386 946 q 467 970 454 946 q 479 1026 479 994 q 486 1045 479 1038 q 506 1053 493 1053 l 615 1053 q 635 1045 628 1053 q 642 1026 642 1038 q 617 922 642 968 q 543 847 593 875 q 419 819 493 819 z "},"â":{"ha":842,"x_min":31,"x_max":776,"o":"m 296 -14 q 159 15 219 -14 q 65 94 99 44 q 31 204 31 143 q 112 362 31 304 q 329 442 193 419 l 490 467 l 490 476 q 476 541 490 519 q 421 563 463 563 q 374 551 392 563 q 340 519 356 540 q 304 504 326 504 l 108 504 q 85 513 94 504 q 78 535 76 521 q 99 594 79 560 q 159 660 118 628 q 265 715 200 693 q 422 736 331 736 q 582 715 515 736 q 692 657 649 694 q 756 566 735 619 q 776 447 776 513 l 776 36 q 766 10 776 21 q 740 0 756 0 l 539 0 q 513 10 524 0 q 501 36 501 21 l 501 81 q 453 32 483 53 q 384 -1 424 11 q 296 -14 344 -14 m 376 168 q 438 183 411 168 q 478 228 464 197 q 493 304 493 258 l 493 314 l 393 294 q 321 267 342 285 q 300 225 300 249 q 310 196 300 208 q 337 176 319 183 q 376 168 354 168 m 163 826 q 142 847 142 826 q 150 867 142 858 l 299 1026 q 324 1047 314 1042 q 349 1053 335 1053 l 488 1053 q 513 1047 501 1053 q 538 1026 524 1042 l 686 867 q 696 847 696 858 q 674 826 696 826 l 594 826 q 569 828 582 826 q 543 836 557 829 l 418 899 l 293 836 q 268 828 282 829 q 242 826 254 826 l 163 826 z "},"ä":{"ha":842,"x_min":31,"x_max":776,"o":"m 296 -14 q 159 15 219 -14 q 65 94 99 44 q 31 204 31 143 q 112 362 31 304 q 329 442 193 419 l 490 467 l 490 476 q 476 541 490 519 q 421 563 463 563 q 374 551 392 563 q 340 519 356 540 q 304 504 326 504 l 108 504 q 85 513 94 504 q 78 535 76 521 q 99 594 79 560 q 159 660 118 628 q 265 715 200 693 q 422 736 331 736 q 582 715 515 736 q 692 657 649 694 q 756 566 735 619 q 776 447 776 513 l 776 36 q 766 10 776 21 q 740 0 756 0 l 539 0 q 513 10 524 0 q 501 36 501 21 l 501 81 q 453 32 483 53 q 384 -1 424 11 q 296 -14 344 -14 m 376 168 q 438 183 411 168 q 478 228 464 197 q 493 304 493 258 l 493 314 l 393 294 q 321 267 342 285 q 300 225 300 249 q 310 196 300 208 q 337 176 319 183 q 376 168 354 168 m 497 835 q 475 843 483 835 q 467 867 467 851 l 467 1017 q 475 1040 467 1031 q 497 1049 483 1049 l 647 1049 q 670 1040 661 1049 q 679 1017 679 1031 l 679 867 q 670 843 679 851 q 647 835 661 835 l 497 835 m 189 835 q 165 843 174 835 q 157 867 157 851 l 157 1017 q 165 1040 157 1031 q 189 1049 174 1049 l 338 1049 q 360 1040 351 1049 q 369 1017 369 1031 l 369 867 q 360 843 369 851 q 338 835 351 835 l 189 835 z "},"à":{"ha":842,"x_min":31,"x_max":776,"o":"m 296 -14 q 159 15 219 -14 q 65 94 99 44 q 31 204 31 143 q 112 362 31 304 q 329 442 193 419 l 490 467 l 490 476 q 476 541 490 519 q 421 563 463 563 q 374 551 392 563 q 340 519 356 540 q 304 504 326 504 l 108 504 q 85 513 94 504 q 78 535 76 521 q 99 594 79 560 q 159 660 118 628 q 265 715 200 693 q 422 736 331 736 q 582 715 515 736 q 692 657 649 694 q 756 566 735 619 q 776 447 776 513 l 776 36 q 766 10 776 21 q 740 0 756 0 l 539 0 q 513 10 524 0 q 501 36 501 21 l 501 81 q 453 32 483 53 q 384 -1 424 11 q 296 -14 344 -14 m 376 168 q 438 183 411 168 q 478 228 464 197 q 493 304 493 258 l 493 314 l 393 294 q 321 267 342 285 q 300 225 300 249 q 310 196 300 208 q 337 176 319 183 q 376 168 354 168 m 363 826 q 330 833 342 826 q 307 849 318 839 l 113 1008 q 106 1025 106 1015 q 132 1053 106 1053 l 353 1053 q 380 1048 369 1053 q 404 1026 390 1043 l 535 867 q 542 849 542 860 q 519 826 542 826 l 363 826 z "},"ā":{"ha":842,"x_min":31,"x_max":776,"o":"m 296 -14 q 159 15 219 -14 q 65 94 99 44 q 31 204 31 143 q 112 362 31 304 q 329 442 193 419 l 490 467 l 490 476 q 476 541 490 519 q 421 563 463 563 q 374 551 392 563 q 340 519 356 540 q 304 504 326 504 l 108 504 q 85 513 94 504 q 78 535 76 521 q 99 594 79 560 q 159 660 118 628 q 265 715 200 693 q 422 736 331 736 q 582 715 515 736 q 692 657 649 694 q 756 566 735 619 q 776 447 776 513 l 776 36 q 766 10 776 21 q 740 0 756 0 l 539 0 q 513 10 524 0 q 501 36 501 21 l 501 81 q 453 32 483 53 q 384 -1 424 11 q 296 -14 344 -14 m 376 168 q 438 183 411 168 q 478 228 464 197 q 493 304 493 258 l 493 314 l 393 294 q 321 267 342 285 q 300 225 300 249 q 310 196 300 208 q 337 176 319 183 q 376 168 354 168 m 208 833 q 185 842 193 833 q 176 865 176 851 l 176 986 q 185 1009 176 1000 q 208 1018 193 1018 l 629 1018 q 651 1009 643 1018 q 660 986 660 1000 l 660 865 q 651 842 660 851 q 629 833 643 833 l 208 833 z "},"ą":{"ha":842,"x_min":31,"x_max":776,"o":"m 722 -306 q 597 -276 646 -306 q 523 -194 547 -246 q 499 -79 499 -143 q 503 -45 499 -61 q 513 -15 507 -29 q 525 10 519 -1 q 508 20 514 11 q 501 40 501 29 l 501 81 q 453 32 483 53 q 384 -1 424 11 q 296 -14 344 -14 q 159 15 219 -14 q 65 94 99 44 q 31 204 31 143 q 112 362 31 304 q 329 442 193 419 l 490 467 l 490 476 q 476 541 490 519 q 421 563 463 563 q 375 551 392 563 q 344 527 358 540 q 310 510 329 514 q 306 505 308 506 q 300 504 304 504 l 108 504 q 85 513 94 504 q 78 535 76 521 q 99 594 79 560 q 159 660 118 628 q 265 715 200 693 q 422 736 331 736 q 582 715 515 736 q 692 657 649 694 q 756 566 735 619 q 776 447 776 513 l 776 36 q 767 12 776 22 q 742 0 757 1 l 724 0 q 672 -29 688 -6 q 657 -79 657 -53 q 673 -130 657 -107 q 728 -153 689 -153 l 740 -153 q 766 -163 756 -153 q 776 -189 776 -174 l 776 -269 q 766 -295 776 -285 q 740 -306 756 -306 l 722 -306 m 376 168 q 438 183 411 168 q 478 228 464 197 q 493 304 493 258 l 493 314 l 393 294 q 321 267 342 285 q 300 225 300 249 q 310 196 300 208 q 337 176 319 183 q 376 168 354 168 z "},"å":{"ha":842,"x_min":31,"x_max":776,"o":"m 296 -14 q 159 15 219 -14 q 65 94 99 44 q 31 204 31 143 q 112 362 31 304 q 329 442 193 419 l 490 467 l 490 476 q 476 541 490 519 q 421 563 463 563 q 374 551 392 563 q 340 519 356 540 q 304 504 326 504 l 108 504 q 85 513 94 504 q 78 535 76 521 q 99 594 79 560 q 159 660 118 628 q 265 715 200 693 q 422 736 331 736 q 582 715 515 736 q 692 657 649 694 q 756 566 735 619 q 776 447 776 513 l 776 36 q 766 10 776 21 q 740 0 756 0 l 539 0 q 513 10 524 0 q 501 36 501 21 l 501 81 q 453 32 483 53 q 384 -1 424 11 q 296 -14 344 -14 m 376 168 q 438 183 411 168 q 478 228 464 197 q 493 304 493 258 l 493 314 l 393 294 q 321 267 342 285 q 300 225 300 249 q 310 196 300 208 q 337 176 319 183 q 376 168 354 168 m 419 819 q 326 856 365 819 q 286 946 286 892 q 325 1038 286 1001 q 419 1074 364 1074 q 514 1038 475 1074 q 553 946 553 1001 q 514 856 553 892 q 419 819 475 819 m 419 904 q 449 916 438 904 q 461 946 461 928 q 449 976 461 964 q 419 988 438 988 q 390 976 401 988 q 378 946 378 964 q 390 916 378 928 q 419 904 401 904 z "},"ã":{"ha":842,"x_min":31,"x_max":776,"o":"m 296 -14 q 159 15 219 -14 q 65 94 99 44 q 31 204 31 143 q 112 362 31 304 q 329 442 193 419 l 490 467 l 490 476 q 476 541 490 519 q 421 563 463 563 q 374 551 392 563 q 340 519 356 540 q 304 504 326 504 l 108 504 q 85 513 94 504 q 78 535 76 521 q 99 594 79 560 q 159 660 118 628 q 265 715 200 693 q 422 736 331 736 q 582 715 515 736 q 692 657 649 694 q 756 566 735 619 q 776 447 776 513 l 776 36 q 766 10 776 21 q 740 0 756 0 l 539 0 q 513 10 524 0 q 501 36 501 21 l 501 81 q 453 32 483 53 q 384 -1 424 11 q 296 -14 344 -14 m 376 168 q 438 183 411 168 q 478 228 464 197 q 493 304 493 258 l 493 314 l 393 294 q 321 267 342 285 q 300 225 300 249 q 310 196 300 208 q 337 176 319 183 q 376 168 354 168 m 507 819 q 442 832 468 819 q 397 857 417 844 q 351 869 376 869 q 322 859 331 869 q 306 838 313 849 q 283 826 299 826 l 183 826 q 166 834 174 826 q 158 851 158 842 q 167 907 158 874 q 194 972 175 940 q 247 1026 214 1004 q 331 1047 279 1047 q 395 1035 369 1047 q 441 1010 421 1022 q 488 997 461 997 q 515 1008 507 997 q 531 1030 524 1019 q 554 1040 539 1040 l 654 1040 q 673 1033 667 1040 q 679 1015 679 1025 q 671 959 679 992 q 643 894 663 926 q 590 841 624 863 q 507 819 557 819 z "},"æ":{"ha":1285,"x_min":31,"x_max":1242,"o":"m 318 -14 q 163 15 228 -14 q 65 94 99 44 q 31 204 31 143 q 112 363 31 304 q 329 443 193 421 l 490 468 l 490 479 q 476 542 490 522 q 421 563 461 563 q 375 551 392 563 q 344 527 358 540 q 310 510 329 514 q 306 505 308 506 q 300 504 304 504 l 108 504 q 86 513 94 504 q 78 535 78 521 q 97 594 78 560 q 158 660 117 628 q 265 715 200 693 q 422 736 331 736 q 560 719 506 736 q 646 671 614 701 q 744 719 689 701 q 864 736 799 736 q 1038 706 967 736 q 1154 622 1108 675 q 1221 501 1200 568 q 1242 363 1242 433 l 1242 324 q 1231 299 1242 310 q 1206 288 1221 288 l 779 288 l 779 279 q 790 215 779 240 q 819 177 800 189 q 863 165 839 165 q 900 175 883 165 q 932 203 917 185 q 953 219 944 215 q 976 222 961 222 l 1193 222 q 1224 193 1224 222 q 1202 133 1224 168 q 1136 65 1181 99 q 1024 8 1092 31 q 865 -14 957 -14 q 709 12 778 -14 q 594 83 640 38 q 461 6 535 25 q 318 -14 388 -14 m 376 168 q 438 183 411 168 q 478 228 464 197 q 493 304 493 258 l 493 314 l 393 294 q 322 267 343 285 q 300 225 300 249 q 310 196 300 208 q 338 176 321 183 q 376 168 354 168 m 779 443 l 950 443 l 950 449 q 928 533 950 504 q 864 563 907 563 q 821 551 840 563 q 790 514 801 539 q 779 449 779 489 l 779 443 z "},"ǽ":{"ha":1285,"x_min":31,"x_max":1242,"o":"m 318 -14 q 163 15 228 -14 q 65 94 99 44 q 31 204 31 143 q 112 363 31 304 q 329 443 193 421 l 490 468 l 490 479 q 476 542 490 522 q 421 563 461 563 q 375 551 392 563 q 344 527 358 540 q 310 510 329 514 q 306 505 308 506 q 300 504 304 504 l 108 504 q 86 513 94 504 q 78 535 78 521 q 97 594 78 560 q 158 660 117 628 q 265 715 200 693 q 422 736 331 736 q 560 719 506 736 q 646 671 614 701 q 744 719 689 701 q 864 736 799 736 q 1038 706 967 736 q 1154 622 1108 675 q 1221 501 1200 568 q 1242 363 1242 433 l 1242 324 q 1231 299 1242 310 q 1206 288 1221 288 l 779 288 l 779 279 q 790 215 779 240 q 819 177 800 189 q 863 165 839 165 q 900 175 883 165 q 932 203 917 185 q 953 219 944 215 q 976 222 961 222 l 1193 222 q 1224 193 1224 222 q 1202 133 1224 168 q 1136 65 1181 99 q 1024 8 1092 31 q 865 -14 957 -14 q 709 12 778 -14 q 594 83 640 38 q 461 6 535 25 q 318 -14 388 -14 m 376 168 q 438 183 411 168 q 478 228 464 197 q 493 304 493 258 l 493 314 l 393 294 q 322 267 343 285 q 300 225 300 249 q 310 196 300 208 q 338 176 321 183 q 376 168 354 168 m 779 443 l 950 443 l 950 449 q 928 533 950 504 q 864 563 907 563 q 821 551 840 563 q 790 514 801 539 q 779 449 779 489 l 779 443 m 544 826 q 522 849 522 826 q 529 867 522 860 l 660 1026 q 684 1048 674 1043 q 711 1053 694 1053 l 932 1053 q 958 1025 958 1053 q 951 1008 958 1015 l 757 849 q 734 833 746 839 q 701 826 722 826 l 544 826 z "},"b":{"ha":897,"x_min":72,"x_max":849,"o":"m 551 -14 q 426 10 476 -14 q 340 75 375 35 l 340 36 q 330 10 340 21 q 304 0 319 0 l 108 0 q 83 10 93 0 q 72 36 72 21 l 72 950 q 83 976 72 965 q 108 986 93 986 l 322 986 q 347 976 336 986 q 358 950 358 965 l 358 663 q 440 716 392 696 q 551 736 488 736 q 669 715 617 736 q 761 653 722 693 q 822 552 800 613 q 847 414 844 492 q 849 363 849 385 q 847 310 849 340 q 821 167 843 228 q 760 65 799 106 q 669 6 721 25 q 551 -14 617 -14 m 457 203 q 513 217 493 203 q 542 258 533 232 q 554 317 551 283 q 554 406 558 361 q 542 465 551 439 q 513 505 533 490 q 457 519 493 519 q 401 506 422 519 q 370 469 381 492 q 358 418 360 447 q 357 367 357 390 q 358 314 357 344 q 369 258 360 283 q 399 218 378 233 q 457 203 421 203 z "},"c":{"ha":842,"x_min":47,"x_max":808,"o":"m 422 -14 q 235 23 318 -14 q 103 131 153 60 q 49 304 54 203 q 47 360 47 326 q 49 417 47 393 q 103 591 54 519 q 235 699 151 663 q 422 736 318 736 q 598 707 525 736 q 716 635 671 678 q 783 549 761 592 q 807 476 806 506 q 797 451 808 461 q 771 440 785 440 l 547 440 q 524 447 532 440 q 508 468 515 454 q 476 513 494 499 q 428 528 458 528 q 364 498 385 528 q 342 410 343 468 q 342 311 339 353 q 365 223 344 251 q 428 194 385 194 q 479 209 463 194 q 508 254 496 224 q 523 276 514 268 q 547 283 532 283 l 771 283 q 797 272 785 283 q 807 246 808 261 q 792 194 806 226 q 752 126 779 161 q 681 58 725 90 q 572 6 636 26 q 422 -14 508 -14 z "},"ć":{"ha":842,"x_min":47,"x_max":808,"o":"m 422 -14 q 235 23 318 -14 q 103 131 153 60 q 49 304 54 203 q 47 360 47 326 q 49 417 47 393 q 103 591 54 519 q 235 699 151 663 q 422 736 318 736 q 598 707 525 736 q 716 635 671 678 q 783 549 761 592 q 807 476 806 506 q 797 451 808 461 q 771 440 785 440 l 547 440 q 524 447 532 440 q 508 468 515 454 q 476 513 494 499 q 428 528 458 528 q 364 498 385 528 q 342 410 343 468 q 342 311 339 353 q 365 223 344 251 q 428 194 385 194 q 479 209 463 194 q 508 254 496 224 q 523 276 514 268 q 547 283 532 283 l 771 283 q 797 272 785 283 q 807 246 808 261 q 792 194 806 226 q 752 126 779 161 q 681 58 725 90 q 572 6 636 26 q 422 -14 508 -14 m 322 826 q 300 849 300 826 q 307 867 300 860 l 438 1026 q 462 1048 451 1043 q 489 1053 472 1053 l 710 1053 q 736 1025 736 1053 q 729 1008 736 1015 l 535 849 q 512 833 524 839 q 479 826 500 826 l 322 826 z "},"č":{"ha":842,"x_min":47,"x_max":808,"o":"m 422 -14 q 235 23 318 -14 q 103 131 153 60 q 49 304 54 203 q 47 360 47 326 q 49 417 47 393 q 103 591 54 519 q 235 699 151 663 q 422 736 318 736 q 598 707 525 736 q 716 635 671 678 q 783 549 761 592 q 807 476 806 506 q 797 451 808 461 q 771 440 785 440 l 547 440 q 524 447 532 440 q 508 468 515 454 q 476 513 494 499 q 428 528 458 528 q 364 498 385 528 q 342 410 343 468 q 342 311 339 353 q 365 223 344 251 q 428 194 385 194 q 479 209 463 194 q 508 254 496 224 q 523 276 514 268 q 547 283 532 283 l 771 283 q 797 272 785 283 q 807 246 808 261 q 792 194 806 226 q 752 126 779 161 q 681 58 725 90 q 572 6 636 26 q 422 -14 508 -14 m 351 826 q 327 832 338 826 q 301 851 317 838 l 153 1011 q 144 1031 144 1019 q 165 1053 144 1053 l 244 1053 q 271 1051 257 1053 q 296 1043 285 1049 l 421 979 l 546 1043 q 572 1051 560 1049 q 597 1053 585 1053 l 676 1053 q 699 1031 699 1053 q 689 1011 699 1019 l 540 851 q 515 832 526 838 q 490 826 504 826 l 351 826 z "},"ç":{"ha":842,"x_min":47,"x_max":808,"o":"m 422 -306 q 356 -293 386 -306 q 313 -264 325 -281 q 314 -235 300 -247 l 342 -211 q 363 -203 354 -200 q 384 -212 371 -206 q 422 -219 397 -219 q 454 -208 443 -219 q 465 -182 465 -197 q 455 -156 465 -167 q 422 -144 444 -144 q 394 -149 408 -144 q 368 -153 381 -153 q 346 -146 356 -154 l 318 -118 q 308 -99 308 -108 q 317 -72 308 -90 l 346 -8 q 137 90 218 10 q 49 304 56 171 q 47 360 47 326 q 49 417 47 393 q 103 591 54 519 q 235 699 151 663 q 422 736 318 736 q 598 707 525 736 q 716 635 671 678 q 783 549 761 592 q 807 476 806 506 q 797 451 808 461 q 771 440 785 440 l 547 440 q 524 447 532 440 q 508 468 515 454 q 476 513 494 499 q 428 528 458 528 q 364 498 385 528 q 342 410 343 468 q 342 311 339 353 q 365 223 344 251 q 428 194 385 194 q 479 209 463 194 q 508 254 496 224 q 523 276 514 268 q 547 283 532 283 l 771 283 q 797 272 785 283 q 807 246 808 261 q 785 178 806 221 q 722 92 765 136 q 606 18 678 49 q 431 -14 535 -12 l 404 -65 q 427 -60 413 -62 q 447 -58 442 -58 q 528 -92 499 -58 q 558 -181 558 -126 q 522 -271 558 -236 q 422 -306 486 -306 z "},"ĉ":{"ha":842,"x_min":47,"x_max":808,"o":"m 422 -14 q 235 23 318 -14 q 103 131 153 60 q 49 304 54 203 q 47 360 47 326 q 49 417 47 393 q 103 591 54 519 q 235 699 151 663 q 422 736 318 736 q 598 707 525 736 q 716 635 671 678 q 783 549 761 592 q 807 476 806 506 q 797 451 808 461 q 771 440 785 440 l 547 440 q 524 447 532 440 q 508 468 515 454 q 476 513 494 499 q 428 528 458 528 q 364 498 385 528 q 342 410 343 468 q 342 311 339 353 q 365 223 344 251 q 428 194 385 194 q 479 209 463 194 q 508 254 496 224 q 523 276 514 268 q 547 283 532 283 l 771 283 q 797 272 785 283 q 807 246 808 261 q 792 194 806 226 q 752 126 779 161 q 681 58 725 90 q 572 6 636 26 q 422 -14 508 -14 m 165 826 q 144 847 144 826 q 153 867 144 858 l 301 1026 q 327 1047 317 1042 q 351 1053 338 1053 l 490 1053 q 515 1047 504 1053 q 540 1026 526 1042 l 689 867 q 699 847 699 858 q 676 826 699 826 l 597 826 q 572 828 585 826 q 546 836 560 829 l 421 899 l 296 836 q 271 828 285 829 q 244 826 257 826 l 165 826 z "},"ċ":{"ha":842,"x_min":47,"x_max":808,"o":"m 422 -14 q 235 23 318 -14 q 103 131 153 60 q 49 304 54 203 q 47 360 47 326 q 49 417 47 393 q 103 591 54 519 q 235 699 151 663 q 422 736 318 736 q 598 707 525 736 q 716 635 671 678 q 783 549 761 592 q 807 476 806 506 q 797 451 808 461 q 771 440 785 440 l 547 440 q 524 447 532 440 q 508 468 515 454 q 476 513 494 499 q 428 528 458 528 q 364 498 385 528 q 342 410 343 468 q 342 311 339 353 q 365 223 344 251 q 428 194 385 194 q 479 209 463 194 q 508 254 496 224 q 523 276 514 268 q 547 283 532 283 l 771 283 q 797 272 785 283 q 807 246 808 261 q 792 194 806 226 q 752 126 779 161 q 681 58 725 90 q 572 6 636 26 q 422 -14 508 -14 m 342 832 q 318 841 326 832 q 310 864 310 850 l 310 1024 q 318 1047 310 1038 q 342 1056 326 1056 l 501 1056 q 524 1047 515 1056 q 533 1024 533 1038 l 533 864 q 524 841 533 850 q 501 832 515 832 l 342 832 z "},"d":{"ha":897,"x_min":49,"x_max":825,"o":"m 346 -14 q 229 6 282 -14 q 138 65 176 25 q 76 167 99 106 q 50 310 54 228 q 49 363 49 340 q 50 414 49 385 q 75 552 53 492 q 136 653 97 613 q 228 715 175 693 q 346 736 282 736 q 457 716 408 736 q 539 663 506 696 l 539 950 q 550 976 539 965 q 575 986 561 986 l 789 986 q 815 976 804 986 q 825 950 825 965 l 825 36 q 815 10 825 21 q 789 0 804 0 l 593 0 q 567 10 578 0 q 556 36 556 21 l 556 75 q 472 10 522 35 q 346 -14 421 -14 m 440 203 q 498 218 476 203 q 528 258 519 233 q 539 314 538 283 q 542 367 542 344 q 539 418 542 390 q 527 469 538 447 q 496 506 517 492 q 440 519 475 519 q 385 505 406 519 q 355 465 364 490 q 343 406 346 439 q 343 317 339 361 q 355 258 346 283 q 385 217 364 232 q 440 203 406 203 z "},"ð":{"ha":864,"x_min":43,"x_max":813,"o":"m 428 -14 q 225 24 311 -14 q 91 136 139 61 q 43 319 43 211 q 93 503 43 429 q 231 615 143 578 q 428 653 318 653 q 455 650 443 653 q 478 643 467 647 q 428 735 458 692 l 269 674 q 253 669 260 669 q 233 678 240 669 q 225 699 225 686 l 225 735 q 232 763 225 753 q 256 778 239 772 l 354 817 q 298 868 328 843 q 236 915 268 893 q 221 929 225 922 q 217 942 217 936 q 226 963 217 954 q 247 972 235 972 l 464 972 q 507 967 490 972 q 533 954 524 961 q 562 931 547 942 q 589 908 576 921 l 714 957 q 731 961 725 961 q 750 953 742 961 q 758 932 758 944 l 758 896 q 751 869 758 879 q 728 853 744 860 l 665 828 q 768 641 731 749 q 813 386 806 533 q 813 349 813 368 q 813 314 813 331 q 760 135 807 208 q 628 24 713 61 q 428 -14 544 -14 m 428 182 q 481 195 461 182 q 510 233 500 208 q 519 289 519 257 q 521 319 521 306 q 519 350 521 332 q 510 405 518 381 q 482 443 501 429 q 428 457 463 457 q 374 443 394 457 q 346 405 354 429 q 336 350 338 381 q 335 319 335 332 q 336 289 335 307 q 346 233 338 258 q 374 195 354 208 q 428 182 394 182 z "},"ď":{"ha":1069,"x_min":49,"x_max":1179,"o":"m 346 -14 q 229 6 282 -14 q 138 65 176 25 q 76 167 99 106 q 50 310 54 228 q 49 363 49 340 q 50 414 49 385 q 75 552 53 492 q 136 653 97 613 q 228 715 175 693 q 346 736 282 736 q 457 716 408 736 q 539 663 506 696 l 539 950 q 550 976 539 965 q 575 986 561 986 l 789 986 q 815 976 804 986 q 825 950 825 965 l 825 36 q 815 10 825 21 q 789 0 804 0 l 593 0 q 567 10 578 0 q 556 36 556 21 l 556 75 q 472 10 522 35 q 346 -14 421 -14 m 440 203 q 498 218 476 203 q 528 258 519 233 q 539 314 538 283 q 542 367 542 344 q 539 418 542 390 q 527 469 538 447 q 496 506 517 492 q 440 519 475 519 q 385 505 406 519 q 355 465 364 490 q 343 406 346 439 q 343 317 339 361 q 355 258 346 283 q 385 217 364 232 q 440 203 406 203 m 926 719 q 906 728 914 719 q 899 749 897 736 l 926 935 q 942 970 929 954 q 981 986 956 986 l 1151 986 q 1171 978 1163 986 q 1179 957 1179 969 q 1178 944 1179 950 l 1106 760 q 1088 733 1100 746 q 1050 719 1075 719 l 926 719 z "},"đ":{"ha":899,"x_min":50,"x_max":910,"o":"m 346 -14 q 227 6 281 -14 q 135 67 174 26 q 76 169 97 108 q 51 310 54 229 q 50 363 50 340 q 51 414 50 385 q 74 549 53 489 q 134 651 96 610 q 226 714 172 692 q 346 736 281 736 q 458 716 410 736 q 539 663 506 696 l 539 767 l 490 767 q 465 778 475 767 q 454 803 454 789 l 454 864 q 465 890 454 879 q 490 901 475 901 l 539 901 l 539 950 q 550 976 539 965 q 576 986 561 986 l 789 986 q 815 976 804 986 q 825 950 825 965 l 825 901 l 874 901 q 899 890 889 901 q 910 864 910 879 l 910 803 q 899 778 910 789 q 874 767 889 767 l 825 767 l 825 36 q 815 10 825 21 q 789 0 804 0 l 593 0 q 567 10 578 0 q 557 36 557 21 l 557 82 q 473 13 525 40 q 346 -14 421 -14 m 440 203 q 499 218 478 203 q 528 258 519 233 q 539 314 538 283 q 542 367 542 344 q 539 418 542 390 q 527 469 538 447 q 496 506 517 492 q 440 519 475 519 q 385 505 406 519 q 355 465 364 490 q 343 406 346 439 q 343 317 339 361 q 355 258 346 283 q 385 217 364 232 q 440 203 406 203 z "},"e":{"ha":846,"x_min":46,"x_max":804,"o":"m 426 -14 q 151 76 253 -14 q 46 350 49 165 q 46 365 46 356 q 46 378 46 374 q 97 573 50 493 q 227 694 143 653 q 425 736 311 736 q 637 685 553 736 q 763 551 721 635 q 804 363 804 467 l 804 324 q 793 299 804 310 q 767 288 782 288 l 339 288 q 339 285 339 288 q 339 279 339 282 q 348 220 339 246 q 376 180 357 194 q 424 165 396 165 q 454 171 442 165 q 476 185 467 176 q 493 203 486 194 q 513 219 506 215 q 538 222 521 222 l 756 222 q 777 214 768 222 q 785 193 786 206 q 761 133 783 168 q 695 64 739 97 q 583 8 651 31 q 426 -14 515 -14 m 339 443 l 511 443 l 511 446 q 501 510 511 483 q 472 549 492 536 q 425 563 453 563 q 378 549 397 563 q 349 510 358 536 q 339 446 339 483 l 339 443 z "},"é":{"ha":846,"x_min":46,"x_max":804,"o":"m 426 -14 q 151 76 253 -14 q 46 350 49 165 q 46 365 46 356 q 46 378 46 374 q 97 573 50 493 q 227 694 143 653 q 425 736 311 736 q 637 685 553 736 q 763 551 721 635 q 804 363 804 467 l 804 324 q 793 299 804 310 q 767 288 782 288 l 339 288 q 339 285 339 288 q 339 279 339 282 q 348 220 339 246 q 376 180 357 194 q 424 165 396 165 q 454 171 442 165 q 476 185 467 176 q 493 203 486 194 q 513 219 506 215 q 538 222 521 222 l 756 222 q 777 214 768 222 q 785 193 786 206 q 761 133 783 168 q 695 64 739 97 q 583 8 651 31 q 426 -14 515 -14 m 339 443 l 511 443 l 511 446 q 501 510 511 483 q 472 549 492 536 q 425 563 453 563 q 378 549 397 563 q 349 510 358 536 q 339 446 339 483 l 339 443 m 324 826 q 301 849 301 826 q 308 867 301 860 l 439 1026 q 463 1048 453 1043 q 490 1053 474 1053 l 711 1053 q 738 1025 738 1053 q 731 1008 738 1015 l 536 849 q 513 833 525 839 q 481 826 501 826 l 324 826 z "},"ĕ":{"ha":846,"x_min":46,"x_max":804,"o":"m 426 -14 q 151 76 253 -14 q 46 350 49 165 q 46 365 46 356 q 46 378 46 374 q 97 573 50 493 q 227 694 143 653 q 425 736 311 736 q 637 685 553 736 q 763 551 721 635 q 804 363 804 467 l 804 324 q 793 299 804 310 q 767 288 782 288 l 339 288 q 339 285 339 288 q 339 279 339 282 q 348 220 339 246 q 376 180 357 194 q 424 165 396 165 q 454 171 442 165 q 476 185 467 176 q 493 203 486 194 q 513 219 506 215 q 538 222 521 222 l 756 222 q 777 214 768 222 q 785 193 786 206 q 761 133 783 168 q 695 64 739 97 q 583 8 651 31 q 426 -14 515 -14 m 339 443 l 511 443 l 511 446 q 501 510 511 483 q 472 549 492 536 q 425 563 453 563 q 378 549 397 563 q 349 510 358 536 q 339 446 339 483 l 339 443 m 424 819 q 301 847 350 819 q 226 922 251 875 q 201 1026 201 968 q 208 1045 201 1038 q 228 1053 215 1053 l 338 1053 q 357 1045 350 1053 q 364 1026 364 1038 q 377 970 364 994 q 424 946 390 946 q 471 970 458 946 q 483 1026 483 994 q 490 1045 483 1038 q 510 1053 497 1053 l 619 1053 q 639 1045 632 1053 q 646 1026 646 1038 q 622 922 646 968 q 547 847 597 875 q 424 819 497 819 z "},"ě":{"ha":846,"x_min":46,"x_max":804,"o":"m 426 -14 q 151 76 253 -14 q 46 350 49 165 q 46 365 46 356 q 46 378 46 374 q 97 573 50 493 q 227 694 143 653 q 425 736 311 736 q 637 685 553 736 q 763 551 721 635 q 804 363 804 467 l 804 324 q 793 299 804 310 q 767 288 782 288 l 339 288 q 339 285 339 288 q 339 279 339 282 q 348 220 339 246 q 376 180 357 194 q 424 165 396 165 q 454 171 442 165 q 476 185 467 176 q 493 203 486 194 q 513 219 506 215 q 538 222 521 222 l 756 222 q 777 214 768 222 q 785 193 786 206 q 761 133 783 168 q 695 64 739 97 q 583 8 651 31 q 426 -14 515 -14 m 339 443 l 511 443 l 511 446 q 501 510 511 483 q 472 549 492 536 q 425 563 453 563 q 378 549 397 563 q 349 510 358 536 q 339 446 339 483 l 339 443 m 354 826 q 330 832 340 826 q 304 851 319 838 l 156 1011 q 147 1031 147 1019 q 168 1053 147 1053 l 247 1053 q 274 1051 260 1053 q 299 1043 288 1049 l 424 979 l 549 1043 q 575 1051 563 1049 q 600 1053 588 1053 l 679 1053 q 701 1031 701 1053 q 692 1011 701 1019 l 543 851 q 518 832 529 838 q 493 826 507 826 l 354 826 z "},"ê":{"ha":846,"x_min":46,"x_max":804,"o":"m 426 -14 q 151 76 253 -14 q 46 350 49 165 q 46 365 46 356 q 46 378 46 374 q 97 573 50 493 q 227 694 143 653 q 425 736 311 736 q 637 685 553 736 q 763 551 721 635 q 804 363 804 467 l 804 324 q 793 299 804 310 q 767 288 782 288 l 339 288 q 339 285 339 288 q 339 279 339 282 q 348 220 339 246 q 376 180 357 194 q 424 165 396 165 q 454 171 442 165 q 476 185 467 176 q 493 203 486 194 q 513 219 506 215 q 538 222 521 222 l 756 222 q 777 214 768 222 q 785 193 786 206 q 761 133 783 168 q 695 64 739 97 q 583 8 651 31 q 426 -14 515 -14 m 339 443 l 511 443 l 511 446 q 501 510 511 483 q 472 549 492 536 q 425 563 453 563 q 378 549 397 563 q 349 510 358 536 q 339 446 339 483 l 339 443 m 168 826 q 147 847 147 826 q 156 867 147 858 l 304 1026 q 330 1047 319 1042 q 354 1053 340 1053 l 493 1053 q 518 1047 507 1053 q 543 1026 529 1042 l 692 867 q 701 847 701 858 q 679 826 701 826 l 600 826 q 575 828 588 826 q 549 836 563 829 l 424 899 l 299 836 q 274 828 288 829 q 247 826 260 826 l 168 826 z "},"ë":{"ha":846,"x_min":46,"x_max":804,"o":"m 426 -14 q 151 76 253 -14 q 46 350 49 165 q 46 365 46 356 q 46 378 46 374 q 97 573 50 493 q 227 694 143 653 q 425 736 311 736 q 637 685 553 736 q 763 551 721 635 q 804 363 804 467 l 804 324 q 793 299 804 310 q 767 288 782 288 l 339 288 q 339 285 339 288 q 339 279 339 282 q 348 220 339 246 q 376 180 357 194 q 424 165 396 165 q 454 171 442 165 q 476 185 467 176 q 493 203 486 194 q 513 219 506 215 q 538 222 521 222 l 756 222 q 777 214 768 222 q 785 193 786 206 q 761 133 783 168 q 695 64 739 97 q 583 8 651 31 q 426 -14 515 -14 m 339 443 l 511 443 l 511 446 q 501 510 511 483 q 472 549 492 536 q 425 563 453 563 q 378 549 397 563 q 349 510 358 536 q 339 446 339 483 l 339 443 m 501 835 q 479 843 488 835 q 471 867 471 851 l 471 1017 q 479 1040 471 1031 q 501 1049 488 1049 l 651 1049 q 674 1040 665 1049 q 683 1017 683 1031 l 683 867 q 674 843 683 851 q 651 835 665 835 l 501 835 m 193 835 q 169 843 178 835 q 161 867 161 851 l 161 1017 q 169 1040 161 1031 q 193 1049 178 1049 l 342 1049 q 365 1040 356 1049 q 374 1017 374 1031 l 374 867 q 365 843 374 851 q 342 835 356 835 l 193 835 z "},"ė":{"ha":846,"x_min":46,"x_max":804,"o":"m 426 -14 q 151 76 253 -14 q 46 350 49 165 q 46 365 46 356 q 46 378 46 374 q 97 573 50 493 q 227 694 143 653 q 425 736 311 736 q 637 685 553 736 q 763 551 721 635 q 804 363 804 467 l 804 324 q 793 299 804 310 q 767 288 782 288 l 339 288 q 339 285 339 288 q 339 279 339 282 q 348 220 339 246 q 376 180 357 194 q 424 165 396 165 q 454 171 442 165 q 476 185 467 176 q 493 203 486 194 q 513 219 506 215 q 538 222 521 222 l 756 222 q 777 214 768 222 q 785 193 786 206 q 761 133 783 168 q 695 64 739 97 q 583 8 651 31 q 426 -14 515 -14 m 339 443 l 511 443 l 511 446 q 501 510 511 483 q 472 549 492 536 q 425 563 453 563 q 378 549 397 563 q 349 510 358 536 q 339 446 339 483 l 339 443 m 343 832 q 319 841 328 832 q 311 864 311 850 l 311 1024 q 319 1047 311 1038 q 343 1056 328 1056 l 503 1056 q 526 1047 517 1056 q 535 1024 535 1038 l 535 864 q 526 841 535 850 q 503 832 517 832 l 343 832 z "},"è":{"ha":846,"x_min":46,"x_max":804,"o":"m 426 -14 q 151 76 253 -14 q 46 350 49 165 q 46 365 46 356 q 46 378 46 374 q 97 573 50 493 q 227 694 143 653 q 425 736 311 736 q 637 685 553 736 q 763 551 721 635 q 804 363 804 467 l 804 324 q 793 299 804 310 q 767 288 782 288 l 339 288 q 339 285 339 288 q 339 279 339 282 q 348 220 339 246 q 376 180 357 194 q 424 165 396 165 q 454 171 442 165 q 476 185 467 176 q 493 203 486 194 q 513 219 506 215 q 538 222 521 222 l 756 222 q 777 214 768 222 q 785 193 786 206 q 761 133 783 168 q 695 64 739 97 q 583 8 651 31 q 426 -14 515 -14 m 339 443 l 511 443 l 511 446 q 501 510 511 483 q 472 549 492 536 q 425 563 453 563 q 378 549 397 563 q 349 510 358 536 q 339 446 339 483 l 339 443 m 367 826 q 334 833 346 826 q 311 849 322 839 l 117 1008 q 110 1025 110 1015 q 136 1053 110 1053 l 357 1053 q 384 1048 374 1053 q 408 1026 394 1043 l 539 867 q 546 849 546 860 q 524 826 546 826 l 367 826 z "},"ē":{"ha":846,"x_min":46,"x_max":804,"o":"m 426 -14 q 151 76 253 -14 q 46 350 49 165 q 46 365 46 356 q 46 378 46 374 q 97 573 50 493 q 227 694 143 653 q 425 736 311 736 q 637 685 553 736 q 763 551 721 635 q 804 363 804 467 l 804 324 q 793 299 804 310 q 767 288 782 288 l 339 288 q 339 285 339 288 q 339 279 339 282 q 348 220 339 246 q 376 180 357 194 q 424 165 396 165 q 454 171 442 165 q 476 185 467 176 q 493 203 486 194 q 513 219 506 215 q 538 222 521 222 l 756 222 q 777 214 768 222 q 785 193 786 206 q 761 133 783 168 q 695 64 739 97 q 583 8 651 31 q 426 -14 515 -14 m 339 443 l 511 443 l 511 446 q 501 510 511 483 q 472 549 492 536 q 425 563 453 563 q 378 549 397 563 q 349 510 358 536 q 339 446 339 483 l 339 443 m 213 833 q 189 842 197 833 q 181 865 181 851 l 181 986 q 189 1009 181 1000 q 213 1018 197 1018 l 633 1018 q 656 1009 647 1018 q 664 986 664 1000 l 664 865 q 656 842 664 851 q 633 833 647 833 l 213 833 z "},"ę":{"ha":846,"x_min":46,"x_max":804,"o":"m 500 -306 q 372 -275 422 -306 q 297 -192 321 -244 q 272 -76 272 -140 q 283 3 272 -32 q 110 120 172 33 q 46 350 47 207 q 46 363 46 356 q 46 376 46 371 q 96 572 49 492 q 228 694 143 653 q 425 736 313 736 q 638 685 554 736 q 763 551 721 635 q 804 363 804 467 l 804 324 q 793 299 804 310 q 768 288 782 288 l 339 288 l 339 279 q 348 220 339 246 q 376 180 357 194 q 424 165 396 165 q 454 171 442 165 q 476 185 467 176 q 493 203 486 194 q 513 219 506 215 q 538 222 521 222 l 756 222 q 778 214 769 222 q 786 193 788 206 q 753 122 785 164 q 663 44 722 81 q 513 -7 604 7 q 449 -32 469 -14 q 429 -76 429 -50 q 447 -128 429 -104 q 506 -153 464 -153 l 521 -153 q 547 -163 536 -153 q 557 -189 557 -174 l 557 -269 q 547 -295 557 -285 q 521 -306 536 -306 l 500 -306 m 339 443 l 511 443 l 511 446 q 501 510 511 483 q 472 549 492 536 q 425 563 453 563 q 378 549 397 563 q 349 510 358 536 q 339 446 339 483 l 339 443 z "},"f":{"ha":649,"x_min":22,"x_max":647,"o":"m 196 0 q 170 10 181 0 q 160 36 160 21 l 160 510 l 58 510 q 33 520 43 510 q 22 546 22 531 l 22 686 q 33 712 22 701 q 58 722 43 722 l 160 722 l 160 757 q 202 920 160 861 q 319 1003 244 979 q 492 1028 394 1028 l 610 1028 q 636 1017 625 1028 q 647 992 647 1007 l 647 851 q 636 826 647 836 q 610 815 625 815 l 506 815 q 450 798 467 815 q 433 750 433 781 l 433 722 l 596 722 q 622 712 611 722 q 633 686 633 701 l 633 546 q 622 520 633 531 q 596 510 611 510 l 433 510 l 433 36 q 423 10 433 21 q 397 0 413 0 l 196 0 z "},"g":{"ha":903,"x_min":49,"x_max":831,"o":"m 453 -306 q 266 -277 340 -306 q 147 -208 192 -249 q 84 -127 103 -167 q 64 -65 65 -87 q 74 -40 63 -50 q 100 -29 85 -29 l 324 -29 q 347 -36 338 -29 q 361 -57 356 -43 q 377 -82 368 -69 q 403 -101 386 -94 q 446 -108 419 -108 q 498 -97 478 -108 q 528 -62 518 -86 q 539 0 539 -39 l 539 93 q 458 42 506 61 q 344 24 410 24 q 223 42 276 24 q 133 100 169 61 q 74 199 96 139 q 50 342 53 258 q 50 414 49 378 q 74 552 53 492 q 132 653 94 613 q 223 715 169 693 q 344 736 276 736 q 469 709 417 736 q 556 639 522 682 l 556 686 q 566 712 556 701 q 592 722 576 722 l 793 722 q 819 712 808 722 q 829 686 829 701 l 831 22 q 783 -162 831 -90 q 650 -270 735 -235 q 453 -306 565 -306 m 440 235 q 494 249 474 235 q 526 285 515 263 q 539 338 536 308 q 540 378 540 350 q 539 417 540 406 q 526 469 536 446 q 494 506 515 492 q 440 519 474 519 q 383 505 404 519 q 353 465 363 490 q 342 406 344 439 q 342 349 339 376 q 353 290 344 315 q 383 249 363 264 q 440 235 404 235 z "},"ğ":{"ha":903,"x_min":49,"x_max":831,"o":"m 453 -306 q 266 -277 340 -306 q 147 -208 192 -249 q 84 -127 103 -167 q 64 -65 65 -87 q 74 -40 63 -50 q 100 -29 85 -29 l 324 -29 q 347 -36 338 -29 q 361 -57 356 -43 q 377 -82 368 -69 q 403 -101 386 -94 q 446 -108 419 -108 q 498 -97 478 -108 q 528 -62 518 -86 q 539 0 539 -39 l 539 93 q 458 42 506 61 q 344 24 410 24 q 223 42 276 24 q 133 100 169 61 q 74 199 96 139 q 50 342 53 258 q 50 414 49 378 q 74 552 53 492 q 132 653 94 613 q 223 715 169 693 q 344 736 276 736 q 469 709 417 736 q 556 639 522 682 l 556 686 q 566 712 556 701 q 592 722 576 722 l 793 722 q 819 712 808 722 q 829 686 829 701 l 831 22 q 783 -162 831 -90 q 650 -270 735 -235 q 453 -306 565 -306 m 440 235 q 494 249 474 235 q 526 285 515 263 q 539 338 536 308 q 540 378 540 350 q 539 417 540 406 q 526 469 536 446 q 494 506 515 492 q 440 519 474 519 q 383 505 404 519 q 353 465 363 490 q 342 406 344 439 q 342 349 339 376 q 353 290 344 315 q 383 249 363 264 q 440 235 404 235 m 442 819 q 319 847 368 819 q 244 922 269 875 q 219 1026 219 968 q 226 1045 219 1038 q 246 1053 233 1053 l 356 1053 q 375 1045 368 1053 q 382 1026 382 1038 q 395 970 382 994 q 442 946 408 946 q 489 970 476 946 q 501 1026 501 994 q 508 1045 501 1038 q 528 1053 515 1053 l 638 1053 q 657 1045 650 1053 q 664 1026 664 1038 q 640 922 664 968 q 565 847 615 875 q 442 819 515 819 z "},"ĝ":{"ha":903,"x_min":49,"x_max":831,"o":"m 453 -306 q 266 -277 340 -306 q 147 -208 192 -249 q 84 -127 103 -167 q 64 -65 65 -87 q 74 -40 63 -50 q 100 -29 85 -29 l 324 -29 q 347 -36 338 -29 q 361 -57 356 -43 q 377 -82 368 -69 q 403 -101 386 -94 q 446 -108 419 -108 q 498 -97 478 -108 q 528 -62 518 -86 q 539 0 539 -39 l 539 93 q 458 42 506 61 q 344 24 410 24 q 223 42 276 24 q 133 100 169 61 q 74 199 96 139 q 50 342 53 258 q 50 414 49 378 q 74 552 53 492 q 132 653 94 613 q 223 715 169 693 q 344 736 276 736 q 469 709 417 736 q 556 639 522 682 l 556 686 q 566 712 556 701 q 592 722 576 722 l 793 722 q 819 712 808 722 q 829 686 829 701 l 831 22 q 783 -162 831 -90 q 650 -270 735 -235 q 453 -306 565 -306 m 440 235 q 494 249 474 235 q 526 285 515 263 q 539 338 536 308 q 540 378 540 350 q 539 417 540 406 q 526 469 536 446 q 494 506 515 492 q 440 519 474 519 q 383 505 404 519 q 353 465 363 490 q 342 406 344 439 q 342 349 339 376 q 353 290 344 315 q 383 249 363 264 q 440 235 404 235 m 186 826 q 165 847 165 826 q 174 867 165 858 l 322 1026 q 348 1047 338 1042 q 372 1053 358 1053 l 511 1053 q 536 1047 525 1053 q 561 1026 547 1042 l 710 867 q 719 847 719 858 q 697 826 719 826 l 618 826 q 593 828 606 826 q 567 836 581 829 l 442 899 l 317 836 q 292 828 306 829 q 265 826 278 826 l 186 826 z "},"ģ":{"ha":903,"x_min":49,"x_max":831,"o":"m 453 -306 q 266 -277 340 -306 q 147 -208 192 -249 q 84 -127 103 -167 q 64 -65 65 -87 q 74 -40 63 -50 q 100 -29 85 -29 l 324 -29 q 347 -36 338 -29 q 361 -57 356 -43 q 377 -82 368 -69 q 403 -101 386 -94 q 446 -108 419 -108 q 498 -97 478 -108 q 528 -62 518 -86 q 539 0 539 -39 l 539 93 q 458 42 506 61 q 344 24 410 24 q 223 42 276 24 q 133 100 169 61 q 74 199 96 139 q 50 342 53 258 q 50 414 49 378 q 74 552 53 492 q 132 653 94 613 q 223 715 169 693 q 344 736 276 736 q 469 709 417 736 q 556 639 522 682 l 556 686 q 566 712 556 701 q 592 722 576 722 l 793 722 q 819 712 808 722 q 829 686 829 701 l 831 22 q 783 -162 831 -90 q 650 -270 735 -235 q 453 -306 565 -306 m 440 235 q 494 249 474 235 q 526 285 515 263 q 539 338 536 308 q 540 378 540 350 q 539 417 540 406 q 526 469 536 446 q 494 506 515 492 q 440 519 474 519 q 383 505 404 519 q 353 465 363 490 q 342 406 344 439 q 342 349 339 376 q 353 290 344 315 q 383 249 363 264 q 440 235 404 235 m 356 826 q 336 835 344 826 q 328 856 328 843 q 329 868 328 863 l 401 1053 q 420 1081 407 1067 q 457 1094 433 1094 l 581 1094 q 601 1085 593 1094 q 608 1064 610 1076 l 581 878 q 565 843 578 860 q 525 826 551 826 l 356 826 z "},"ġ":{"ha":903,"x_min":49,"x_max":831,"o":"m 453 -306 q 266 -277 340 -306 q 147 -208 192 -249 q 84 -127 103 -167 q 64 -65 65 -87 q 74 -40 63 -50 q 100 -29 85 -29 l 324 -29 q 347 -36 338 -29 q 361 -57 356 -43 q 377 -82 368 -69 q 403 -101 386 -94 q 446 -108 419 -108 q 498 -97 478 -108 q 528 -62 518 -86 q 539 0 539 -39 l 539 93 q 458 42 506 61 q 344 24 410 24 q 223 42 276 24 q 133 100 169 61 q 74 199 96 139 q 50 342 53 258 q 50 414 49 378 q 74 552 53 492 q 132 653 94 613 q 223 715 169 693 q 344 736 276 736 q 469 709 417 736 q 556 639 522 682 l 556 686 q 566 712 556 701 q 592 722 576 722 l 793 722 q 819 712 808 722 q 829 686 829 701 l 831 22 q 783 -162 831 -90 q 650 -270 735 -235 q 453 -306 565 -306 m 440 235 q 494 249 474 235 q 526 285 515 263 q 539 338 536 308 q 540 378 540 350 q 539 417 540 406 q 526 469 536 446 q 494 506 515 492 q 440 519 474 519 q 383 505 404 519 q 353 465 363 490 q 342 406 344 439 q 342 349 339 376 q 353 290 344 315 q 383 249 363 264 q 440 235 404 235 m 361 832 q 338 841 346 832 q 329 864 329 850 l 329 1024 q 338 1047 329 1038 q 361 1056 346 1056 l 521 1056 q 544 1047 535 1056 q 553 1024 553 1038 l 553 864 q 544 841 553 850 q 521 832 535 832 l 361 832 z "},"h":{"ha":926,"x_min":72,"x_max":863,"o":"m 108 0 q 83 10 93 0 q 72 36 72 21 l 72 950 q 83 976 72 965 q 108 986 93 986 l 333 986 q 358 976 347 986 q 369 950 369 965 l 369 646 q 460 712 406 688 q 585 736 515 736 q 723 701 660 736 q 824 597 786 667 q 863 422 863 528 l 863 36 q 851 10 863 21 q 826 0 840 0 l 600 0 q 574 10 585 0 q 564 36 564 21 l 564 413 q 539 492 564 464 q 468 519 514 519 q 396 492 422 519 q 369 413 369 464 l 369 36 q 358 10 369 21 q 333 0 347 0 l 108 0 z "},"ħ":{"ha":926,"x_min":-7,"x_max":863,"o":"m 29 756 q 3 766 14 756 q -7 792 -7 776 l -7 853 q 3 878 -7 868 q 29 889 14 889 l 413 889 q 438 878 428 889 q 449 853 449 868 l 449 792 q 438 766 449 776 q 413 756 428 756 l 29 756 m 108 0 q 83 10 93 0 q 72 36 72 21 l 72 950 q 83 976 72 965 q 108 986 93 986 l 333 986 q 358 976 347 986 q 369 950 369 965 l 369 646 q 460 712 406 688 q 585 736 515 736 q 723 701 660 736 q 824 597 786 667 q 863 422 863 528 l 863 36 q 851 10 863 21 q 826 0 840 0 l 600 0 q 574 10 585 0 q 564 36 564 21 l 564 413 q 539 492 564 464 q 468 519 514 519 q 396 492 422 519 q 369 413 369 464 l 369 36 q 358 10 369 21 q 333 0 347 0 l 108 0 z "},"ĥ":{"ha":926,"x_min":72,"x_max":863,"o":"m 108 0 q 83 10 93 0 q 72 36 72 21 l 72 950 q 83 976 72 965 q 108 986 93 986 l 333 986 q 358 976 347 986 q 369 950 369 965 l 369 646 q 460 712 406 688 q 585 736 515 736 q 723 701 660 736 q 824 597 786 667 q 863 422 863 528 l 863 36 q 851 10 863 21 q 826 0 840 0 l 600 0 q 574 10 585 0 q 564 36 564 21 l 564 413 q 539 492 564 464 q 468 519 514 519 q 396 492 422 519 q 369 413 369 464 l 369 36 q 358 10 369 21 q 333 0 347 0 l 108 0 m 208 1043 q 188 1064 188 1043 q 196 1083 188 1075 l 344 1243 q 370 1264 360 1258 q 394 1269 381 1269 l 533 1269 q 558 1264 547 1269 q 583 1243 569 1258 l 732 1083 q 742 1064 742 1075 q 719 1043 742 1043 l 640 1043 q 615 1044 628 1043 q 589 1053 603 1046 l 464 1115 l 339 1053 q 314 1044 328 1046 q 288 1043 300 1043 l 208 1043 z "},"i":{"ha":422,"x_min":72,"x_max":351,"o":"m 108 0 q 83 10 93 0 q 72 36 72 21 l 72 686 q 83 712 72 701 q 108 722 93 722 l 314 722 q 340 712 329 722 q 351 686 351 701 l 351 36 q 340 10 351 21 q 314 0 329 0 l 108 0 m 111 813 q 85 823 96 813 q 75 849 75 833 l 75 994 q 85 1021 75 1010 q 111 1032 96 1032 l 311 1032 q 338 1021 326 1032 q 349 994 349 1010 l 349 849 q 338 823 349 833 q 311 813 326 813 l 111 813 z "},"ı":{"ha":422,"x_min":72,"x_max":351,"o":"m 108 0 q 83 10 93 0 q 72 36 72 21 l 72 686 q 83 712 72 701 q 108 722 93 722 l 314 722 q 340 712 329 722 q 351 686 351 701 l 351 36 q 340 10 351 21 q 314 0 329 0 l 108 0 z "},"í":{"ha":422,"x_min":72,"x_max":526,"o":"m 108 0 q 83 10 93 0 q 72 36 72 21 l 72 686 q 83 712 72 701 q 108 722 93 722 l 314 722 q 340 712 329 722 q 351 686 351 701 l 351 36 q 340 10 351 21 q 314 0 329 0 l 108 0 m 113 826 q 90 849 90 826 q 97 867 90 860 l 228 1026 q 252 1048 242 1043 q 279 1053 263 1053 l 500 1053 q 526 1025 526 1053 q 519 1008 526 1015 l 325 849 q 302 833 314 839 q 269 826 290 826 l 113 826 z "},"ĭ":{"ha":422,"x_min":-11,"x_max":435,"o":"m 108 0 q 83 10 93 0 q 72 36 72 21 l 72 686 q 83 712 72 701 q 108 722 93 722 l 314 722 q 340 712 329 722 q 351 686 351 701 l 351 36 q 340 10 351 21 q 314 0 329 0 l 108 0 m 213 819 q 90 847 139 819 q 15 922 40 875 q -10 1026 -10 968 q -3 1045 -10 1038 q 17 1053 4 1053 l 126 1053 q 146 1045 139 1053 q 153 1026 153 1038 q 166 970 153 994 q 213 946 179 946 q 260 970 247 946 q 272 1026 272 994 q 279 1045 272 1038 q 299 1053 286 1053 l 408 1053 q 428 1045 421 1053 q 435 1026 435 1038 q 410 922 435 968 q 336 847 386 875 q 213 819 286 819 z "},"î":{"ha":422,"x_min":-65,"x_max":489,"o":"m 108 0 q 83 10 93 0 q 72 36 72 21 l 72 686 q 83 712 72 701 q 108 722 93 722 l 314 722 q 340 712 329 722 q 351 686 351 701 l 351 36 q 340 10 351 21 q 314 0 329 0 l 108 0 m -43 826 q -64 847 -64 826 q -56 867 -64 858 l 93 1026 q 119 1047 108 1042 q 143 1053 129 1053 l 282 1053 q 307 1047 296 1053 q 332 1026 318 1042 l 481 867 q 490 847 490 858 q 468 826 490 826 l 389 826 q 364 828 376 826 q 338 836 351 829 l 213 899 l 88 836 q 63 828 76 829 q 36 826 49 826 l -43 826 z "},"ï":{"ha":422,"x_min":-50,"x_max":474,"o":"m 108 0 q 83 10 93 0 q 72 36 72 21 l 72 686 q 83 712 72 701 q 108 722 93 722 l 314 722 q 340 712 329 722 q 351 686 351 701 l 351 36 q 340 10 351 21 q 314 0 329 0 l 108 0 m 290 835 q 268 843 276 835 q 260 867 260 851 l 260 1017 q 268 1040 260 1031 q 290 1049 276 1049 l 440 1049 q 463 1040 454 1049 q 472 1017 472 1031 l 472 867 q 463 843 472 851 q 440 835 454 835 l 290 835 m -18 835 q -42 843 -33 835 q -50 867 -50 851 l -50 1017 q -42 1040 -50 1031 q -18 1049 -33 1049 l 131 1049 q 153 1040 144 1049 q 163 1017 163 1031 l 163 867 q 153 843 163 851 q 131 835 144 835 l -18 835 z "},"ì":{"ha":422,"x_min":-101,"x_max":351,"o":"m 108 0 q 83 10 93 0 q 72 36 72 21 l 72 686 q 83 712 72 701 q 108 722 93 722 l 314 722 q 340 712 329 722 q 351 686 351 701 l 351 36 q 340 10 351 21 q 314 0 329 0 l 108 0 m 156 826 q 123 833 135 826 q 100 849 111 839 l -94 1008 q -101 1025 -101 1015 q -75 1053 -101 1053 l 146 1053 q 173 1048 163 1053 q 197 1026 183 1043 l 328 867 q 335 849 335 860 q 313 826 335 826 l 156 826 z "},"ĳ":{"ha":872,"x_min":72,"x_max":800,"o":"m 108 0 q 83 10 93 0 q 72 36 72 21 l 72 686 q 83 712 72 701 q 108 722 93 722 l 314 722 q 340 712 329 722 q 351 686 351 701 l 351 36 q 340 10 351 21 q 314 0 329 0 l 108 0 m 111 813 q 85 823 96 813 q 75 849 75 833 l 75 994 q 85 1021 75 1010 q 111 1032 96 1032 l 311 1032 q 338 1021 326 1032 q 349 994 349 1010 l 349 849 q 338 823 349 833 q 311 813 326 813 l 111 813 m 372 -264 q 347 -253 358 -264 q 336 -228 336 -243 l 336 -87 q 347 -62 336 -72 q 372 -51 358 -51 l 439 -51 q 483 -41 467 -51 q 505 -10 499 -31 q 511 33 511 10 l 511 686 q 522 712 511 701 q 547 722 532 722 l 764 722 q 790 712 779 722 q 800 686 800 701 l 800 26 q 759 -134 800 -69 q 644 -231 718 -199 q 474 -264 571 -264 l 372 -264 m 550 813 q 524 823 535 813 q 514 849 514 833 l 514 994 q 524 1021 514 1010 q 550 1032 535 1032 l 761 1032 q 787 1021 776 1032 q 797 994 797 1010 l 797 849 q 787 823 797 833 q 761 813 776 813 l 550 813 z "},"ī":{"ha":422,"x_min":-31,"x_max":453,"o":"m 108 0 q 83 10 93 0 q 72 36 72 21 l 72 686 q 83 712 72 701 q 108 722 93 722 l 314 722 q 340 712 329 722 q 351 686 351 701 l 351 36 q 340 10 351 21 q 314 0 329 0 l 108 0 m 1 833 q -22 842 -14 833 q -31 865 -31 851 l -31 986 q -22 1009 -31 1000 q 1 1018 -14 1018 l 422 1018 q 444 1009 436 1018 q 453 986 453 1000 l 453 865 q 444 842 453 851 q 422 833 436 833 l 1 833 z "},"į":{"ha":428,"x_min":78,"x_max":358,"o":"m 301 -274 q 138 -215 192 -274 q 85 -67 85 -156 q 93 -19 85 -39 q 115 14 101 1 l 108 15 q 87 25 96 15 q 78 47 78 35 l 78 686 q 88 712 78 701 q 114 722 99 722 l 319 722 q 345 712 335 722 q 356 686 356 701 l 356 36 q 345 10 356 21 q 319 0 335 0 l 307 0 q 249 -19 267 0 q 231 -67 231 -39 q 249 -114 231 -94 q 307 -133 267 -133 l 322 -133 q 348 -144 338 -133 q 358 -169 358 -154 l 358 -237 q 348 -263 358 -253 q 322 -274 338 -274 l 301 -274 m 117 813 q 91 823 101 813 q 81 849 81 833 l 81 994 q 91 1021 81 1010 q 117 1032 101 1032 l 317 1032 q 342 1021 332 1032 q 353 994 353 1010 l 353 849 q 342 823 353 833 q 317 813 332 813 l 117 813 z "},"ĩ":{"ha":422,"x_min":-50,"x_max":472,"o":"m 108 0 q 83 10 93 0 q 72 36 72 21 l 72 686 q 83 712 72 701 q 108 722 93 722 l 314 722 q 340 712 329 722 q 351 686 351 701 l 351 36 q 340 10 351 21 q 314 0 329 0 l 108 0 m 300 819 q 235 832 261 819 q 190 857 210 844 q 144 869 169 869 q 115 859 124 869 q 99 838 106 849 q 76 826 92 826 l -24 826 q -41 834 -33 826 q -49 851 -49 842 q -40 907 -49 874 q -12 972 -32 940 q 40 1026 7 1004 q 124 1047 72 1047 q 188 1035 163 1047 q 234 1010 214 1022 q 281 997 254 997 q 308 1008 300 997 q 324 1030 317 1019 q 347 1040 332 1040 l 447 1040 q 466 1033 460 1040 q 472 1015 472 1025 q 464 959 472 992 q 436 894 456 926 q 383 841 417 863 q 300 819 350 819 z "},"j":{"ha":450,"x_min":-86,"x_max":378,"o":"m -50 -264 q -75 -253 -64 -264 q -86 -228 -86 -243 l -86 -87 q -75 -62 -86 -72 q -50 -51 -64 -51 l 17 -51 q 60 -41 44 -51 q 83 -10 76 -31 q 89 33 89 10 l 89 686 q 99 712 89 701 q 125 722 110 722 l 342 722 q 367 712 357 722 q 378 686 378 701 l 378 26 q 337 -134 378 -69 q 222 -231 296 -199 q 51 -264 149 -264 l -50 -264 m 128 813 q 102 823 113 813 q 92 849 92 833 l 92 994 q 102 1021 92 1010 q 128 1032 113 1032 l 339 1032 q 365 1021 354 1032 q 375 994 375 1010 l 375 849 q 365 823 375 833 q 339 813 354 813 l 128 813 z "},"ȷ":{"ha":614,"x_min":28,"x_max":542,"o":"m 64 -264 q 38 -253 49 -264 q 28 -228 28 -243 l 28 -49 q 38 -22 28 -33 q 64 -11 49 -11 l 179 -11 q 222 -1 207 -11 q 244 29 238 10 q 250 74 250 49 l 250 500 l 69 500 q 44 511 54 500 q 33 538 33 522 l 33 686 q 44 712 33 701 q 69 722 54 722 l 506 722 q 531 712 521 722 q 542 686 542 701 l 542 74 q 501 -107 542 -32 q 386 -223 460 -182 q 215 -264 313 -264 l 64 -264 z "},"ĵ":{"ha":614,"x_min":25,"x_max":579,"o":"m 64 -264 q 38 -253 49 -264 q 28 -228 28 -243 l 28 -49 q 38 -22 28 -33 q 64 -11 49 -11 l 179 -11 q 222 -1 207 -11 q 244 29 238 10 q 250 74 250 49 l 250 500 l 69 500 q 44 511 54 500 q 33 538 33 522 l 33 686 q 44 712 33 701 q 69 722 54 722 l 506 722 q 531 712 521 722 q 542 686 542 701 l 542 74 q 501 -107 542 -32 q 386 -223 460 -182 q 215 -264 313 -264 l 64 -264 m 46 826 q 25 847 25 826 q 33 867 25 858 l 182 1026 q 208 1047 197 1042 q 232 1053 218 1053 l 371 1053 q 396 1047 385 1053 q 421 1026 407 1042 l 569 867 q 579 847 579 858 q 557 826 579 826 l 478 826 q 453 828 465 826 q 426 836 440 829 l 301 899 l 176 836 q 151 828 165 829 q 125 826 138 826 l 46 826 z "},"k":{"ha":853,"x_min":72,"x_max":846,"o":"m 108 0 q 83 10 93 0 q 72 36 72 21 l 72 950 q 83 976 72 965 q 108 986 93 986 l 310 986 q 335 976 325 986 q 346 950 346 965 l 346 492 l 504 699 q 519 714 510 706 q 547 722 529 722 l 781 722 q 803 713 794 722 q 813 690 813 704 q 810 678 813 685 q 804 668 808 671 l 583 397 l 839 53 q 846 32 846 42 q 837 9 846 18 q 814 0 828 0 l 572 0 q 542 9 551 0 q 526 24 533 18 l 346 274 l 346 36 q 335 10 346 21 q 310 0 325 0 l 108 0 z "},"ķ":{"ha":853,"x_min":72,"x_max":846,"o":"m 108 0 q 83 10 93 0 q 72 36 72 21 l 72 950 q 83 976 72 965 q 108 986 93 986 l 310 986 q 335 976 325 986 q 346 950 346 965 l 346 492 l 504 699 q 519 714 510 706 q 547 722 529 722 l 781 722 q 803 713 794 722 q 813 690 813 704 q 810 678 813 685 q 804 668 808 671 l 583 397 l 839 53 q 846 32 846 42 q 837 9 846 18 q 814 0 828 0 l 572 0 q 542 9 551 0 q 526 24 533 18 l 346 274 l 346 36 q 335 10 346 21 q 310 0 325 0 l 108 0 m 296 -336 q 275 -328 283 -336 q 268 -307 267 -319 l 296 -121 q 312 -85 299 -101 q 350 -69 325 -69 l 521 -69 q 540 -78 532 -69 q 549 -99 549 -86 q 547 -111 549 -106 l 475 -296 q 457 -323 469 -310 q 419 -336 444 -336 l 296 -336 z "},"ĸ":{"ha":853,"x_min":72,"x_max":846,"o":"m 108 0 q 83 10 93 0 q 72 36 72 21 l 72 686 q 83 712 72 701 q 108 722 93 722 l 310 722 q 335 712 325 722 q 346 686 346 701 l 346 451 l 517 699 q 532 714 522 706 q 561 722 542 722 l 782 722 q 804 713 794 722 q 814 690 814 704 q 812 678 814 685 q 804 668 810 671 l 593 368 l 838 53 q 846 32 846 43 q 837 9 846 18 q 814 0 828 0 l 572 0 q 542 10 551 0 q 526 24 532 19 l 346 267 l 346 36 q 335 10 346 21 q 310 0 325 0 l 108 0 z "},"l":{"ha":424,"x_min":72,"x_max":351,"o":"m 108 0 q 83 10 93 0 q 72 36 72 21 l 72 950 q 83 976 72 965 q 108 986 93 986 l 315 986 q 340 976 329 986 q 351 950 351 965 l 351 36 q 340 10 351 21 q 315 0 329 0 l 108 0 z "},"ĺ":{"ha":424,"x_min":72,"x_max":526,"o":"m 108 0 q 83 10 93 0 q 72 36 72 21 l 72 950 q 83 976 72 965 q 108 986 93 986 l 315 986 q 340 976 329 986 q 351 950 351 965 l 351 36 q 340 10 351 21 q 315 0 329 0 l 108 0 m 113 1042 q 90 1064 90 1042 q 97 1082 90 1075 l 228 1242 q 252 1263 242 1258 q 279 1268 263 1268 l 500 1268 q 526 1240 526 1268 q 519 1224 526 1231 l 325 1064 q 302 1048 314 1054 q 269 1042 290 1042 l 113 1042 z "},"ľ":{"ha":594,"x_min":72,"x_max":703,"o":"m 108 0 q 83 10 93 0 q 72 36 72 21 l 72 950 q 83 976 72 965 q 108 986 93 986 l 315 986 q 340 976 329 986 q 351 950 351 965 l 351 36 q 340 10 351 21 q 315 0 329 0 l 108 0 m 449 719 q 428 728 436 719 q 421 749 419 736 l 449 935 q 465 970 451 954 q 503 986 478 986 l 674 986 q 693 978 685 986 q 701 957 701 969 q 700 944 701 950 l 628 760 q 610 733 622 746 q 572 719 597 719 l 449 719 z "},"ļ":{"ha":424,"x_min":51,"x_max":351,"o":"m 108 0 q 83 10 93 0 q 72 36 72 21 l 72 950 q 83 976 72 965 q 108 986 93 986 l 315 986 q 340 976 329 986 q 351 950 351 965 l 351 36 q 340 10 351 21 q 315 0 329 0 l 108 0 m 81 -336 q 60 -328 68 -336 q 53 -307 51 -319 l 81 -121 q 97 -85 83 -101 q 135 -69 110 -69 l 306 -69 q 325 -78 317 -69 q 333 -99 333 -86 q 332 -111 333 -106 l 260 -296 q 242 -323 254 -310 q 204 -336 229 -336 l 81 -336 z "},"ŀ":{"ha":639,"x_min":72,"x_max":643,"o":"m 108 0 q 83 10 93 0 q 72 36 72 21 l 72 950 q 83 976 72 965 q 108 986 93 986 l 315 986 q 340 976 329 986 q 351 950 351 965 l 351 36 q 340 10 351 21 q 315 0 329 0 l 108 0 m 451 390 q 428 399 436 390 q 419 421 419 407 l 419 582 q 428 605 419 596 q 451 614 436 614 l 611 614 q 634 605 625 614 q 643 582 643 596 l 643 421 q 634 399 643 407 q 611 390 625 390 l 451 390 z "},"ł":{"ha":515,"x_min":33,"x_max":485,"o":"m 156 0 q 130 10 140 0 q 119 36 119 21 l 119 342 l 78 325 q 63 321 68 321 q 42 329 50 321 q 33 350 33 338 l 33 476 q 40 504 33 494 q 64 519 47 514 l 119 540 l 119 950 q 130 976 119 965 q 156 986 140 986 l 363 986 q 388 976 376 986 q 399 950 399 965 l 399 649 l 440 665 q 456 669 451 669 q 476 662 468 669 q 485 642 485 654 l 485 514 q 478 488 485 497 q 454 471 471 478 l 399 449 l 399 36 q 388 10 399 21 q 363 0 376 0 l 156 0 z "},"m":{"ha":1288,"x_min":72,"x_max":1222,"o":"m 108 0 q 83 10 93 0 q 72 36 72 21 l 72 686 q 83 712 72 701 q 108 722 93 722 l 299 722 q 324 712 314 722 q 335 686 335 701 l 335 640 q 411 703 361 674 q 529 736 461 733 q 749 619 692 740 q 840 703 781 669 q 965 736 899 736 q 1095 703 1038 736 q 1188 603 1153 671 q 1222 428 1222 536 l 1222 36 q 1212 10 1222 21 q 1186 0 1201 0 l 983 0 q 958 10 968 0 q 947 36 947 21 l 947 419 q 936 477 947 456 q 908 509 925 499 q 867 519 890 519 q 826 509 844 519 q 798 477 808 499 q 788 419 788 456 l 788 36 q 777 10 788 21 q 751 0 767 0 l 549 0 q 523 10 533 0 q 513 36 513 21 l 513 419 q 501 477 513 456 q 473 509 490 499 q 432 519 456 519 q 392 508 410 519 q 363 476 374 497 q 351 419 351 456 l 351 36 q 341 10 351 21 q 315 0 331 0 l 108 0 z "},"n":{"ha":914,"x_min":72,"x_max":850,"o":"m 108 0 q 83 10 93 0 q 72 36 72 21 l 72 686 q 83 712 72 701 q 108 722 93 722 l 310 722 q 335 712 325 722 q 346 686 346 701 l 346 636 q 442 707 382 678 q 578 736 501 736 q 714 701 653 736 q 813 597 775 667 q 850 422 850 528 l 850 36 q 839 10 850 21 q 813 0 828 0 l 593 0 q 567 10 578 0 q 557 36 557 21 l 557 413 q 532 492 557 464 q 461 519 507 519 q 389 492 415 519 q 363 413 363 464 l 363 36 q 352 10 363 21 q 326 0 342 0 l 108 0 z "},"ń":{"ha":914,"x_min":72,"x_max":850,"o":"m 108 0 q 83 10 93 0 q 72 36 72 21 l 72 686 q 83 712 72 701 q 108 722 93 722 l 310 722 q 335 712 325 722 q 346 686 346 701 l 346 636 q 442 707 382 678 q 578 736 501 736 q 714 701 653 736 q 813 597 775 667 q 850 422 850 528 l 850 36 q 839 10 850 21 q 813 0 828 0 l 593 0 q 567 10 578 0 q 557 36 557 21 l 557 413 q 532 492 557 464 q 461 519 507 519 q 389 492 415 519 q 363 413 363 464 l 363 36 q 352 10 363 21 q 326 0 342 0 l 108 0 m 363 826 q 340 849 340 826 q 347 867 340 860 l 478 1026 q 502 1048 492 1043 q 529 1053 513 1053 l 750 1053 q 776 1025 776 1053 q 769 1008 776 1015 l 575 849 q 552 833 564 839 q 519 826 540 826 l 363 826 z "},"ŉ":{"ha":914,"x_min":-110,"x_max":850,"o":"m -81 772 q -101 781 -93 772 q -110 803 -110 790 l -82 989 q -66 1024 -79 1007 q -26 1040 -53 1040 l 143 1040 q 164 1031 156 1040 q 172 1011 172 1022 q 169 999 172 1004 l 97 814 q 80 786 92 800 q 42 772 68 772 l -81 772 m 108 0 q 83 10 93 0 q 72 36 72 21 l 72 686 q 83 712 72 701 q 108 722 93 722 l 310 722 q 335 712 325 722 q 346 686 346 701 l 346 636 q 442 707 382 678 q 578 736 501 736 q 714 701 653 736 q 813 597 775 667 q 850 422 850 528 l 850 36 q 839 10 850 21 q 813 0 828 0 l 593 0 q 567 10 578 0 q 557 36 557 21 l 557 413 q 532 492 557 464 q 461 519 507 519 q 389 492 415 519 q 363 413 363 464 l 363 36 q 352 10 363 21 q 326 0 342 0 l 108 0 z "},"ň":{"ha":914,"x_min":72,"x_max":850,"o":"m 108 0 q 83 10 93 0 q 72 36 72 21 l 72 686 q 83 712 72 701 q 108 722 93 722 l 310 722 q 335 712 325 722 q 346 686 346 701 l 346 636 q 442 707 382 678 q 578 736 501 736 q 714 701 653 736 q 813 597 775 667 q 850 422 850 528 l 850 36 q 839 10 850 21 q 813 0 828 0 l 593 0 q 567 10 578 0 q 557 36 557 21 l 557 413 q 532 492 557 464 q 461 519 507 519 q 389 492 415 519 q 363 413 363 464 l 363 36 q 352 10 363 21 q 326 0 342 0 l 108 0 m 392 826 q 367 832 378 826 q 342 851 357 838 l 193 1011 q 185 1031 185 1019 q 206 1053 185 1053 l 285 1053 q 311 1051 297 1053 q 336 1043 325 1049 l 461 979 l 586 1043 q 613 1051 600 1049 q 638 1053 625 1053 l 717 1053 q 739 1031 739 1053 q 729 1011 739 1019 l 581 851 q 556 832 567 838 q 531 826 544 826 l 392 826 z "},"ņ":{"ha":914,"x_min":72,"x_max":850,"o":"m 108 0 q 83 10 93 0 q 72 36 72 21 l 72 686 q 83 712 72 701 q 108 722 93 722 l 310 722 q 335 712 325 722 q 346 686 346 701 l 346 636 q 442 707 382 678 q 578 736 501 736 q 714 701 653 736 q 813 597 775 667 q 850 422 850 528 l 850 36 q 839 10 850 21 q 813 0 828 0 l 593 0 q 567 10 578 0 q 557 36 557 21 l 557 413 q 532 492 557 464 q 461 519 507 519 q 389 492 415 519 q 363 413 363 464 l 363 36 q 352 10 363 21 q 326 0 342 0 l 108 0 m 333 -336 q 313 -328 321 -336 q 306 -307 304 -319 l 333 -121 q 349 -85 336 -101 q 388 -69 363 -69 l 558 -69 q 578 -78 569 -69 q 586 -99 586 -86 q 585 -111 586 -106 l 513 -296 q 494 -323 507 -310 q 457 -336 482 -336 l 333 -336 z "},"ñ":{"ha":914,"x_min":72,"x_max":850,"o":"m 108 0 q 83 10 93 0 q 72 36 72 21 l 72 686 q 83 712 72 701 q 108 722 93 722 l 310 722 q 335 712 325 722 q 346 686 346 701 l 346 636 q 442 707 382 678 q 578 736 501 736 q 714 701 653 736 q 813 597 775 667 q 850 422 850 528 l 850 36 q 839 10 850 21 q 813 0 828 0 l 593 0 q 567 10 578 0 q 557 36 557 21 l 557 413 q 532 492 557 464 q 461 519 507 519 q 389 492 415 519 q 363 413 363 464 l 363 36 q 352 10 363 21 q 326 0 342 0 l 108 0 m 549 819 q 484 832 510 819 q 438 857 458 844 q 393 869 418 869 q 363 859 372 869 q 347 838 354 849 q 325 826 340 826 l 225 826 q 208 834 215 826 q 200 851 200 842 q 208 907 200 874 q 236 972 217 940 q 288 1026 256 1004 q 372 1047 321 1047 q 437 1035 411 1047 q 483 1010 463 1022 q 529 997 503 997 q 557 1008 549 997 q 573 1030 565 1019 q 596 1040 581 1040 l 696 1040 q 715 1033 708 1040 q 721 1015 721 1025 q 713 959 721 992 q 685 894 704 926 q 632 841 665 863 q 549 819 599 819 z "},"ŋ":{"ha":914,"x_min":72,"x_max":850,"o":"m 413 -312 q 387 -302 397 -312 q 376 -276 376 -292 l 376 -104 q 387 -78 376 -89 q 413 -68 397 -68 l 458 -68 q 515 -56 493 -68 q 547 -17 536 -43 q 557 51 557 8 l 557 413 q 532 492 557 464 q 461 519 507 519 q 389 492 415 519 q 363 413 363 464 l 363 36 q 352 10 363 21 q 326 0 342 0 l 108 0 q 83 10 93 0 q 72 36 72 21 l 72 686 q 83 712 72 701 q 108 722 93 722 l 310 722 q 335 712 325 722 q 346 686 346 701 l 346 636 q 442 707 382 678 q 578 736 501 736 q 714 701 653 736 q 813 597 775 667 q 850 422 850 528 l 850 39 q 799 -158 850 -81 q 656 -274 747 -236 q 447 -312 565 -312 l 413 -312 z "},"o":{"ha":869,"x_min":49,"x_max":822,"o":"m 435 -14 q 228 22 313 -14 q 100 128 144 58 q 50 297 56 199 q 49 361 49 326 q 50 425 49 396 q 103 594 56 525 q 234 700 150 664 q 435 736 318 736 q 635 700 551 736 q 767 594 719 664 q 819 425 814 525 q 822 361 822 396 q 819 297 822 326 q 769 128 814 199 q 641 22 725 58 q 435 -14 557 -14 m 435 182 q 506 213 486 182 q 528 304 525 243 q 529 361 529 325 q 528 418 529 397 q 506 509 525 478 q 435 540 486 540 q 365 509 385 540 q 342 418 346 478 q 340 361 340 397 q 342 304 340 325 q 365 213 346 243 q 435 182 385 182 z "},"ó":{"ha":869,"x_min":49,"x_max":822,"o":"m 435 -14 q 228 22 313 -14 q 100 128 144 58 q 50 297 56 199 q 49 361 49 326 q 50 425 49 396 q 103 594 56 525 q 234 700 150 664 q 435 736 318 736 q 635 700 551 736 q 767 594 719 664 q 819 425 814 525 q 822 361 822 396 q 819 297 822 326 q 769 128 814 199 q 641 22 725 58 q 435 -14 557 -14 m 435 182 q 506 213 486 182 q 528 304 525 243 q 529 361 529 325 q 528 418 529 397 q 506 509 525 478 q 435 540 486 540 q 365 509 385 540 q 342 418 346 478 q 340 361 340 397 q 342 304 340 325 q 365 213 346 243 q 435 182 385 182 m 336 826 q 314 849 314 826 q 321 867 314 860 l 451 1026 q 476 1048 465 1043 q 503 1053 486 1053 l 724 1053 q 750 1025 750 1053 q 743 1008 750 1015 l 549 849 q 526 833 538 839 q 493 826 514 826 l 336 826 z "},"ŏ":{"ha":869,"x_min":49,"x_max":822,"o":"m 435 -14 q 228 22 313 -14 q 100 128 144 58 q 50 297 56 199 q 49 361 49 326 q 50 425 49 396 q 103 594 56 525 q 234 700 150 664 q 435 736 318 736 q 635 700 551 736 q 767 594 719 664 q 819 425 814 525 q 822 361 822 396 q 819 297 822 326 q 769 128 814 199 q 641 22 725 58 q 435 -14 557 -14 m 435 182 q 506 213 486 182 q 528 304 525 243 q 529 361 529 325 q 528 418 529 397 q 506 509 525 478 q 435 540 486 540 q 365 509 385 540 q 342 418 346 478 q 340 361 340 397 q 342 304 340 325 q 365 213 346 243 q 435 182 385 182 m 435 819 q 312 847 361 819 q 238 922 263 875 q 213 1026 213 968 q 219 1045 213 1038 q 239 1053 226 1053 l 349 1053 q 368 1045 361 1053 q 375 1026 375 1038 q 388 970 375 994 q 435 946 401 946 q 482 970 469 946 q 494 1026 494 994 q 501 1045 494 1038 q 521 1053 508 1053 l 631 1053 q 650 1045 643 1053 q 657 1026 657 1038 q 633 922 657 968 q 558 847 608 875 q 435 819 508 819 z "},"ô":{"ha":869,"x_min":49,"x_max":822,"o":"m 435 -14 q 228 22 313 -14 q 100 128 144 58 q 50 297 56 199 q 49 361 49 326 q 50 425 49 396 q 103 594 56 525 q 234 700 150 664 q 435 736 318 736 q 635 700 551 736 q 767 594 719 664 q 819 425 814 525 q 822 361 822 396 q 819 297 822 326 q 769 128 814 199 q 641 22 725 58 q 435 -14 557 -14 m 435 182 q 506 213 486 182 q 528 304 525 243 q 529 361 529 325 q 528 418 529 397 q 506 509 525 478 q 435 540 486 540 q 365 509 385 540 q 342 418 346 478 q 340 361 340 397 q 342 304 340 325 q 365 213 346 243 q 435 182 385 182 m 179 826 q 158 847 158 826 q 167 867 158 858 l 315 1026 q 341 1047 331 1042 q 365 1053 351 1053 l 504 1053 q 529 1047 518 1053 q 554 1026 540 1042 l 703 867 q 713 847 713 858 q 690 826 713 826 l 611 826 q 586 828 599 826 q 560 836 574 829 l 435 899 l 310 836 q 285 828 299 829 q 258 826 271 826 l 179 826 z "},"ö":{"ha":869,"x_min":49,"x_max":822,"o":"m 435 -14 q 228 22 313 -14 q 100 128 144 58 q 50 297 56 199 q 49 361 49 326 q 50 425 49 396 q 103 594 56 525 q 234 700 150 664 q 435 736 318 736 q 635 700 551 736 q 767 594 719 664 q 819 425 814 525 q 822 361 822 396 q 819 297 822 326 q 769 128 814 199 q 641 22 725 58 q 435 -14 557 -14 m 435 182 q 506 213 486 182 q 528 304 525 243 q 529 361 529 325 q 528 418 529 397 q 506 509 525 478 q 435 540 486 540 q 365 509 385 540 q 342 418 346 478 q 340 361 340 397 q 342 304 340 325 q 365 213 346 243 q 435 182 385 182 m 514 835 q 492 843 500 835 q 483 867 483 851 l 483 1017 q 492 1040 483 1031 q 514 1049 500 1049 l 664 1049 q 687 1040 678 1049 q 696 1017 696 1031 l 696 867 q 687 843 696 851 q 664 835 678 835 l 514 835 m 206 835 q 182 843 190 835 q 174 867 174 851 l 174 1017 q 182 1040 174 1031 q 206 1049 190 1049 l 354 1049 q 377 1040 368 1049 q 386 1017 386 1031 l 386 867 q 377 843 386 851 q 354 835 368 835 l 206 835 z "},"ò":{"ha":869,"x_min":49,"x_max":822,"o":"m 435 -14 q 228 22 313 -14 q 100 128 144 58 q 50 297 56 199 q 49 361 49 326 q 50 425 49 396 q 103 594 56 525 q 234 700 150 664 q 435 736 318 736 q 635 700 551 736 q 767 594 719 664 q 819 425 814 525 q 822 361 822 396 q 819 297 822 326 q 769 128 814 199 q 641 22 725 58 q 435 -14 557 -14 m 435 182 q 506 213 486 182 q 528 304 525 243 q 529 361 529 325 q 528 418 529 397 q 506 509 525 478 q 435 540 486 540 q 365 509 385 540 q 342 418 346 478 q 340 361 340 397 q 342 304 340 325 q 365 213 346 243 q 435 182 385 182 m 378 826 q 345 833 357 826 q 322 849 333 839 l 128 1008 q 121 1025 121 1015 q 147 1053 121 1053 l 368 1053 q 395 1048 385 1053 q 419 1026 406 1043 l 550 867 q 557 849 557 860 q 535 826 557 826 l 378 826 z "},"ő":{"ha":869,"x_min":49,"x_max":828,"o":"m 435 -14 q 228 22 313 -14 q 100 128 144 58 q 50 297 56 199 q 49 361 49 326 q 50 425 49 396 q 103 594 56 525 q 234 700 150 664 q 435 736 318 736 q 635 700 551 736 q 767 594 719 664 q 819 425 814 525 q 822 361 822 396 q 819 297 822 326 q 769 128 814 199 q 641 22 725 58 q 435 -14 557 -14 m 435 182 q 506 213 486 182 q 528 304 525 243 q 529 361 529 325 q 528 418 529 397 q 506 509 525 478 q 435 540 486 540 q 365 509 385 540 q 342 418 346 478 q 340 361 340 397 q 342 304 340 325 q 365 213 346 243 q 435 182 385 182 m 518 826 q 496 849 496 826 q 499 860 496 854 q 503 869 501 865 l 574 1026 q 625 1053 586 1053 l 800 1053 q 828 1026 828 1053 q 819 1008 828 1017 l 672 846 q 626 826 656 826 l 518 826 m 192 826 q 169 849 169 826 q 172 860 169 854 q 176 869 175 865 l 247 1026 q 299 1053 260 1053 l 474 1053 q 501 1026 501 1053 q 493 1008 501 1017 l 346 846 q 300 826 329 826 l 192 826 z "},"ō":{"ha":869,"x_min":49,"x_max":822,"o":"m 435 -14 q 228 22 313 -14 q 100 128 144 58 q 50 297 56 199 q 49 361 49 326 q 50 425 49 396 q 103 594 56 525 q 234 700 150 664 q 435 736 318 736 q 635 700 551 736 q 767 594 719 664 q 819 425 814 525 q 822 361 822 396 q 819 297 822 326 q 769 128 814 199 q 641 22 725 58 q 435 -14 557 -14 m 435 182 q 506 213 486 182 q 528 304 525 243 q 529 361 529 325 q 528 418 529 397 q 506 509 525 478 q 435 540 486 540 q 365 509 385 540 q 342 418 346 478 q 340 361 340 397 q 342 304 340 325 q 365 213 346 243 q 435 182 385 182 m 225 833 q 201 842 210 833 q 193 865 193 851 l 193 986 q 201 1009 193 1000 q 225 1018 210 1018 l 646 1018 q 668 1009 660 1018 q 676 986 676 1000 l 676 865 q 668 842 676 851 q 646 833 660 833 l 225 833 z "},"ø":{"ha":869,"x_min":49,"x_max":822,"o":"m 435 -14 q 228 22 313 -14 q 100 128 144 58 q 50 297 56 199 q 49 361 49 326 q 50 425 49 396 q 103 594 56 525 q 234 700 150 664 q 435 736 318 736 q 635 700 551 736 q 767 594 719 664 q 819 425 814 525 q 822 361 822 396 q 819 297 822 326 q 769 128 814 199 q 641 22 725 58 q 435 -14 557 -14 m 435 182 q 506 213 486 182 q 528 304 525 243 q 529 361 529 325 q 528 418 529 397 q 506 509 525 478 q 435 540 486 540 q 365 509 385 540 q 342 418 346 478 q 340 361 340 397 q 342 304 340 325 q 365 213 346 243 q 435 182 385 182 m 86 -39 q 67 -31 75 -39 q 58 -11 58 -22 q 60 -2 58 -7 q 67 10 61 3 l 701 739 q 714 752 706 744 q 736 760 722 760 l 783 760 q 803 751 794 760 q 811 732 811 743 q 810 724 811 731 q 804 711 810 718 l 169 -18 q 157 -31 165 -24 q 135 -39 149 -39 l 86 -39 z "},"ǿ":{"ha":869,"x_min":49,"x_max":822,"o":"m 435 -14 q 228 22 313 -14 q 100 128 144 58 q 50 297 56 199 q 49 361 49 326 q 50 425 49 396 q 103 594 56 525 q 234 700 150 664 q 435 736 318 736 q 635 700 551 736 q 767 594 719 664 q 819 425 814 525 q 822 361 822 396 q 819 297 822 326 q 769 128 814 199 q 641 22 725 58 q 435 -14 557 -14 m 435 182 q 506 213 486 182 q 528 304 525 243 q 529 361 529 325 q 528 418 529 397 q 506 509 525 478 q 435 540 486 540 q 365 509 385 540 q 342 418 346 478 q 340 361 340 397 q 342 304 340 325 q 365 213 346 243 q 435 182 385 182 m 86 -39 q 67 -31 75 -39 q 58 -11 58 -22 q 60 -2 58 -7 q 67 10 61 3 l 701 739 q 714 752 706 744 q 736 760 722 760 l 783 760 q 803 751 794 760 q 811 732 811 743 q 810 724 811 731 q 804 711 810 718 l 169 -18 q 157 -31 165 -24 q 135 -39 149 -39 l 86 -39 m 336 826 q 314 849 314 826 q 321 867 314 860 l 451 1026 q 476 1048 465 1043 q 503 1053 486 1053 l 724 1053 q 750 1025 750 1053 q 743 1008 750 1015 l 549 849 q 526 833 538 839 q 493 826 514 826 l 336 826 z "},"õ":{"ha":869,"x_min":49,"x_max":822,"o":"m 435 -14 q 228 22 313 -14 q 100 128 144 58 q 50 297 56 199 q 49 361 49 326 q 50 425 49 396 q 103 594 56 525 q 234 700 150 664 q 435 736 318 736 q 635 700 551 736 q 767 594 719 664 q 819 425 814 525 q 822 361 822 396 q 819 297 822 326 q 769 128 814 199 q 641 22 725 58 q 435 -14 557 -14 m 435 182 q 506 213 486 182 q 528 304 525 243 q 529 361 529 325 q 528 418 529 397 q 506 509 525 478 q 435 540 486 540 q 365 509 385 540 q 342 418 346 478 q 340 361 340 397 q 342 304 340 325 q 365 213 346 243 q 435 182 385 182 m 522 819 q 458 832 483 819 q 412 857 432 844 q 367 869 392 869 q 337 859 346 869 q 321 838 328 849 q 299 826 314 826 l 199 826 q 181 834 189 826 q 174 851 174 842 q 182 907 174 874 q 210 972 190 940 q 262 1026 229 1004 q 346 1047 294 1047 q 410 1035 385 1047 q 456 1010 436 1022 q 503 997 476 997 q 531 1008 522 997 q 547 1030 539 1019 q 569 1040 554 1040 l 669 1040 q 688 1033 682 1040 q 694 1015 694 1025 q 686 959 694 992 q 658 894 678 926 q 606 841 639 863 q 522 819 572 819 z "},"œ":{"ha":1329,"x_min":49,"x_max":1289,"o":"m 435 -14 q 229 22 313 -14 q 101 128 146 58 q 50 297 57 199 q 49 361 49 326 q 50 425 49 396 q 104 594 57 525 q 235 700 151 664 q 435 736 318 736 q 574 718 511 736 q 681 667 636 700 q 783 718 725 700 q 910 736 840 736 q 1122 685 1038 736 q 1247 551 1206 635 q 1289 363 1289 467 l 1289 324 q 1278 299 1289 310 q 1251 288 1267 288 l 824 288 l 824 279 q 833 220 824 246 q 861 180 842 194 q 908 165 881 165 q 938 171 925 165 q 960 185 950 176 q 976 203 969 194 q 997 219 989 215 q 1021 222 1004 222 l 1239 222 q 1260 214 1251 222 q 1268 193 1269 206 q 1244 133 1267 168 q 1178 64 1222 97 q 1067 8 1135 31 q 911 -14 1000 -14 q 782 3 840 -14 q 679 51 724 19 q 574 3 635 19 q 435 -14 514 -14 m 435 182 q 506 213 486 182 q 528 304 525 243 q 529 361 529 325 q 528 418 529 397 q 506 509 525 478 q 435 540 486 540 q 365 509 385 540 q 343 418 346 478 q 342 361 342 397 q 343 304 342 325 q 365 213 346 243 q 435 182 385 182 m 824 443 l 996 443 l 996 446 q 986 510 996 483 q 957 549 976 536 q 910 563 938 563 q 863 549 882 563 q 833 510 843 536 q 824 446 824 483 l 824 443 z "},"p":{"ha":897,"x_min":72,"x_max":849,"o":"m 108 -264 q 83 -253 93 -264 q 72 -228 72 -243 l 72 686 q 83 712 72 701 q 108 722 93 722 l 304 722 q 330 712 319 722 q 340 686 340 701 l 340 640 q 425 709 374 682 q 551 736 476 736 q 669 717 617 736 q 760 658 721 697 q 821 557 799 618 q 847 414 843 496 q 849 361 849 385 q 847 307 849 338 q 822 169 844 229 q 761 69 800 110 q 669 7 722 28 q 551 -14 617 -14 q 439 8 488 -14 q 358 75 390 29 l 358 -228 q 347 -253 358 -243 q 322 -264 336 -264 l 108 -264 m 457 203 q 513 217 493 203 q 542 258 533 232 q 554 317 551 283 q 554 406 558 361 q 542 465 551 439 q 513 505 533 490 q 457 519 493 519 q 399 504 421 519 q 369 464 378 489 q 358 408 360 439 q 357 356 357 379 q 358 304 357 333 q 370 253 360 275 q 401 217 381 231 q 457 203 422 203 z "},"þ":{"ha":899,"x_min":74,"x_max":849,"o":"m 110 -264 q 84 -253 94 -264 q 74 -228 74 -243 l 74 950 q 84 976 74 965 q 110 986 94 986 l 322 986 q 348 976 338 986 q 358 950 358 965 l 358 651 q 435 715 392 693 q 553 736 478 736 q 670 717 618 736 q 761 658 722 697 q 822 557 800 618 q 847 414 844 496 q 849 361 849 385 q 847 307 849 338 q 823 169 846 229 q 762 69 800 110 q 671 7 724 28 q 553 -14 618 -14 q 440 8 489 -14 q 358 75 392 29 l 358 -228 q 348 -253 358 -243 q 322 -264 338 -264 l 110 -264 m 457 203 q 515 217 494 203 q 544 258 535 232 q 556 317 553 283 q 556 406 558 361 q 544 465 553 439 q 515 505 535 490 q 457 519 494 519 q 401 504 422 519 q 370 464 379 489 q 358 408 361 439 q 357 356 357 379 q 358 304 357 333 q 371 253 360 275 q 403 217 382 231 q 457 203 424 203 z "},"q":{"ha":897,"x_min":50,"x_max":825,"o":"m 576 -264 q 550 -253 561 -264 q 539 -228 539 -243 l 539 75 q 459 8 508 29 q 346 -14 410 -14 q 228 7 282 -14 q 136 69 175 28 q 76 169 97 110 q 51 307 54 229 q 50 361 50 338 q 51 414 50 385 q 76 557 54 496 q 138 658 99 618 q 229 717 176 697 q 346 736 282 736 q 473 709 421 736 q 557 640 525 682 l 557 686 q 567 712 557 701 q 593 722 578 722 l 789 722 q 815 712 804 722 q 825 686 825 701 l 825 -228 q 815 -253 825 -243 q 789 -264 804 -264 l 576 -264 m 440 203 q 496 217 475 203 q 527 253 517 231 q 539 304 538 275 q 542 356 542 333 q 539 408 542 379 q 528 464 538 439 q 499 504 519 489 q 440 519 478 519 q 385 505 406 519 q 355 465 364 490 q 343 406 346 439 q 343 317 339 361 q 355 258 346 283 q 385 217 364 232 q 440 203 406 203 z "},"r":{"ha":675,"x_min":72,"x_max":658,"o":"m 108 0 q 83 10 93 0 q 72 36 72 21 l 72 686 q 83 712 72 701 q 108 722 93 722 l 310 722 q 335 712 325 722 q 346 686 346 701 l 346 635 q 441 699 388 675 q 558 722 494 722 l 621 722 q 647 712 636 722 q 658 686 658 701 l 658 507 q 647 481 658 492 q 621 471 636 471 l 465 471 q 389 444 415 471 q 363 368 363 418 l 363 36 q 352 10 363 21 q 326 0 342 0 l 108 0 z "},"ŕ":{"ha":675,"x_min":72,"x_max":676,"o":"m 108 0 q 83 10 93 0 q 72 36 72 21 l 72 686 q 83 712 72 701 q 108 722 93 722 l 310 722 q 335 712 325 722 q 346 686 346 701 l 346 635 q 441 699 388 675 q 558 722 494 722 l 621 722 q 647 712 636 722 q 658 686 658 701 l 658 507 q 647 481 658 492 q 621 471 636 471 l 465 471 q 389 444 415 471 q 363 368 363 418 l 363 36 q 352 10 363 21 q 326 0 342 0 l 108 0 m 263 826 q 240 849 240 826 q 247 867 240 860 l 378 1026 q 402 1048 392 1043 q 429 1053 413 1053 l 650 1053 q 676 1025 676 1053 q 669 1008 676 1015 l 475 849 q 452 833 464 839 q 419 826 440 826 l 263 826 z "},"ř":{"ha":675,"x_min":72,"x_max":658,"o":"m 108 0 q 83 10 93 0 q 72 36 72 21 l 72 686 q 83 712 72 701 q 108 722 93 722 l 310 722 q 335 712 325 722 q 346 686 346 701 l 346 635 q 441 699 388 675 q 558 722 494 722 l 621 722 q 647 712 636 722 q 658 686 658 701 l 658 507 q 647 481 658 492 q 621 471 636 471 l 465 471 q 389 444 415 471 q 363 368 363 418 l 363 36 q 352 10 363 21 q 326 0 342 0 l 108 0 m 293 826 q 269 832 279 826 q 243 851 258 838 l 94 1011 q 86 1031 86 1019 q 107 1053 86 1053 l 186 1053 q 213 1051 199 1053 q 238 1043 226 1049 l 363 979 l 488 1043 q 514 1051 501 1049 q 539 1053 526 1053 l 618 1053 q 640 1031 640 1053 q 631 1011 640 1019 l 482 851 q 457 832 468 838 q 432 826 446 826 l 293 826 z "},"ŗ":{"ha":675,"x_min":54,"x_max":658,"o":"m 108 0 q 83 10 93 0 q 72 36 72 21 l 72 686 q 83 712 72 701 q 108 722 93 722 l 310 722 q 335 712 325 722 q 346 686 346 701 l 346 635 q 441 699 388 675 q 558 722 494 722 l 621 722 q 647 712 636 722 q 658 686 658 701 l 658 507 q 647 481 658 492 q 621 471 636 471 l 465 471 q 389 444 415 471 q 363 368 363 418 l 363 36 q 352 10 363 21 q 326 0 342 0 l 108 0 m 83 -336 q 63 -328 71 -336 q 56 -307 54 -319 l 83 -121 q 99 -85 86 -101 q 138 -69 113 -69 l 308 -69 q 328 -78 319 -69 q 336 -99 336 -86 q 335 -111 336 -106 l 263 -296 q 244 -323 257 -310 q 207 -336 232 -336 l 83 -336 z "},"s":{"ha":794,"x_min":36,"x_max":758,"o":"m 390 -14 q 229 6 296 -14 q 120 57 163 26 q 58 120 78 88 q 38 178 39 153 q 47 203 36 193 q 69 214 57 214 l 271 214 q 275 213 272 214 q 281 210 278 213 q 315 192 299 204 q 351 169 331 179 q 399 160 371 160 q 441 170 422 160 q 460 200 460 181 q 449 229 460 217 q 406 253 439 242 q 299 279 372 265 q 174 320 231 293 q 85 393 118 347 q 53 506 53 439 q 90 615 53 563 q 202 702 128 668 q 385 736 276 736 q 530 717 467 736 q 637 668 593 697 q 703 606 681 639 q 728 546 726 572 q 719 520 729 531 q 697 510 710 510 l 515 510 q 506 510 511 510 q 499 514 501 511 q 463 530 479 518 q 429 552 447 542 q 383 563 411 563 q 345 551 360 563 q 331 522 331 540 q 340 494 331 507 q 385 471 350 482 q 494 447 419 460 q 650 397 592 432 q 733 314 708 361 q 758 219 758 267 q 716 96 758 149 q 591 15 674 43 q 390 -14 508 -14 z "},"ś":{"ha":794,"x_min":36,"x_max":758,"o":"m 390 -14 q 229 6 296 -14 q 120 57 163 26 q 58 120 78 88 q 38 178 39 153 q 47 203 36 193 q 69 214 57 214 l 271 214 q 275 213 272 214 q 281 210 278 213 q 315 192 299 204 q 351 169 331 179 q 399 160 371 160 q 441 170 422 160 q 460 200 460 181 q 449 229 460 217 q 406 253 439 242 q 299 279 372 265 q 174 320 231 293 q 85 393 118 347 q 53 506 53 439 q 90 615 53 563 q 202 702 128 668 q 385 736 276 736 q 530 717 467 736 q 637 668 593 697 q 703 606 681 639 q 728 546 726 572 q 719 520 729 531 q 697 510 710 510 l 515 510 q 506 510 511 510 q 499 514 501 511 q 463 530 479 518 q 429 552 447 542 q 383 563 411 563 q 345 551 360 563 q 331 522 331 540 q 340 494 331 507 q 385 471 350 482 q 494 447 419 460 q 650 397 592 432 q 733 314 708 361 q 758 219 758 267 q 716 96 758 149 q 591 15 674 43 q 390 -14 508 -14 m 297 826 q 275 849 275 826 q 282 867 275 860 l 413 1026 q 437 1048 426 1043 q 464 1053 447 1053 l 685 1053 q 711 1025 711 1053 q 704 1008 711 1015 l 510 849 q 487 833 499 839 q 454 826 475 826 l 297 826 z "},"š":{"ha":794,"x_min":36,"x_max":758,"o":"m 390 -14 q 229 6 296 -14 q 120 57 163 26 q 58 120 78 88 q 38 178 39 153 q 47 203 36 193 q 69 214 57 214 l 271 214 q 275 213 272 214 q 281 210 278 213 q 315 192 299 204 q 351 169 331 179 q 399 160 371 160 q 441 170 422 160 q 460 200 460 181 q 449 229 460 217 q 406 253 439 242 q 299 279 372 265 q 174 320 231 293 q 85 393 118 347 q 53 506 53 439 q 90 615 53 563 q 202 702 128 668 q 385 736 276 736 q 530 717 467 736 q 637 668 593 697 q 703 606 681 639 q 728 546 726 572 q 719 520 729 531 q 697 510 710 510 l 515 510 q 506 510 511 510 q 499 514 501 511 q 463 530 479 518 q 429 552 447 542 q 383 563 411 563 q 345 551 360 563 q 331 522 331 540 q 340 494 331 507 q 385 471 350 482 q 494 447 419 460 q 650 397 592 432 q 733 314 708 361 q 758 219 758 267 q 716 96 758 149 q 591 15 674 43 q 390 -14 508 -14 m 326 826 q 302 832 313 826 q 276 851 292 838 l 128 1011 q 119 1031 119 1019 q 140 1053 119 1053 l 219 1053 q 246 1051 232 1053 q 271 1043 260 1049 l 396 979 l 521 1043 q 547 1051 535 1049 q 572 1053 560 1053 l 651 1053 q 674 1031 674 1053 q 664 1011 674 1019 l 515 851 q 490 832 501 838 q 465 826 479 826 l 326 826 z "},"ş":{"ha":794,"x_min":36,"x_max":758,"o":"m 406 -306 q 338 -293 368 -306 q 295 -264 308 -281 q 297 -235 282 -247 l 324 -211 q 345 -203 336 -200 q 367 -212 354 -206 q 406 -219 381 -219 q 437 -208 425 -219 q 449 -182 449 -197 q 438 -156 449 -167 q 406 -144 426 -144 q 376 -149 390 -144 q 351 -153 363 -153 q 329 -146 339 -154 l 301 -118 q 292 -99 292 -108 q 300 -72 292 -90 l 328 -10 q 160 34 225 1 q 67 107 96 67 q 38 178 39 147 q 47 203 36 193 q 69 214 57 214 l 261 214 q 269 213 265 214 q 276 210 272 213 q 313 193 296 206 q 349 170 329 181 q 399 160 369 160 q 441 170 422 160 q 460 200 460 181 q 449 229 460 217 q 406 253 439 242 q 299 279 372 265 q 174 320 231 293 q 85 393 118 347 q 53 506 53 439 q 90 615 53 563 q 202 702 128 668 q 385 736 276 736 q 530 717 467 736 q 637 668 593 697 q 703 606 681 639 q 728 546 726 572 q 719 520 729 531 q 697 510 710 510 l 513 510 q 505 510 508 510 q 499 514 501 511 q 463 530 479 518 q 429 552 447 542 q 383 563 411 563 q 345 551 360 563 q 331 522 331 540 q 340 494 331 507 q 385 471 350 482 q 494 447 419 460 q 650 397 592 432 q 733 314 708 361 q 758 219 758 267 q 669 53 758 115 q 413 -14 579 -10 l 386 -65 q 409 -60 394 -62 q 431 -58 424 -58 q 512 -92 482 -58 q 542 -181 542 -126 q 505 -271 542 -236 q 406 -306 468 -306 z "},"ŝ":{"ha":794,"x_min":36,"x_max":758,"o":"m 390 -14 q 229 6 296 -14 q 120 57 163 26 q 58 120 78 88 q 38 178 39 153 q 47 203 36 193 q 69 214 57 214 l 271 214 q 275 213 272 214 q 281 210 278 213 q 315 192 299 204 q 351 169 331 179 q 399 160 371 160 q 441 170 422 160 q 460 200 460 181 q 449 229 460 217 q 406 253 439 242 q 299 279 372 265 q 174 320 231 293 q 85 393 118 347 q 53 506 53 439 q 90 615 53 563 q 202 702 128 668 q 385 736 276 736 q 530 717 467 736 q 637 668 593 697 q 703 606 681 639 q 728 546 726 572 q 719 520 729 531 q 697 510 710 510 l 515 510 q 506 510 511 510 q 499 514 501 511 q 463 530 479 518 q 429 552 447 542 q 383 563 411 563 q 345 551 360 563 q 331 522 331 540 q 340 494 331 507 q 385 471 350 482 q 494 447 419 460 q 650 397 592 432 q 733 314 708 361 q 758 219 758 267 q 716 96 758 149 q 591 15 674 43 q 390 -14 508 -14 m 140 826 q 119 847 119 826 q 128 867 119 858 l 276 1026 q 302 1047 292 1042 q 326 1053 313 1053 l 465 1053 q 490 1047 479 1053 q 515 1026 501 1042 l 664 867 q 674 847 674 858 q 651 826 674 826 l 572 826 q 547 828 560 826 q 521 836 535 829 l 396 899 l 271 836 q 246 828 260 829 q 219 826 232 826 l 140 826 z "},"ș":{"ha":794,"x_min":36,"x_max":758,"o":"m 390 -14 q 229 6 296 -14 q 120 57 163 26 q 58 120 78 88 q 38 178 39 153 q 47 203 36 193 q 69 214 57 214 l 271 214 q 275 213 272 214 q 281 210 278 213 q 315 192 299 204 q 351 169 331 179 q 399 160 371 160 q 441 170 422 160 q 460 200 460 181 q 449 229 460 217 q 406 253 439 242 q 299 279 372 265 q 174 320 231 293 q 85 393 118 347 q 53 506 53 439 q 90 615 53 563 q 202 702 128 668 q 385 736 276 736 q 530 717 467 736 q 637 668 593 697 q 703 606 681 639 q 728 546 726 572 q 719 520 729 531 q 697 510 710 510 l 515 510 q 506 510 511 510 q 499 514 501 511 q 463 530 479 518 q 429 552 447 542 q 383 563 411 563 q 345 551 360 563 q 331 522 331 540 q 340 494 331 507 q 385 471 350 482 q 494 447 419 460 q 650 397 592 432 q 733 314 708 361 q 758 219 758 267 q 716 96 758 149 q 591 15 674 43 q 390 -14 508 -14 m 265 -336 q 244 -328 253 -336 q 238 -307 236 -319 l 265 -121 q 281 -85 268 -101 q 319 -69 294 -69 l 490 -69 q 510 -78 501 -69 q 518 -99 518 -86 q 517 -111 518 -106 l 444 -296 q 426 -323 439 -310 q 389 -336 414 -336 l 265 -336 z "},"ß":{"ha":918,"x_min":72,"x_max":874,"o":"m 108 0 q 83 10 93 0 q 72 36 72 21 l 72 640 q 113 815 72 738 q 238 940 153 893 q 458 986 322 986 q 675 945 593 986 q 794 840 757 904 q 832 704 832 775 q 822 628 832 663 q 791 568 811 594 q 742 521 771 542 q 814 472 785 503 q 858 398 843 440 q 874 296 874 356 q 852 192 874 244 q 785 96 831 139 q 669 26 740 53 q 501 0 599 0 l 442 0 q 411 10 422 0 q 400 36 400 21 l 400 168 q 411 194 400 183 q 442 204 422 206 l 461 204 q 548 233 515 204 q 581 308 581 263 q 549 383 581 354 q 457 413 518 413 l 438 413 q 408 424 417 413 q 400 450 400 435 l 400 564 q 407 590 400 579 q 438 600 414 600 l 456 600 q 536 625 507 601 q 565 689 565 649 q 536 754 565 728 q 458 781 507 781 q 379 749 408 781 q 350 647 350 718 l 350 36 q 340 10 350 21 q 314 0 329 0 l 108 0 z "},"ſ":{"ha":507,"x_min":24,"x_max":647,"o":"m 196 0 q 171 10 182 0 q 160 36 160 21 l 160 510 l 60 510 q 34 520 44 510 q 24 546 24 531 l 24 686 q 34 712 24 701 q 60 722 44 722 l 160 722 l 160 756 q 203 919 160 860 q 321 1003 246 979 q 493 1028 396 1028 l 611 1028 q 637 1017 626 1028 q 647 992 647 1007 l 647 851 q 637 826 647 836 q 611 815 626 815 l 507 815 q 463 807 479 815 q 441 784 447 799 q 435 750 435 769 l 435 36 q 424 10 435 21 q 399 0 414 0 l 196 0 z "},"t":{"ha":694,"x_min":18,"x_max":660,"o":"m 481 0 q 315 28 386 0 q 203 119 243 56 q 164 286 164 182 l 164 510 l 54 510 q 28 520 39 510 q 18 546 18 531 l 18 686 q 28 712 18 701 q 54 722 39 722 l 164 722 l 164 950 q 174 976 164 965 q 200 986 185 986 l 401 986 q 427 976 417 986 q 438 950 438 965 l 438 722 l 613 722 q 638 712 628 722 q 649 686 649 701 l 649 546 q 638 520 649 531 q 613 510 628 510 l 438 510 l 438 310 q 454 247 438 269 q 507 224 471 224 l 624 224 q 649 213 639 224 q 660 188 660 203 l 660 36 q 649 10 660 21 q 624 0 639 0 l 481 0 z "},"ŧ":{"ha":697,"x_min":19,"x_max":663,"o":"m 483 0 q 317 28 389 0 q 206 119 246 56 q 165 286 165 182 l 165 378 l 57 378 q 31 389 42 378 q 19 414 19 400 l 19 475 q 31 501 19 490 q 57 513 42 513 l 165 513 l 165 589 l 57 589 q 31 599 42 589 q 19 625 19 610 l 19 686 q 31 712 19 701 q 57 722 42 722 l 165 722 l 165 950 q 176 976 165 965 q 201 986 188 986 l 404 986 q 430 976 419 986 q 440 950 440 965 l 440 722 l 614 722 q 640 712 629 722 q 651 686 651 701 l 651 625 q 640 599 651 610 q 614 589 629 589 l 440 589 l 440 513 l 614 513 q 640 501 629 513 q 651 475 651 490 l 651 414 q 640 389 651 400 q 614 378 629 378 l 440 378 l 440 310 q 456 247 440 269 q 510 224 472 224 l 626 224 q 652 213 642 224 q 663 188 663 203 l 663 36 q 652 10 663 21 q 626 0 642 0 l 483 0 z "},"ť":{"ha":694,"x_min":18,"x_max":800,"o":"m 481 0 q 315 28 386 0 q 203 119 243 56 q 164 286 164 182 l 164 510 l 54 510 q 28 520 39 510 q 18 546 18 531 l 18 686 q 28 712 18 701 q 54 722 39 722 l 164 722 l 164 950 q 174 976 164 965 q 200 986 185 986 l 401 986 q 427 976 417 986 q 438 950 438 965 l 438 722 l 613 722 q 638 712 628 722 q 649 686 649 701 l 649 546 q 638 520 649 531 q 613 510 628 510 l 438 510 l 438 310 q 454 247 438 269 q 507 224 471 224 l 624 224 q 649 213 639 224 q 660 188 660 203 l 660 36 q 649 10 660 21 q 624 0 639 0 l 481 0 m 547 849 q 526 857 535 849 q 519 878 518 865 l 547 1064 q 563 1099 550 1083 q 601 1115 576 1115 l 772 1115 q 792 1107 783 1115 q 800 1086 800 1099 q 799 1074 800 1079 l 726 889 q 708 862 721 875 q 671 849 696 849 l 547 849 z "},"ț":{"ha":694,"x_min":18,"x_max":660,"o":"m 481 0 q 315 28 386 0 q 203 119 243 56 q 164 286 164 182 l 164 510 l 54 510 q 28 520 39 510 q 18 546 18 531 l 18 686 q 28 712 18 701 q 54 722 39 722 l 164 722 l 164 950 q 174 976 164 965 q 200 986 185 986 l 401 986 q 427 976 417 986 q 438 950 438 965 l 438 722 l 613 722 q 638 712 628 722 q 649 686 649 701 l 649 546 q 638 520 649 531 q 613 510 628 510 l 438 510 l 438 310 q 454 247 438 269 q 507 224 471 224 l 624 224 q 649 213 639 224 q 660 188 660 203 l 660 36 q 649 10 660 21 q 624 0 639 0 l 481 0 m 279 -336 q 258 -328 267 -336 q 251 -307 250 -319 l 279 -121 q 295 -85 282 -101 q 333 -69 308 -69 l 504 -69 q 524 -78 515 -69 q 532 -99 532 -86 q 531 -111 532 -106 l 458 -296 q 440 -323 453 -310 q 403 -336 428 -336 l 279 -336 z "},"u":{"ha":913,"x_min":65,"x_max":842,"o":"m 336 -14 q 201 21 263 -14 q 102 125 139 56 q 65 300 65 194 l 65 686 q 76 712 65 701 q 101 722 86 722 l 321 722 q 347 712 336 722 q 357 686 357 701 l 357 310 q 453 203 357 203 q 524 231 499 203 q 550 310 550 258 l 550 686 q 560 712 550 701 q 586 722 571 722 l 806 722 q 831 712 819 722 q 842 686 842 701 l 842 36 q 831 10 842 21 q 806 0 819 0 l 603 0 q 577 10 588 0 q 567 36 567 21 l 567 86 q 472 10 532 35 q 336 -14 413 -14 z "},"ú":{"ha":913,"x_min":65,"x_max":842,"o":"m 336 -14 q 201 21 263 -14 q 102 125 139 56 q 65 300 65 194 l 65 686 q 76 712 65 701 q 101 722 86 722 l 321 722 q 347 712 336 722 q 357 686 357 701 l 357 310 q 453 203 357 203 q 524 231 499 203 q 550 310 550 258 l 550 686 q 560 712 550 701 q 586 722 571 722 l 806 722 q 831 712 819 722 q 842 686 842 701 l 842 36 q 831 10 842 21 q 806 0 819 0 l 603 0 q 577 10 588 0 q 567 36 567 21 l 567 86 q 472 10 532 35 q 336 -14 413 -14 m 357 826 q 335 849 335 826 q 342 867 335 860 l 472 1026 q 497 1048 486 1043 q 524 1053 507 1053 l 744 1053 q 771 1025 771 1053 q 764 1008 771 1015 l 569 849 q 547 833 558 839 q 514 826 535 826 l 357 826 z "},"ŭ":{"ha":913,"x_min":65,"x_max":842,"o":"m 336 -14 q 201 21 263 -14 q 102 125 139 56 q 65 300 65 194 l 65 686 q 76 712 65 701 q 101 722 86 722 l 321 722 q 347 712 336 722 q 357 686 357 701 l 357 310 q 453 203 357 203 q 524 231 499 203 q 550 310 550 258 l 550 686 q 560 712 550 701 q 586 722 571 722 l 806 722 q 831 712 819 722 q 842 686 842 701 l 842 36 q 831 10 842 21 q 806 0 819 0 l 603 0 q 577 10 588 0 q 567 36 567 21 l 567 86 q 472 10 532 35 q 336 -14 413 -14 m 456 819 q 333 847 382 819 q 258 922 283 875 q 233 1026 233 968 q 240 1045 233 1038 q 260 1053 247 1053 l 369 1053 q 389 1045 382 1053 q 396 1026 396 1038 q 409 970 396 994 q 456 946 422 946 q 503 970 490 946 q 515 1026 515 994 q 522 1045 515 1038 q 542 1053 529 1053 l 651 1053 q 671 1045 664 1053 q 678 1026 678 1038 q 653 922 678 968 q 579 847 629 875 q 456 819 529 819 z "},"û":{"ha":913,"x_min":65,"x_max":842,"o":"m 336 -14 q 201 21 263 -14 q 102 125 139 56 q 65 300 65 194 l 65 686 q 76 712 65 701 q 101 722 86 722 l 321 722 q 347 712 336 722 q 357 686 357 701 l 357 310 q 453 203 357 203 q 524 231 499 203 q 550 310 550 258 l 550 686 q 560 712 550 701 q 586 722 571 722 l 806 722 q 831 712 819 722 q 842 686 842 701 l 842 36 q 831 10 842 21 q 806 0 819 0 l 603 0 q 577 10 588 0 q 567 36 567 21 l 567 86 q 472 10 532 35 q 336 -14 413 -14 m 200 826 q 179 847 179 826 q 188 867 179 858 l 336 1026 q 362 1047 351 1042 q 386 1053 372 1053 l 525 1053 q 550 1047 539 1053 q 575 1026 561 1042 l 724 867 q 733 847 733 858 q 711 826 733 826 l 632 826 q 607 828 619 826 q 581 836 594 829 l 456 899 l 331 836 q 306 828 319 829 q 279 826 292 826 l 200 826 z "},"ü":{"ha":913,"x_min":65,"x_max":842,"o":"m 336 -14 q 201 21 263 -14 q 102 125 139 56 q 65 300 65 194 l 65 686 q 76 712 65 701 q 101 722 86 722 l 321 722 q 347 712 336 722 q 357 686 357 701 l 357 310 q 453 203 357 203 q 524 231 499 203 q 550 310 550 258 l 550 686 q 560 712 550 701 q 586 722 571 722 l 806 722 q 831 712 819 722 q 842 686 842 701 l 842 36 q 831 10 842 21 q 806 0 819 0 l 603 0 q 577 10 588 0 q 567 36 567 21 l 567 86 q 472 10 532 35 q 336 -14 413 -14 m 535 835 q 513 843 521 835 q 504 867 504 851 l 504 1017 q 513 1040 504 1031 q 535 1049 521 1049 l 685 1049 q 708 1040 699 1049 q 717 1017 717 1031 l 717 867 q 708 843 717 851 q 685 835 699 835 l 535 835 m 226 835 q 203 843 211 835 q 194 867 194 851 l 194 1017 q 203 1040 194 1031 q 226 1049 211 1049 l 375 1049 q 398 1040 389 1049 q 407 1017 407 1031 l 407 867 q 398 843 407 851 q 375 835 389 835 l 226 835 z "},"ù":{"ha":913,"x_min":65,"x_max":842,"o":"m 336 -14 q 201 21 263 -14 q 102 125 139 56 q 65 300 65 194 l 65 686 q 76 712 65 701 q 101 722 86 722 l 321 722 q 347 712 336 722 q 357 686 357 701 l 357 310 q 453 203 357 203 q 524 231 499 203 q 550 310 550 258 l 550 686 q 560 712 550 701 q 586 722 571 722 l 806 722 q 831 712 819 722 q 842 686 842 701 l 842 36 q 831 10 842 21 q 806 0 819 0 l 603 0 q 577 10 588 0 q 567 36 567 21 l 567 86 q 472 10 532 35 q 336 -14 413 -14 m 399 826 q 366 833 378 826 q 343 849 354 839 l 149 1008 q 142 1025 142 1015 q 168 1053 142 1053 l 389 1053 q 416 1048 406 1053 q 440 1026 426 1043 l 571 867 q 578 849 578 860 q 556 826 578 826 l 399 826 z "},"ű":{"ha":913,"x_min":65,"x_max":849,"o":"m 336 -14 q 201 21 263 -14 q 102 125 139 56 q 65 300 65 194 l 65 686 q 76 712 65 701 q 101 722 86 722 l 321 722 q 347 712 336 722 q 357 686 357 701 l 357 310 q 453 203 357 203 q 524 231 499 203 q 550 310 550 258 l 550 686 q 560 712 550 701 q 586 722 571 722 l 806 722 q 831 712 819 722 q 842 686 842 701 l 842 36 q 831 10 842 21 q 806 0 819 0 l 603 0 q 577 10 588 0 q 567 36 567 21 l 567 86 q 472 10 532 35 q 336 -14 413 -14 m 539 826 q 517 849 517 826 q 519 860 517 854 q 524 869 522 865 l 594 1026 q 646 1053 607 1053 l 821 1053 q 849 1026 849 1053 q 840 1008 849 1017 l 693 846 q 647 826 676 826 l 539 826 m 213 826 q 190 849 190 826 q 193 860 190 854 q 197 869 196 865 l 268 1026 q 319 1053 281 1053 l 494 1053 q 522 1026 522 1053 q 514 1008 522 1017 l 367 846 q 321 826 350 826 l 213 826 z "},"ū":{"ha":913,"x_min":65,"x_max":842,"o":"m 336 -14 q 201 21 263 -14 q 102 125 139 56 q 65 300 65 194 l 65 686 q 76 712 65 701 q 101 722 86 722 l 321 722 q 347 712 336 722 q 357 686 357 701 l 357 310 q 453 203 357 203 q 524 231 499 203 q 550 310 550 258 l 550 686 q 560 712 550 701 q 586 722 571 722 l 806 722 q 831 712 819 722 q 842 686 842 701 l 842 36 q 831 10 842 21 q 806 0 819 0 l 603 0 q 577 10 588 0 q 567 36 567 21 l 567 86 q 472 10 532 35 q 336 -14 413 -14 m 244 833 q 221 842 229 833 q 213 865 213 851 l 213 986 q 221 1009 213 1000 q 244 1018 229 1018 l 665 1018 q 688 1009 679 1018 q 696 986 696 1000 l 696 865 q 688 842 696 851 q 665 833 679 833 l 244 833 z "},"ų":{"ha":913,"x_min":65,"x_max":842,"o":"m 786 -306 q 662 -276 711 -306 q 588 -194 613 -246 q 564 -79 564 -143 q 567 -44 564 -60 q 578 -15 571 -29 q 590 10 585 -1 q 574 22 581 13 q 567 42 567 31 l 567 86 q 472 10 532 35 q 336 -14 413 -14 q 201 21 263 -14 q 102 125 139 56 q 65 300 65 194 l 65 686 q 76 712 65 701 q 101 722 86 722 l 321 722 q 347 712 336 722 q 357 686 357 701 l 357 310 q 453 203 357 203 q 524 231 499 203 q 550 310 550 258 l 550 686 q 560 712 550 701 q 586 722 571 722 l 806 722 q 831 712 819 722 q 842 686 842 701 l 842 36 q 831 12 842 22 q 807 0 821 1 l 788 0 q 736 -29 751 -6 q 721 -79 721 -53 q 737 -130 721 -107 q 792 -153 753 -153 l 806 -153 q 831 -163 819 -153 q 842 -189 842 -174 l 842 -269 q 831 -295 842 -285 q 806 -306 819 -306 l 786 -306 z "},"ů":{"ha":913,"x_min":65,"x_max":842,"o":"m 336 -14 q 201 21 263 -14 q 102 125 139 56 q 65 300 65 194 l 65 686 q 76 712 65 701 q 101 722 86 722 l 321 722 q 347 712 336 722 q 357 686 357 701 l 357 310 q 453 203 357 203 q 524 231 499 203 q 550 310 550 258 l 550 686 q 560 712 550 701 q 586 722 571 722 l 806 722 q 831 712 819 722 q 842 686 842 701 l 842 36 q 831 10 842 21 q 806 0 819 0 l 603 0 q 577 10 588 0 q 567 36 567 21 l 567 86 q 472 10 532 35 q 336 -14 413 -14 m 456 819 q 362 856 401 819 q 322 946 322 892 q 361 1038 322 1001 q 456 1074 400 1074 q 550 1038 511 1074 q 589 946 589 1001 q 550 856 589 892 q 456 819 511 819 m 456 904 q 485 916 474 904 q 497 946 497 928 q 485 976 497 964 q 456 988 474 988 q 426 976 438 988 q 414 946 414 964 q 426 916 414 928 q 456 904 438 904 z "},"ũ":{"ha":913,"x_min":65,"x_max":842,"o":"m 336 -14 q 201 21 263 -14 q 102 125 139 56 q 65 300 65 194 l 65 686 q 76 712 65 701 q 101 722 86 722 l 321 722 q 347 712 336 722 q 357 686 357 701 l 357 310 q 453 203 357 203 q 524 231 499 203 q 550 310 550 258 l 550 686 q 560 712 550 701 q 586 722 571 722 l 806 722 q 831 712 819 722 q 842 686 842 701 l 842 36 q 831 10 842 21 q 806 0 819 0 l 603 0 q 577 10 588 0 q 567 36 567 21 l 567 86 q 472 10 532 35 q 336 -14 413 -14 m 543 819 q 478 832 504 819 q 433 857 453 844 q 388 869 413 869 q 358 859 367 869 q 342 838 349 849 q 319 826 335 826 l 219 826 q 202 834 210 826 q 194 851 194 842 q 203 907 194 874 q 231 972 211 940 q 283 1026 250 1004 q 367 1047 315 1047 q 431 1035 406 1047 q 477 1010 457 1022 q 524 997 497 997 q 551 1008 543 997 q 567 1030 560 1019 q 590 1040 575 1040 l 690 1040 q 709 1033 703 1040 q 715 1015 715 1025 q 707 959 715 992 q 679 894 699 926 q 626 841 660 863 q 543 819 593 819 z "},"v":{"ha":850,"x_min":19,"x_max":831,"o":"m 333 0 q 303 11 313 0 q 286 35 293 22 l 21 679 q 19 690 19 685 q 29 713 19 703 q 51 722 39 722 l 249 722 q 278 712 268 722 q 292 692 288 701 l 425 315 l 560 692 q 574 712 564 701 q 603 722 583 722 l 799 722 q 822 713 813 722 q 831 690 831 703 q 829 679 831 685 l 565 35 q 549 11 560 22 q 518 0 539 0 l 333 0 z "},"w":{"ha":1185,"x_min":29,"x_max":1157,"o":"m 278 0 q 247 10 257 0 q 232 35 236 21 l 31 678 q 29 690 29 685 q 38 713 29 703 q 61 722 47 722 l 240 722 q 271 712 260 722 q 283 692 282 701 l 385 349 l 492 690 q 506 711 494 700 q 538 722 517 722 l 647 722 q 679 711 668 722 q 693 690 690 700 l 800 349 l 901 692 q 915 712 904 701 q 946 722 926 722 l 1125 722 q 1147 713 1138 722 q 1157 690 1157 703 q 1156 678 1157 685 l 954 35 q 939 10 949 21 q 908 0 929 0 l 753 0 q 722 10 732 0 q 706 35 711 21 l 593 365 l 479 35 q 465 10 475 21 q 433 0 454 0 l 278 0 z "},"ẃ":{"ha":1185,"x_min":29,"x_max":1157,"o":"m 278 0 q 247 10 257 0 q 232 35 236 21 l 31 678 q 29 690 29 685 q 38 713 29 703 q 61 722 47 722 l 240 722 q 271 712 260 722 q 283 692 282 701 l 385 349 l 492 690 q 506 711 494 700 q 538 722 517 722 l 647 722 q 679 711 668 722 q 693 690 690 700 l 800 349 l 901 692 q 915 712 904 701 q 946 722 926 722 l 1125 722 q 1147 713 1138 722 q 1157 690 1157 703 q 1156 678 1157 685 l 954 35 q 939 10 949 21 q 908 0 929 0 l 753 0 q 722 10 732 0 q 706 35 711 21 l 593 365 l 479 35 q 465 10 475 21 q 433 0 454 0 l 278 0 m 494 826 q 472 849 472 826 q 479 867 472 860 l 610 1026 q 634 1048 624 1043 q 661 1053 644 1053 l 882 1053 q 908 1025 908 1053 q 901 1008 908 1015 l 707 849 q 684 833 696 839 q 651 826 672 826 l 494 826 z "},"ŵ":{"ha":1185,"x_min":29,"x_max":1157,"o":"m 278 0 q 247 10 257 0 q 232 35 236 21 l 31 678 q 29 690 29 685 q 38 713 29 703 q 61 722 47 722 l 240 722 q 271 712 260 722 q 283 692 282 701 l 385 349 l 492 690 q 506 711 494 700 q 538 722 517 722 l 647 722 q 679 711 668 722 q 693 690 690 700 l 800 349 l 901 692 q 915 712 904 701 q 946 722 926 722 l 1125 722 q 1147 713 1138 722 q 1157 690 1157 703 q 1156 678 1157 685 l 954 35 q 939 10 949 21 q 908 0 929 0 l 753 0 q 722 10 732 0 q 706 35 711 21 l 593 365 l 479 35 q 465 10 475 21 q 433 0 454 0 l 278 0 m 338 826 q 317 847 317 826 q 325 867 317 858 l 474 1026 q 499 1047 489 1042 q 524 1053 510 1053 l 663 1053 q 688 1047 676 1053 q 713 1026 699 1042 l 861 867 q 871 847 871 858 q 849 826 871 826 l 769 826 q 744 828 757 826 q 718 836 732 829 l 593 899 l 468 836 q 443 828 457 829 q 417 826 429 826 l 338 826 z "},"ẅ":{"ha":1185,"x_min":29,"x_max":1157,"o":"m 278 0 q 247 10 257 0 q 232 35 236 21 l 31 678 q 29 690 29 685 q 38 713 29 703 q 61 722 47 722 l 240 722 q 271 712 260 722 q 283 692 282 701 l 385 349 l 492 690 q 506 711 494 700 q 538 722 517 722 l 647 722 q 679 711 668 722 q 693 690 690 700 l 800 349 l 901 692 q 915 712 904 701 q 946 722 926 722 l 1125 722 q 1147 713 1138 722 q 1157 690 1157 703 q 1156 678 1157 685 l 954 35 q 939 10 949 21 q 908 0 929 0 l 753 0 q 722 10 732 0 q 706 35 711 21 l 593 365 l 479 35 q 465 10 475 21 q 433 0 454 0 l 278 0 m 672 835 q 650 843 658 835 q 642 867 642 851 l 642 1017 q 650 1040 642 1031 q 672 1049 658 1049 l 822 1049 q 845 1040 836 1049 q 854 1017 854 1031 l 854 867 q 845 843 854 851 q 822 835 836 835 l 672 835 m 364 835 q 340 843 349 835 q 332 867 332 851 l 332 1017 q 340 1040 332 1031 q 364 1049 349 1049 l 513 1049 q 535 1040 526 1049 q 544 1017 544 1031 l 544 867 q 535 843 544 851 q 513 835 526 835 l 364 835 z "},"ẁ":{"ha":1185,"x_min":29,"x_max":1157,"o":"m 278 0 q 247 10 257 0 q 232 35 236 21 l 31 678 q 29 690 29 685 q 38 713 29 703 q 61 722 47 722 l 240 722 q 271 712 260 722 q 283 692 282 701 l 385 349 l 492 690 q 506 711 494 700 q 538 722 517 722 l 647 722 q 679 711 668 722 q 693 690 690 700 l 800 349 l 901 692 q 915 712 904 701 q 946 722 926 722 l 1125 722 q 1147 713 1138 722 q 1157 690 1157 703 q 1156 678 1157 685 l 954 35 q 939 10 949 21 q 908 0 929 0 l 753 0 q 722 10 732 0 q 706 35 711 21 l 593 365 l 479 35 q 465 10 475 21 q 433 0 454 0 l 278 0 m 536 826 q 503 833 515 826 q 481 849 492 839 l 286 1008 q 279 1025 279 1015 q 306 1053 279 1053 l 526 1053 q 553 1048 543 1053 q 578 1026 564 1043 l 708 867 q 715 849 715 860 q 693 826 715 826 l 536 826 z "},"x":{"ha":846,"x_min":14,"x_max":832,"o":"m 46 0 q 23 10 32 0 q 14 32 14 19 q 15 42 14 36 q 21 53 17 47 l 249 372 l 43 669 q 38 679 40 674 q 36 690 36 685 q 46 713 36 703 q 68 722 56 722 l 281 722 q 310 713 300 722 q 324 697 319 704 l 428 546 l 532 697 q 547 713 538 704 q 575 722 556 722 l 778 722 q 800 713 790 722 q 810 692 810 703 q 808 679 810 685 q 803 669 807 674 l 593 372 l 825 53 q 831 42 829 47 q 832 32 832 36 q 822 10 832 19 q 800 0 813 0 l 578 0 q 551 8 560 0 q 538 24 543 17 l 422 185 l 303 24 q 290 8 299 17 q 263 0 281 0 l 46 0 z "},"y":{"ha":857,"x_min":24,"x_max":842,"o":"m 211 -264 q 190 -256 199 -264 q 181 -235 181 -247 q 181 -228 181 -232 q 183 -218 182 -224 l 294 44 l 26 676 q 24 690 24 685 q 35 713 26 703 q 57 722 44 722 l 253 722 q 283 712 274 722 q 296 692 292 701 l 432 331 l 572 692 q 588 713 578 703 q 617 722 597 722 l 811 722 q 832 713 822 722 q 842 693 842 704 q 839 676 842 685 l 447 -233 q 431 -254 442 -244 q 401 -264 421 -264 l 211 -264 z "},"ý":{"ha":857,"x_min":24,"x_max":842,"o":"m 211 -264 q 190 -256 199 -264 q 181 -235 181 -247 q 181 -228 181 -232 q 183 -218 182 -224 l 294 44 l 26 676 q 24 690 24 685 q 35 713 26 703 q 57 722 44 722 l 253 722 q 283 712 274 722 q 296 692 292 701 l 432 331 l 572 692 q 588 713 578 703 q 617 722 597 722 l 811 722 q 832 713 822 722 q 842 693 842 704 q 839 676 842 685 l 447 -233 q 431 -254 442 -244 q 401 -264 421 -264 l 211 -264 m 333 826 q 311 849 311 826 q 318 867 311 860 l 449 1026 q 473 1048 463 1043 q 500 1053 483 1053 l 721 1053 q 747 1025 747 1053 q 740 1008 747 1015 l 546 849 q 523 833 535 839 q 490 826 511 826 l 333 826 z "},"ŷ":{"ha":857,"x_min":24,"x_max":842,"o":"m 211 -264 q 190 -256 199 -264 q 181 -235 181 -247 q 181 -228 181 -232 q 183 -218 182 -224 l 294 44 l 26 676 q 24 690 24 685 q 35 713 26 703 q 57 722 44 722 l 253 722 q 283 712 274 722 q 296 692 292 701 l 432 331 l 572 692 q 588 713 578 703 q 617 722 597 722 l 811 722 q 832 713 822 722 q 842 693 842 704 q 839 676 842 685 l 447 -233 q 431 -254 442 -244 q 401 -264 421 -264 l 211 -264 m 176 826 q 156 847 156 826 q 164 867 156 858 l 313 1026 q 338 1047 328 1042 q 363 1053 349 1053 l 501 1053 q 526 1047 515 1053 q 551 1026 538 1042 l 700 867 q 710 847 710 858 q 688 826 710 826 l 608 826 q 583 828 596 826 q 557 836 571 829 l 432 899 l 307 836 q 282 828 296 829 q 256 826 268 826 l 176 826 z "},"ÿ":{"ha":857,"x_min":24,"x_max":842,"o":"m 211 -264 q 190 -256 199 -264 q 181 -235 181 -247 q 181 -228 181 -232 q 183 -218 182 -224 l 294 44 l 26 676 q 24 690 24 685 q 35 713 26 703 q 57 722 44 722 l 253 722 q 283 712 274 722 q 296 692 292 701 l 432 331 l 572 692 q 588 713 578 703 q 617 722 597 722 l 811 722 q 832 713 822 722 q 842 693 842 704 q 839 676 842 685 l 447 -233 q 431 -254 442 -244 q 401 -264 421 -264 l 211 -264 m 511 835 q 489 843 497 835 q 481 867 481 851 l 481 1017 q 489 1040 481 1031 q 511 1049 497 1049 l 661 1049 q 684 1040 675 1049 q 693 1017 693 1031 l 693 867 q 684 843 693 851 q 661 835 675 835 l 511 835 m 203 835 q 179 843 188 835 q 171 867 171 851 l 171 1017 q 179 1040 171 1031 q 203 1049 188 1049 l 351 1049 q 374 1040 365 1049 q 383 1017 383 1031 l 383 867 q 374 843 383 851 q 351 835 365 835 l 203 835 z "},"ỳ":{"ha":857,"x_min":24,"x_max":842,"o":"m 211 -264 q 190 -256 199 -264 q 181 -235 181 -247 q 181 -228 181 -232 q 183 -218 182 -224 l 294 44 l 26 676 q 24 690 24 685 q 35 713 26 703 q 57 722 44 722 l 253 722 q 283 712 274 722 q 296 692 292 701 l 432 331 l 572 692 q 588 713 578 703 q 617 722 597 722 l 811 722 q 832 713 822 722 q 842 693 842 704 q 839 676 842 685 l 447 -233 q 431 -254 442 -244 q 401 -264 421 -264 l 211 -264 m 376 826 q 344 833 356 826 q 321 849 332 839 l 126 1008 q 119 1025 119 1015 q 146 1053 119 1053 l 367 1053 q 394 1048 383 1053 q 418 1026 404 1043 l 549 867 q 556 849 556 860 q 533 826 556 826 l 376 826 z "},"z":{"ha":793,"x_min":51,"x_max":750,"o":"m 88 0 q 62 10 72 0 q 51 36 51 21 l 51 171 q 58 198 51 186 q 74 218 64 210 l 375 513 l 99 513 q 73 524 83 513 q 63 549 63 535 l 63 686 q 73 712 63 701 q 99 722 83 722 l 685 722 q 710 712 700 722 q 721 686 721 701 l 721 539 q 716 517 721 528 q 701 499 711 507 l 411 210 l 714 210 q 740 199 729 210 q 750 174 750 188 l 750 36 q 740 10 750 21 q 714 0 729 0 l 88 0 z "},"ź":{"ha":793,"x_min":51,"x_max":750,"o":"m 88 0 q 62 10 72 0 q 51 36 51 21 l 51 171 q 58 198 51 186 q 74 218 64 210 l 375 513 l 99 513 q 73 524 83 513 q 63 549 63 535 l 63 686 q 73 712 63 701 q 99 722 83 722 l 685 722 q 710 712 700 722 q 721 686 721 701 l 721 539 q 716 517 721 528 q 701 499 711 507 l 411 210 l 714 210 q 740 199 729 210 q 750 174 750 188 l 750 36 q 740 10 750 21 q 714 0 729 0 l 88 0 m 300 826 q 278 849 278 826 q 285 867 278 860 l 415 1026 q 440 1048 429 1043 q 467 1053 450 1053 l 688 1053 q 714 1025 714 1053 q 707 1008 714 1015 l 513 849 q 490 833 501 839 q 457 826 478 826 l 300 826 z "},"ž":{"ha":793,"x_min":51,"x_max":750,"o":"m 88 0 q 62 10 72 0 q 51 36 51 21 l 51 171 q 58 198 51 186 q 74 218 64 210 l 375 513 l 99 513 q 73 524 83 513 q 63 549 63 535 l 63 686 q 73 712 63 701 q 99 722 83 722 l 685 722 q 710 712 700 722 q 721 686 721 701 l 721 539 q 716 517 721 528 q 701 499 711 507 l 411 210 l 714 210 q 740 199 729 210 q 750 174 750 188 l 750 36 q 740 10 750 21 q 714 0 729 0 l 88 0 m 329 826 q 305 832 315 826 q 279 851 294 838 l 131 1011 q 122 1031 122 1019 q 143 1053 122 1053 l 222 1053 q 249 1051 235 1053 q 274 1043 263 1049 l 399 979 l 524 1043 q 550 1051 538 1049 q 575 1053 563 1053 l 654 1053 q 676 1031 676 1053 q 667 1011 676 1019 l 518 851 q 493 832 504 838 q 468 826 482 826 l 329 826 z "},"ż":{"ha":793,"x_min":51,"x_max":750,"o":"m 88 0 q 62 10 72 0 q 51 36 51 21 l 51 171 q 58 198 51 186 q 74 218 64 210 l 375 513 l 99 513 q 73 524 83 513 q 63 549 63 535 l 63 686 q 73 712 63 701 q 99 722 83 722 l 685 722 q 710 712 700 722 q 721 686 721 701 l 721 539 q 716 517 721 528 q 701 499 711 507 l 411 210 l 714 210 q 740 199 729 210 q 750 174 750 188 l 750 36 q 740 10 750 21 q 714 0 729 0 l 88 0 m 318 832 q 294 841 303 832 q 286 864 286 850 l 286 1024 q 294 1047 286 1038 q 318 1056 303 1056 l 478 1056 q 501 1047 492 1056 q 510 1024 510 1038 l 510 864 q 501 841 510 850 q 478 832 492 832 l 318 832 z "},"ﬁ":{"ha":1015,"x_min":22,"x_max":943,"o":"m 196 0 q 170 10 181 0 q 160 36 160 21 l 160 510 l 58 510 q 33 520 43 510 q 22 546 22 531 l 22 686 q 33 712 22 701 q 58 722 43 722 l 160 722 l 160 757 q 202 920 160 861 q 319 1003 244 979 q 492 1028 394 1028 l 907 1028 q 933 1017 922 1028 q 943 992 943 1007 l 943 851 q 933 826 943 836 q 907 815 922 815 l 506 815 q 450 798 467 815 q 433 750 433 781 l 433 722 l 907 722 q 933 712 922 722 q 943 686 943 701 l 943 36 q 933 10 943 21 q 907 0 922 0 l 704 0 q 679 10 690 0 q 668 36 668 21 l 668 510 l 433 510 l 433 36 q 423 10 433 21 q 397 0 413 0 l 196 0 z "}}}
